M48
; DRILL file {KiCad (6.0.7)} date Fri Nov 11 00:26:02 2022
; FORMAT={-:-/ absolute / inch / decimal}
; #@! TF.CreationDate,2022-11-11T00:26:02-08:00
; #@! TF.GenerationSoftware,Kicad,Pcbnew,(6.0.7)
; #@! TF.FileFunction,Plated,1,4,PTH
FMAT,2
INCH
; #@! TA.AperFunction,Plated,PTH,ViaDrill
T1C0.0157
; #@! TA.AperFunction,Plated,PTH,ComponentDrill
T2C0.0197
; #@! TA.AperFunction,Plated,PTH,ComponentDrill
T3C0.0394
; #@! TA.AperFunction,Plated,PTH,ComponentDrill
T4C0.1378
%
G90
G05
T1
X6.1614Y-4.8327
X6.1614Y-5.748
X6.189Y-4.6969
X6.2303Y-5.5512
X6.2795Y-4.9213
X6.3521Y-4.7379
X6.4961Y-3.8484
X6.4961Y-6.7028
X6.5065Y-3.9266
X6.5354Y-3.9961
X6.5354Y-4.7539
X6.5354Y-6.2402
X6.5748Y-5.5512
X6.624Y-3.8484
X6.6339Y-6.7028
X6.6634Y-4.4685
X6.6634Y-4.5866
X6.6732Y-5.9744
X6.6732Y-6.0925
X6.6929Y-5.2067
X6.6929Y-5.3248
X6.7126Y-4.3012
X6.7126Y-6.5551
X6.7224Y-5.0394
X6.7224Y-5.8071
X6.7717Y-3.8484
X6.7717Y-6.7028
X6.8012Y-4.4685
X6.8012Y-4.5866
X6.811Y-5.9744
X6.811Y-6.0925
X6.8307Y-5.2067
X6.8307Y-5.3248
X6.9094Y-3.8484
X6.9094Y-6.7028
X6.939Y-4.4685
X6.939Y-4.5866
X6.9488Y-5.9744
X6.9488Y-6.0925
X6.9685Y-5.2067
X6.9685Y-5.3248
X7.0472Y-3.8484
X7.0472Y-6.7028
X7.0768Y-4.4685
X7.0768Y-4.5866
X7.0866Y-5.9744
X7.0866Y-6.0925
X7.1063Y-5.2067
X7.1063Y-5.3248
X7.185Y-3.8484
X7.185Y-6.7028
X7.2047Y-5.5118
X7.2146Y-4.4685
X7.2146Y-4.5866
X7.2146Y-4.7539
X7.2146Y-6.25
X7.2244Y-3.9961
X7.2244Y-5.9744
X7.2244Y-6.0925
X7.2441Y-5.2067
X7.2441Y-5.3248
X7.3031Y-3.8484
X7.3228Y-6.7028
X7.3524Y-4.4685
X7.3524Y-4.5866
X7.3622Y-5.9744
X7.3622Y-6.0925
X7.3819Y-5.2067
X7.3819Y-5.3248
X7.4016Y-4.3012
X7.4016Y-5.0492
X7.4016Y-5.7972
X7.4016Y-6.5551
X7.4606Y-3.8484
X7.4606Y-6.7028
X7.4902Y-4.4685
X7.4902Y-4.5866
X7.5Y-5.9744
X7.5Y-6.0925
X7.5197Y-5.2067
X7.5197Y-5.3248
X7.5984Y-3.8484
X7.5984Y-6.7028
X7.628Y-4.4685
X7.628Y-4.5866
X7.6378Y-5.9744
X7.6378Y-6.0925
X7.6575Y-5.2067
X7.6575Y-5.3248
X7.7362Y-3.8484
X7.7362Y-6.7028
X7.7657Y-4.4685
X7.7657Y-4.5866
X7.7756Y-5.9744
X7.7756Y-6.0925
X7.7953Y-5.2067
X7.7953Y-5.3248
X7.874Y-3.8484
X7.874Y-6.7028
X7.9035Y-3.9961
X7.9035Y-4.4685
X7.9035Y-4.5866
X7.9035Y-4.7539
X7.9035Y-5.502
X7.9035Y-6.25
X7.9134Y-5.9744
X7.9134Y-6.0925
X7.9331Y-5.2067
X7.9331Y-5.3248
X7.9921Y-3.8484
X8.002Y-6.7028
X8.0413Y-4.4685
X8.0413Y-4.5866
X8.0512Y-5.9744
X8.0512Y-6.0925
X8.0709Y-5.2067
X8.0709Y-5.3248
X8.0906Y-4.3012
X8.0906Y-5.0492
X8.0906Y-5.7972
X8.0906Y-6.5551
X8.1496Y-3.8484
X8.1496Y-6.7028
X8.1791Y-4.4685
X8.1791Y-4.5866
X8.189Y-5.9744
X8.189Y-6.0925
X8.2087Y-5.2067
X8.2087Y-5.3248
X8.2874Y-3.8484
X8.2874Y-6.7028
X8.3169Y-4.4685
X8.3169Y-4.5866
X8.3268Y-5.9744
X8.3268Y-6.0925
X8.3465Y-5.2067
X8.3465Y-5.3248
X8.4252Y-3.8484
X8.4252Y-6.7028
X8.4547Y-4.4685
X8.4547Y-4.5866
X8.4646Y-5.9744
X8.4646Y-6.0925
X8.4843Y-5.2067
X8.4843Y-5.3248
X8.563Y-3.8484
X8.563Y-6.7028
X8.5827Y-5.502
X8.5925Y-3.9961
X8.5925Y-4.4685
X8.5925Y-4.5866
X8.5925Y-4.7539
X8.5925Y-6.25
X8.6024Y-5.9744
X8.6024Y-6.0925
X8.622Y-5.2067
X8.622Y-5.3248
X8.6811Y-6.7028
X8.7008Y-3.8484
X8.7303Y-4.4685
X8.7303Y-4.5866
X8.7402Y-5.9744
X8.7402Y-6.0925
X8.7598Y-5.2067
X8.7598Y-5.3248
X8.7697Y-4.3012
X8.7795Y-5.0492
X8.7795Y-5.7972
X8.7795Y-6.5551
X8.8386Y-3.8484
X8.8386Y-6.7028
X8.8681Y-4.4685
X8.8681Y-4.5866
X8.878Y-5.9744
X8.878Y-6.0925
X8.8976Y-5.2067
X8.8976Y-5.3248
X8.9764Y-3.8484
X8.9764Y-6.7028
X9.0059Y-4.4685
X9.0059Y-4.5866
X9.0157Y-5.9744
X9.0157Y-6.0925
X9.0354Y-5.2067
X9.0354Y-5.3248
X9.1142Y-3.8484
X9.1142Y-6.7028
X9.1437Y-4.4685
X9.1437Y-4.5866
X9.1535Y-5.9744
X9.1535Y-6.0925
X9.1732Y-5.2067
X9.1732Y-5.3248
X9.252Y-3.8484
X9.252Y-6.7028
X9.2717Y-3.9961
X9.2717Y-4.7539
X9.2717Y-5.502
X9.2717Y-6.25
X9.2815Y-4.4685
X9.2815Y-4.5866
X9.2913Y-5.9744
X9.2913Y-6.0925
X9.311Y-5.2067
X9.311Y-5.3248
X9.3701Y-3.8484
X9.3701Y-6.7028
X9.4193Y-4.4685
X9.4193Y-4.5866
X9.4291Y-5.9744
X9.4291Y-6.0925
X9.4488Y-5.2067
X9.4488Y-5.3248
X9.4587Y-4.3012
X9.4587Y-5.0492
X9.4587Y-5.7972
X9.4685Y-6.5551
X9.5276Y-3.8484
X9.5276Y-6.7028
X9.5571Y-4.4685
X9.5571Y-4.5866
X9.5669Y-5.9744
X9.5669Y-6.0925
X9.5866Y-5.2067
X9.5866Y-5.3248
X9.6654Y-3.8484
X9.6654Y-6.7028
X9.6949Y-4.4685
X9.6949Y-4.5866
X9.7047Y-5.9744
X9.7047Y-6.0925
X9.7244Y-5.2067
X9.7244Y-5.3248
X9.8031Y-3.8484
X9.8031Y-6.7028
X9.8327Y-4.4685
X9.8327Y-4.5866
X9.8425Y-5.9744
X9.8425Y-6.0925
X9.8622Y-5.2067
X9.8622Y-5.3248
X9.9409Y-3.8484
X9.9409Y-6.7028
X9.9606Y-4.7539
X9.9606Y-6.25
X9.9705Y-3.9961
X9.9705Y-4.4685
X9.9705Y-4.5866
X9.9705Y-5.502
X9.9803Y-5.9744
X9.9803Y-6.0925
X10.0Y-5.2067
X10.0Y-5.3248
X10.0591Y-3.8484
X10.0591Y-6.7028
X10.1083Y-4.4685
X10.1083Y-4.5866
X10.1181Y-5.9744
X10.1181Y-6.0925
X10.1378Y-5.2067
X10.1378Y-5.3248
X10.1378Y-6.5453
X10.1476Y-4.2913
X10.1476Y-5.0492
X10.1476Y-5.7972
X10.1575Y-6.7028
X10.2461Y-4.4685
X10.2461Y-4.5866
X10.2559Y-5.9744
X10.2559Y-6.0925
X10.2756Y-5.2067
X10.2756Y-5.3248
X10.3839Y-4.4685
X10.3839Y-4.5866
X10.3937Y-5.9744
X10.3937Y-6.0925
X10.4134Y-5.2067
X10.4134Y-5.3248
T2
X6.1755Y-6.5846
X6.2058Y-6.5115
X6.2058Y-6.6576
X6.2789Y-6.4812
X6.2789Y-6.6879
X6.3519Y-6.5115
X6.3519Y-6.6576
X6.3822Y-6.5846
T3
X6.2795Y-5.0364
X6.2795Y-5.1364
X6.2795Y-5.2364
X6.2795Y-5.3364
X6.2795Y-5.4364
T4
X6.2789Y-3.9645
X6.2789Y-6.5846
X10.3989Y-3.9645
X10.3989Y-6.5846
T0
M30
