%TF.GenerationSoftware,KiCad,Pcbnew,(6.0.7)*%
%TF.CreationDate,2022-11-11T00:25:46-08:00*%
%TF.ProjectId,LED_Board_s_,4c45445f-426f-4617-9264-5f735f2e6b69,rev?*%
%TF.SameCoordinates,Original*%
%TF.FileFunction,Soldermask,Top*%
%TF.FilePolarity,Negative*%
%FSLAX46Y46*%
G04 Gerber Fmt 4.6, Leading zero omitted, Abs format (unit mm)*
G04 Created by KiCad (PCBNEW (6.0.7)) date 2022-11-11 00:25:46*
%MOMM*%
%LPD*%
G01*
G04 APERTURE LIST*
G04 Aperture macros list*
%AMRoundRect*
0 Rectangle with rounded corners*
0 $1 Rounding radius*
0 $2 $3 $4 $5 $6 $7 $8 $9 X,Y pos of 4 corners*
0 Add a 4 corners polygon primitive as box body*
4,1,4,$2,$3,$4,$5,$6,$7,$8,$9,$2,$3,0*
0 Add four circle primitives for the rounded corners*
1,1,$1+$1,$2,$3*
1,1,$1+$1,$4,$5*
1,1,$1+$1,$6,$7*
1,1,$1+$1,$8,$9*
0 Add four rect primitives between the rounded corners*
20,1,$1+$1,$2,$3,$4,$5,0*
20,1,$1+$1,$4,$5,$6,$7,0*
20,1,$1+$1,$6,$7,$8,$9,0*
20,1,$1+$1,$8,$9,$2,$3,0*%
G04 Aperture macros list end*
%ADD10R,0.800000X0.500000*%
%ADD11R,0.500000X1.000000*%
%ADD12R,0.800000X0.300000*%
%ADD13R,0.500000X1.480000*%
%ADD14RoundRect,0.250000X-0.400000X-0.625000X0.400000X-0.625000X0.400000X0.625000X-0.400000X0.625000X0*%
%ADD15C,1.000000*%
%ADD16C,0.800000*%
%ADD17C,7.000000*%
%ADD18RoundRect,0.150000X-0.512500X-0.150000X0.512500X-0.150000X0.512500X0.150000X-0.512500X0.150000X0*%
%ADD19R,1.700000X1.700000*%
%ADD20O,1.700000X1.700000*%
G04 APERTURE END LIST*
D10*
%TO.C,D32*%
X237147893Y-147360393D03*
D11*
X237997893Y-147430393D03*
D12*
X237147893Y-148260393D03*
D10*
X237147893Y-149160393D03*
X238847893Y-149160393D03*
D12*
X238847893Y-148260393D03*
D13*
X237997893Y-148850393D03*
D10*
X238847893Y-147360393D03*
%TD*%
D14*
%TO.C,R2*%
X157700000Y-143250000D03*
X160800000Y-143250000D03*
%TD*%
D11*
%TO.C,D44*%
X237997893Y-166480393D03*
D10*
X237147893Y-166410393D03*
D12*
X237147893Y-167310393D03*
D10*
X237147893Y-168210393D03*
X238847893Y-168210393D03*
D12*
X238847893Y-167310393D03*
D10*
X238847893Y-166410393D03*
D13*
X237997893Y-167900393D03*
%TD*%
D11*
%TO.C,D15*%
X203077893Y-120515393D03*
D10*
X203927893Y-120585393D03*
D12*
X203927893Y-119685393D03*
D10*
X203927893Y-118785393D03*
X202227893Y-118785393D03*
D12*
X202227893Y-119685393D03*
D10*
X202227893Y-120585393D03*
D13*
X203077893Y-119095393D03*
%TD*%
D14*
%TO.C,R4*%
X157700000Y-148500000D03*
X160800000Y-148500000D03*
%TD*%
D10*
%TO.C,D10*%
X202227893Y-109260393D03*
D11*
X203077893Y-109330393D03*
D12*
X202227893Y-110160393D03*
D10*
X202227893Y-111060393D03*
X203927893Y-111060393D03*
D12*
X203927893Y-110160393D03*
D13*
X203077893Y-110750393D03*
D10*
X203927893Y-109260393D03*
%TD*%
%TO.C,D13*%
X169007893Y-120585393D03*
D11*
X168157893Y-120515393D03*
D12*
X169007893Y-119685393D03*
D10*
X169007893Y-118785393D03*
X167307893Y-118785393D03*
D12*
X167307893Y-119685393D03*
D10*
X167307893Y-120585393D03*
D13*
X168157893Y-119095393D03*
%TD*%
D11*
%TO.C,D33*%
X220537893Y-147430393D03*
D10*
X219687893Y-147360393D03*
D12*
X219687893Y-148260393D03*
D10*
X219687893Y-149160393D03*
X221387893Y-149160393D03*
D12*
X221387893Y-148260393D03*
D13*
X220537893Y-148850393D03*
D10*
X221387893Y-147360393D03*
%TD*%
D11*
%TO.C,D20*%
X237997893Y-128380393D03*
D10*
X237147893Y-128310393D03*
D12*
X237147893Y-129210393D03*
D10*
X237147893Y-130110393D03*
X238847893Y-130110393D03*
D12*
X238847893Y-129210393D03*
D10*
X238847893Y-128310393D03*
D13*
X237997893Y-129800393D03*
%TD*%
D10*
%TO.C,D48*%
X167307893Y-166410393D03*
D11*
X168157893Y-166480393D03*
D12*
X167307893Y-167310393D03*
D10*
X167307893Y-168210393D03*
X169007893Y-168210393D03*
D12*
X169007893Y-167310393D03*
D13*
X168157893Y-167900393D03*
D10*
X169007893Y-166410393D03*
%TD*%
D15*
%TO.C,FID2*%
X265250000Y-159250000D03*
%TD*%
D10*
%TO.C,D17*%
X238847893Y-120585393D03*
D11*
X237997893Y-120515393D03*
D12*
X238847893Y-119685393D03*
D10*
X238847893Y-118785393D03*
X237147893Y-118785393D03*
D12*
X237147893Y-119685393D03*
D13*
X237997893Y-119095393D03*
D10*
X237147893Y-120585393D03*
%TD*%
%TO.C,D46*%
X202227893Y-166410393D03*
D11*
X203077893Y-166480393D03*
D12*
X202227893Y-167310393D03*
D10*
X202227893Y-168210393D03*
X203927893Y-168210393D03*
D12*
X203927893Y-167310393D03*
D13*
X203077893Y-167900393D03*
D10*
X203927893Y-166410393D03*
%TD*%
%TO.C,D43*%
X254607893Y-166410393D03*
D11*
X255457893Y-166480393D03*
D12*
X254607893Y-167310393D03*
D10*
X254607893Y-168210393D03*
X256307893Y-168210393D03*
D12*
X256307893Y-167310393D03*
D13*
X255457893Y-167900393D03*
D10*
X256307893Y-166410393D03*
%TD*%
%TO.C,D11*%
X184767893Y-109260393D03*
D11*
X185617893Y-109330393D03*
D12*
X184767893Y-110160393D03*
D10*
X184767893Y-111060393D03*
X186467893Y-111060393D03*
D12*
X186467893Y-110160393D03*
D10*
X186467893Y-109260393D03*
D13*
X185617893Y-110750393D03*
%TD*%
D11*
%TO.C,D40*%
X220537893Y-158615393D03*
D10*
X221387893Y-158685393D03*
D12*
X221387893Y-157785393D03*
D10*
X221387893Y-156885393D03*
X219687893Y-156885393D03*
D12*
X219687893Y-157785393D03*
D10*
X219687893Y-158685393D03*
D13*
X220537893Y-157195393D03*
%TD*%
D10*
%TO.C,D39*%
X203927893Y-158685393D03*
D11*
X203077893Y-158615393D03*
D12*
X203927893Y-157785393D03*
D10*
X203927893Y-156885393D03*
X202227893Y-156885393D03*
D12*
X202227893Y-157785393D03*
D13*
X203077893Y-157195393D03*
D10*
X202227893Y-158685393D03*
%TD*%
%TO.C,D34*%
X202227893Y-147360393D03*
D11*
X203077893Y-147430393D03*
D12*
X202227893Y-148260393D03*
D10*
X202227893Y-149160393D03*
X203927893Y-149160393D03*
D12*
X203927893Y-148260393D03*
D13*
X203077893Y-148850393D03*
D10*
X203927893Y-147360393D03*
%TD*%
D11*
%TO.C,D31*%
X255457893Y-147430393D03*
D10*
X254607893Y-147360393D03*
D12*
X254607893Y-148260393D03*
D10*
X254607893Y-149160393D03*
X256307893Y-149160393D03*
D12*
X256307893Y-148260393D03*
D10*
X256307893Y-147360393D03*
D13*
X255457893Y-148850393D03*
%TD*%
D11*
%TO.C,D21*%
X220537893Y-128380393D03*
D10*
X219687893Y-128310393D03*
D12*
X219687893Y-129210393D03*
D10*
X219687893Y-130110393D03*
X221387893Y-130110393D03*
D12*
X221387893Y-129210393D03*
D10*
X221387893Y-128310393D03*
D13*
X220537893Y-129800393D03*
%TD*%
D11*
%TO.C,D16*%
X220537893Y-120515393D03*
D10*
X221387893Y-120585393D03*
D12*
X221387893Y-119685393D03*
D10*
X221387893Y-118785393D03*
X219687893Y-118785393D03*
D12*
X219687893Y-119685393D03*
D13*
X220537893Y-119095393D03*
D10*
X219687893Y-120585393D03*
%TD*%
D16*
%TO.C,H2*%
X159482893Y-169872893D03*
X159482893Y-164622893D03*
X156857893Y-167247893D03*
D17*
X159482893Y-167247893D03*
D16*
X161339048Y-169104048D03*
X157626738Y-165391738D03*
X157626738Y-169104048D03*
X161339048Y-165391738D03*
X162107893Y-167247893D03*
%TD*%
D11*
%TO.C,D25*%
X168157893Y-139565393D03*
D10*
X169007893Y-139635393D03*
D12*
X169007893Y-138735393D03*
D10*
X169007893Y-137835393D03*
X167307893Y-137835393D03*
D12*
X167307893Y-138735393D03*
D13*
X168157893Y-138145393D03*
D10*
X167307893Y-139635393D03*
%TD*%
%TO.C,D4*%
X221387893Y-101535393D03*
D11*
X220537893Y-101465393D03*
D12*
X221387893Y-100635393D03*
D10*
X221387893Y-99735393D03*
X219687893Y-99735393D03*
D12*
X219687893Y-100635393D03*
D10*
X219687893Y-101535393D03*
D13*
X220537893Y-100045393D03*
%TD*%
D10*
%TO.C,D7*%
X254607893Y-109260393D03*
D11*
X255457893Y-109330393D03*
D12*
X254607893Y-110160393D03*
D10*
X254607893Y-111060393D03*
X256307893Y-111060393D03*
D12*
X256307893Y-110160393D03*
D13*
X255457893Y-110750393D03*
D10*
X256307893Y-109260393D03*
%TD*%
D14*
%TO.C,R3*%
X157200000Y-111750000D03*
X160300000Y-111750000D03*
%TD*%
D10*
%TO.C,D6*%
X256307893Y-101535393D03*
D11*
X255457893Y-101465393D03*
D12*
X256307893Y-100635393D03*
D10*
X256307893Y-99735393D03*
X254607893Y-99735393D03*
D12*
X254607893Y-100635393D03*
D10*
X254607893Y-101535393D03*
D13*
X255457893Y-100045393D03*
%TD*%
D10*
%TO.C,D1*%
X169007893Y-101535393D03*
D11*
X168157893Y-101465393D03*
D12*
X169007893Y-100635393D03*
D10*
X169007893Y-99735393D03*
X167307893Y-99735393D03*
D12*
X167307893Y-100635393D03*
D13*
X168157893Y-100045393D03*
D10*
X167307893Y-101535393D03*
%TD*%
%TO.C,D29*%
X238847893Y-139635393D03*
D11*
X237997893Y-139565393D03*
D12*
X238847893Y-138735393D03*
D10*
X238847893Y-137835393D03*
X237147893Y-137835393D03*
D12*
X237147893Y-138735393D03*
D10*
X237147893Y-139635393D03*
D13*
X237997893Y-138145393D03*
%TD*%
D10*
%TO.C,D35*%
X184767893Y-147360393D03*
D11*
X185617893Y-147430393D03*
D12*
X184767893Y-148260393D03*
D10*
X184767893Y-149160393D03*
X186467893Y-149160393D03*
D12*
X186467893Y-148260393D03*
D10*
X186467893Y-147360393D03*
D13*
X185617893Y-148850393D03*
%TD*%
D15*
%TO.C,FID1*%
X157250000Y-107000000D03*
%TD*%
D18*
%TO.C,Q1*%
X157862500Y-121550000D03*
X157862500Y-122500000D03*
X157862500Y-123450000D03*
X160137500Y-123450000D03*
X160137500Y-122500000D03*
X160137500Y-121550000D03*
%TD*%
D11*
%TO.C,D36*%
X168157893Y-147430393D03*
D10*
X167307893Y-147360393D03*
D12*
X167307893Y-148260393D03*
D10*
X167307893Y-149160393D03*
X169007893Y-149160393D03*
D12*
X169007893Y-148260393D03*
D10*
X169007893Y-147360393D03*
D13*
X168157893Y-148850393D03*
%TD*%
D10*
%TO.C,D26*%
X186467893Y-139635393D03*
D11*
X185617893Y-139565393D03*
D12*
X186467893Y-138735393D03*
D10*
X186467893Y-137835393D03*
X184767893Y-137835393D03*
D12*
X184767893Y-138735393D03*
D13*
X185617893Y-138145393D03*
D10*
X184767893Y-139635393D03*
%TD*%
%TO.C,D38*%
X186467893Y-158685393D03*
D11*
X185617893Y-158615393D03*
D12*
X186467893Y-157785393D03*
D10*
X186467893Y-156885393D03*
X184767893Y-156885393D03*
D12*
X184767893Y-157785393D03*
D13*
X185617893Y-157195393D03*
D10*
X184767893Y-158685393D03*
%TD*%
D11*
%TO.C,D23*%
X185617893Y-128380393D03*
D10*
X184767893Y-128310393D03*
D12*
X184767893Y-129210393D03*
D10*
X184767893Y-130110393D03*
X186467893Y-130110393D03*
D12*
X186467893Y-129210393D03*
D10*
X186467893Y-128310393D03*
D13*
X185617893Y-129800393D03*
%TD*%
D10*
%TO.C,D8*%
X237147893Y-109260393D03*
D11*
X237997893Y-109330393D03*
D12*
X237147893Y-110160393D03*
D10*
X237147893Y-111060393D03*
X238847893Y-111060393D03*
D12*
X238847893Y-110160393D03*
D10*
X238847893Y-109260393D03*
D13*
X237997893Y-110750393D03*
%TD*%
D10*
%TO.C,D30*%
X256307893Y-139635393D03*
D11*
X255457893Y-139565393D03*
D12*
X256307893Y-138735393D03*
D10*
X256307893Y-137835393D03*
X254607893Y-137835393D03*
D12*
X254607893Y-138735393D03*
D10*
X254607893Y-139635393D03*
D13*
X255457893Y-138145393D03*
%TD*%
D10*
%TO.C,D18*%
X256307893Y-120585393D03*
D11*
X255457893Y-120515393D03*
D12*
X256307893Y-119685393D03*
D10*
X256307893Y-118785393D03*
X254607893Y-118785393D03*
D12*
X254607893Y-119685393D03*
D13*
X255457893Y-119095393D03*
D10*
X254607893Y-120585393D03*
%TD*%
D11*
%TO.C,D2*%
X185617893Y-101465393D03*
D10*
X186467893Y-101535393D03*
D12*
X186467893Y-100635393D03*
D10*
X186467893Y-99735393D03*
X184767893Y-99735393D03*
D12*
X184767893Y-100635393D03*
D10*
X184767893Y-101535393D03*
D13*
X185617893Y-100045393D03*
%TD*%
D11*
%TO.C,D19*%
X255457893Y-128380393D03*
D10*
X254607893Y-128310393D03*
D12*
X254607893Y-129210393D03*
D10*
X254607893Y-130110393D03*
X256307893Y-130110393D03*
D12*
X256307893Y-129210393D03*
D10*
X256307893Y-128310393D03*
D13*
X255457893Y-129800393D03*
%TD*%
D17*
%TO.C,H3*%
X264132893Y-100697893D03*
%TD*%
D10*
%TO.C,D28*%
X221387893Y-139635393D03*
D11*
X220537893Y-139565393D03*
D12*
X221387893Y-138735393D03*
D10*
X221387893Y-137835393D03*
X219687893Y-137835393D03*
D12*
X219687893Y-138735393D03*
D10*
X219687893Y-139635393D03*
D13*
X220537893Y-138145393D03*
%TD*%
D11*
%TO.C,D12*%
X168157893Y-109330393D03*
D10*
X167307893Y-109260393D03*
D12*
X167307893Y-110160393D03*
D10*
X167307893Y-111060393D03*
X169007893Y-111060393D03*
D12*
X169007893Y-110160393D03*
D13*
X168157893Y-110750393D03*
D10*
X169007893Y-109260393D03*
%TD*%
%TO.C,D27*%
X203927893Y-139635393D03*
D11*
X203077893Y-139565393D03*
D12*
X203927893Y-138735393D03*
D10*
X203927893Y-137835393D03*
X202227893Y-137835393D03*
D12*
X202227893Y-138735393D03*
D10*
X202227893Y-139635393D03*
D13*
X203077893Y-138145393D03*
%TD*%
D10*
%TO.C,D45*%
X219687893Y-166410393D03*
D11*
X220537893Y-166480393D03*
D12*
X219687893Y-167310393D03*
D10*
X219687893Y-168210393D03*
X221387893Y-168210393D03*
D12*
X221387893Y-167310393D03*
D10*
X221387893Y-166410393D03*
D13*
X220537893Y-167900393D03*
%TD*%
D14*
%TO.C,R1*%
X157200000Y-116750000D03*
X160300000Y-116750000D03*
%TD*%
D10*
%TO.C,D14*%
X186467893Y-120585393D03*
D11*
X185617893Y-120515393D03*
D12*
X186467893Y-119685393D03*
D10*
X186467893Y-118785393D03*
X184767893Y-118785393D03*
D12*
X184767893Y-119685393D03*
D13*
X185617893Y-119095393D03*
D10*
X184767893Y-120585393D03*
%TD*%
%TO.C,D41*%
X238847893Y-158685393D03*
D11*
X237997893Y-158615393D03*
D12*
X238847893Y-157785393D03*
D10*
X238847893Y-156885393D03*
X237147893Y-156885393D03*
D12*
X237147893Y-157785393D03*
D10*
X237147893Y-158685393D03*
D13*
X237997893Y-157195393D03*
%TD*%
D10*
%TO.C,D47*%
X184767893Y-166410393D03*
D11*
X185617893Y-166480393D03*
D12*
X184767893Y-167310393D03*
D10*
X184767893Y-168210393D03*
X186467893Y-168210393D03*
D12*
X186467893Y-167310393D03*
D13*
X185617893Y-167900393D03*
D10*
X186467893Y-166410393D03*
%TD*%
%TO.C,D24*%
X167307893Y-128310393D03*
D11*
X168157893Y-128380393D03*
D12*
X167307893Y-129210393D03*
D10*
X167307893Y-130110393D03*
X169007893Y-130110393D03*
D12*
X169007893Y-129210393D03*
D10*
X169007893Y-128310393D03*
D13*
X168157893Y-129800393D03*
%TD*%
D11*
%TO.C,D42*%
X255457893Y-158615393D03*
D10*
X256307893Y-158685393D03*
D12*
X256307893Y-157785393D03*
D10*
X256307893Y-156885393D03*
X254607893Y-156885393D03*
D12*
X254607893Y-157785393D03*
D10*
X254607893Y-158685393D03*
D13*
X255457893Y-157195393D03*
%TD*%
D11*
%TO.C,D37*%
X168157893Y-158615393D03*
D10*
X169007893Y-158685393D03*
D12*
X169007893Y-157785393D03*
D10*
X169007893Y-156885393D03*
X167307893Y-156885393D03*
D12*
X167307893Y-157785393D03*
D10*
X167307893Y-158685393D03*
D13*
X168157893Y-157195393D03*
%TD*%
D17*
%TO.C,H4*%
X264132893Y-167247893D03*
%TD*%
D10*
%TO.C,D9*%
X219687893Y-109260393D03*
D11*
X220537893Y-109330393D03*
D12*
X219687893Y-110160393D03*
D10*
X219687893Y-111060393D03*
X221387893Y-111060393D03*
D12*
X221387893Y-110160393D03*
D10*
X221387893Y-109260393D03*
D13*
X220537893Y-110750393D03*
%TD*%
D11*
%TO.C,D22*%
X203077893Y-128380393D03*
D10*
X202227893Y-128310393D03*
D12*
X202227893Y-129210393D03*
D10*
X202227893Y-130110393D03*
X203927893Y-130110393D03*
D12*
X203927893Y-129210393D03*
D10*
X203927893Y-128310393D03*
D13*
X203077893Y-129800393D03*
%TD*%
D11*
%TO.C,D3*%
X203077893Y-101465393D03*
D10*
X203927893Y-101535393D03*
D12*
X203927893Y-100635393D03*
D10*
X203927893Y-99735393D03*
X202227893Y-99735393D03*
D12*
X202227893Y-100635393D03*
D10*
X202227893Y-101535393D03*
D13*
X203077893Y-100045393D03*
%TD*%
D11*
%TO.C,D5*%
X237997893Y-101465393D03*
D10*
X238847893Y-101535393D03*
D12*
X238847893Y-100635393D03*
D10*
X238847893Y-99735393D03*
X237147893Y-99735393D03*
D12*
X237147893Y-100635393D03*
D10*
X237147893Y-101535393D03*
D13*
X237997893Y-100045393D03*
%TD*%
D17*
%TO.C,H1*%
X159482893Y-100697893D03*
%TD*%
D19*
%TO.C,J1*%
X159500000Y-127925000D03*
D20*
X159500000Y-130465000D03*
X159500000Y-133005000D03*
X159500000Y-135545000D03*
X159500000Y-138085000D03*
%TD*%
M02*
