%TF.GenerationSoftware,KiCad,Pcbnew,(6.0.7)*%
%TF.CreationDate,2022-11-11T00:26:03-08:00*%
%TF.ProjectId,LED_Board_s_,4c45445f-426f-4617-9264-5f735f2e6b69,rev?*%
%TF.SameCoordinates,Original*%
%TF.FileFunction,Drillmap*%
%TF.FilePolarity,Positive*%
%FSLAX45Y45*%
G04 Gerber Fmt 4.5, Leading zero omitted, Abs format (unit mm)*
G04 Created by KiCad (PCBNEW (6.0.7)) date 2022-11-11 00:26:03*
%MOMM*%
%LPD*%
G01*
G04 APERTURE LIST*
%ADD10C,0.150000*%
%ADD11C,0.200000*%
%ADD12C,0.040000*%
%ADD13C,0.050000*%
%ADD14C,0.100000*%
%ADD15C,0.350000*%
G04 APERTURE END LIST*
D10*
X26905789Y-9677289D02*
X26905789Y-17117289D01*
X26805789Y-17217289D02*
G75*
G03*
X26905789Y-17117289I1J99999D01*
G01*
X26905791Y-9677289D02*
G75*
G03*
X26805789Y-9577289I-100001J-1D01*
G01*
X15455791Y-17117289D02*
G75*
G03*
X15555789Y-17217289I99999J-1D01*
G01*
X15555789Y-9577289D02*
X26805789Y-9577289D01*
X26805789Y-17217289D02*
X15555789Y-17217289D01*
X15455789Y-9677289D02*
X15455789Y-17117289D01*
X15555789Y-9577289D02*
G75*
G03*
X15455789Y-9677289I1J-100001D01*
G01*
D11*
D12*
X15630000Y-12255000D02*
X15670000Y-12295000D01*
X15670000Y-12255000D02*
X15630000Y-12295000D01*
X15630000Y-14580000D02*
X15670000Y-14620000D01*
X15670000Y-14580000D02*
X15630000Y-14620000D01*
X15700000Y-11910000D02*
X15740000Y-11950000D01*
X15740000Y-11910000D02*
X15700000Y-11950000D01*
X15805000Y-14080000D02*
X15845000Y-14120000D01*
X15845000Y-14080000D02*
X15805000Y-14120000D01*
X15930000Y-12480000D02*
X15970000Y-12520000D01*
X15970000Y-12480000D02*
X15930000Y-12520000D01*
X16114375Y-12014375D02*
X16154375Y-12054375D01*
X16154375Y-12014375D02*
X16114375Y-12054375D01*
X16480000Y-9755000D02*
X16520000Y-9795000D01*
X16520000Y-9755000D02*
X16480000Y-9795000D01*
X16480000Y-17005000D02*
X16520000Y-17045000D01*
X16520000Y-17005000D02*
X16480000Y-17045000D01*
X16506461Y-9953539D02*
X16546461Y-9993539D01*
X16546461Y-9953539D02*
X16506461Y-9993539D01*
X16580000Y-10130000D02*
X16620000Y-10170000D01*
X16620000Y-10130000D02*
X16580000Y-10170000D01*
X16580000Y-12055000D02*
X16620000Y-12095000D01*
X16620000Y-12055000D02*
X16580000Y-12095000D01*
X16580000Y-15830000D02*
X16620000Y-15870000D01*
X16620000Y-15830000D02*
X16580000Y-15870000D01*
X16680000Y-14080000D02*
X16720000Y-14120000D01*
X16720000Y-14080000D02*
X16680000Y-14120000D01*
X16805000Y-9755000D02*
X16845000Y-9795000D01*
X16845000Y-9755000D02*
X16805000Y-9795000D01*
X16830000Y-17005000D02*
X16870000Y-17045000D01*
X16870000Y-17005000D02*
X16830000Y-17045000D01*
X16905000Y-11330000D02*
X16945000Y-11370000D01*
X16945000Y-11330000D02*
X16905000Y-11370000D01*
X16905000Y-11630000D02*
X16945000Y-11670000D01*
X16945000Y-11630000D02*
X16905000Y-11670000D01*
X16930000Y-15155000D02*
X16970000Y-15195000D01*
X16970000Y-15155000D02*
X16930000Y-15195000D01*
X16930000Y-15455000D02*
X16970000Y-15495000D01*
X16970000Y-15455000D02*
X16930000Y-15495000D01*
X16980000Y-13205000D02*
X17020000Y-13245000D01*
X17020000Y-13205000D02*
X16980000Y-13245000D01*
X16980000Y-13505000D02*
X17020000Y-13545000D01*
X17020000Y-13505000D02*
X16980000Y-13545000D01*
X17030000Y-10905000D02*
X17070000Y-10945000D01*
X17070000Y-10905000D02*
X17030000Y-10945000D01*
X17030000Y-16630000D02*
X17070000Y-16670000D01*
X17070000Y-16630000D02*
X17030000Y-16670000D01*
X17055000Y-12780000D02*
X17095000Y-12820000D01*
X17095000Y-12780000D02*
X17055000Y-12820000D01*
X17055000Y-14730000D02*
X17095000Y-14770000D01*
X17095000Y-14730000D02*
X17055000Y-14770000D01*
X17180000Y-9755000D02*
X17220000Y-9795000D01*
X17220000Y-9755000D02*
X17180000Y-9795000D01*
X17180000Y-17005000D02*
X17220000Y-17045000D01*
X17220000Y-17005000D02*
X17180000Y-17045000D01*
X17255000Y-11330000D02*
X17295000Y-11370000D01*
X17295000Y-11330000D02*
X17255000Y-11370000D01*
X17255000Y-11630000D02*
X17295000Y-11670000D01*
X17295000Y-11630000D02*
X17255000Y-11670000D01*
X17280000Y-15155000D02*
X17320000Y-15195000D01*
X17320000Y-15155000D02*
X17280000Y-15195000D01*
X17280000Y-15455000D02*
X17320000Y-15495000D01*
X17320000Y-15455000D02*
X17280000Y-15495000D01*
X17330000Y-13205000D02*
X17370000Y-13245000D01*
X17370000Y-13205000D02*
X17330000Y-13245000D01*
X17330000Y-13505000D02*
X17370000Y-13545000D01*
X17370000Y-13505000D02*
X17330000Y-13545000D01*
X17530000Y-9755000D02*
X17570000Y-9795000D01*
X17570000Y-9755000D02*
X17530000Y-9795000D01*
X17530000Y-17005000D02*
X17570000Y-17045000D01*
X17570000Y-17005000D02*
X17530000Y-17045000D01*
X17605000Y-11330000D02*
X17645000Y-11370000D01*
X17645000Y-11330000D02*
X17605000Y-11370000D01*
X17605000Y-11630000D02*
X17645000Y-11670000D01*
X17645000Y-11630000D02*
X17605000Y-11670000D01*
X17630000Y-15155000D02*
X17670000Y-15195000D01*
X17670000Y-15155000D02*
X17630000Y-15195000D01*
X17630000Y-15455000D02*
X17670000Y-15495000D01*
X17670000Y-15455000D02*
X17630000Y-15495000D01*
X17680000Y-13205000D02*
X17720000Y-13245000D01*
X17720000Y-13205000D02*
X17680000Y-13245000D01*
X17680000Y-13505000D02*
X17720000Y-13545000D01*
X17720000Y-13505000D02*
X17680000Y-13545000D01*
X17880000Y-9755000D02*
X17920000Y-9795000D01*
X17920000Y-9755000D02*
X17880000Y-9795000D01*
X17880000Y-17005000D02*
X17920000Y-17045000D01*
X17920000Y-17005000D02*
X17880000Y-17045000D01*
X17955000Y-11330000D02*
X17995000Y-11370000D01*
X17995000Y-11330000D02*
X17955000Y-11370000D01*
X17955000Y-11630000D02*
X17995000Y-11670000D01*
X17995000Y-11630000D02*
X17955000Y-11670000D01*
X17980000Y-15155000D02*
X18020000Y-15195000D01*
X18020000Y-15155000D02*
X17980000Y-15195000D01*
X17980000Y-15455000D02*
X18020000Y-15495000D01*
X18020000Y-15455000D02*
X17980000Y-15495000D01*
X18030000Y-13205000D02*
X18070000Y-13245000D01*
X18070000Y-13205000D02*
X18030000Y-13245000D01*
X18030000Y-13505000D02*
X18070000Y-13545000D01*
X18070000Y-13505000D02*
X18030000Y-13545000D01*
X18230000Y-9755000D02*
X18270000Y-9795000D01*
X18270000Y-9755000D02*
X18230000Y-9795000D01*
X18230000Y-17005000D02*
X18270000Y-17045000D01*
X18270000Y-17005000D02*
X18230000Y-17045000D01*
X18280000Y-13980000D02*
X18320000Y-14020000D01*
X18320000Y-13980000D02*
X18280000Y-14020000D01*
X18305000Y-11330000D02*
X18345000Y-11370000D01*
X18345000Y-11330000D02*
X18305000Y-11370000D01*
X18305000Y-11630000D02*
X18345000Y-11670000D01*
X18345000Y-11630000D02*
X18305000Y-11670000D01*
X18305000Y-12055000D02*
X18345000Y-12095000D01*
X18345000Y-12055000D02*
X18305000Y-12095000D01*
X18305000Y-15855000D02*
X18345000Y-15895000D01*
X18345000Y-15855000D02*
X18305000Y-15895000D01*
X18330000Y-10130000D02*
X18370000Y-10170000D01*
X18370000Y-10130000D02*
X18330000Y-10170000D01*
X18330000Y-15155000D02*
X18370000Y-15195000D01*
X18370000Y-15155000D02*
X18330000Y-15195000D01*
X18330000Y-15455000D02*
X18370000Y-15495000D01*
X18370000Y-15455000D02*
X18330000Y-15495000D01*
X18380000Y-13205000D02*
X18420000Y-13245000D01*
X18420000Y-13205000D02*
X18380000Y-13245000D01*
X18380000Y-13505000D02*
X18420000Y-13545000D01*
X18420000Y-13505000D02*
X18380000Y-13545000D01*
X18530000Y-9755000D02*
X18570000Y-9795000D01*
X18570000Y-9755000D02*
X18530000Y-9795000D01*
X18580000Y-17005000D02*
X18620000Y-17045000D01*
X18620000Y-17005000D02*
X18580000Y-17045000D01*
X18655000Y-11330000D02*
X18695000Y-11370000D01*
X18695000Y-11330000D02*
X18655000Y-11370000D01*
X18655000Y-11630000D02*
X18695000Y-11670000D01*
X18695000Y-11630000D02*
X18655000Y-11670000D01*
X18680000Y-15155000D02*
X18720000Y-15195000D01*
X18720000Y-15155000D02*
X18680000Y-15195000D01*
X18680000Y-15455000D02*
X18720000Y-15495000D01*
X18720000Y-15455000D02*
X18680000Y-15495000D01*
X18730000Y-13205000D02*
X18770000Y-13245000D01*
X18770000Y-13205000D02*
X18730000Y-13245000D01*
X18730000Y-13505000D02*
X18770000Y-13545000D01*
X18770000Y-13505000D02*
X18730000Y-13545000D01*
X18780000Y-10905000D02*
X18820000Y-10945000D01*
X18820000Y-10905000D02*
X18780000Y-10945000D01*
X18780000Y-12805000D02*
X18820000Y-12845000D01*
X18820000Y-12805000D02*
X18780000Y-12845000D01*
X18780000Y-14705000D02*
X18820000Y-14745000D01*
X18820000Y-14705000D02*
X18780000Y-14745000D01*
X18780000Y-16630000D02*
X18820000Y-16670000D01*
X18820000Y-16630000D02*
X18780000Y-16670000D01*
X18930000Y-9755000D02*
X18970000Y-9795000D01*
X18970000Y-9755000D02*
X18930000Y-9795000D01*
X18930000Y-17005000D02*
X18970000Y-17045000D01*
X18970000Y-17005000D02*
X18930000Y-17045000D01*
X19005000Y-11330000D02*
X19045000Y-11370000D01*
X19045000Y-11330000D02*
X19005000Y-11370000D01*
X19005000Y-11630000D02*
X19045000Y-11670000D01*
X19045000Y-11630000D02*
X19005000Y-11670000D01*
X19030000Y-15155000D02*
X19070000Y-15195000D01*
X19070000Y-15155000D02*
X19030000Y-15195000D01*
X19030000Y-15455000D02*
X19070000Y-15495000D01*
X19070000Y-15455000D02*
X19030000Y-15495000D01*
X19080000Y-13205000D02*
X19120000Y-13245000D01*
X19120000Y-13205000D02*
X19080000Y-13245000D01*
X19080000Y-13505000D02*
X19120000Y-13545000D01*
X19120000Y-13505000D02*
X19080000Y-13545000D01*
X19280000Y-9755000D02*
X19320000Y-9795000D01*
X19320000Y-9755000D02*
X19280000Y-9795000D01*
X19280000Y-17005000D02*
X19320000Y-17045000D01*
X19320000Y-17005000D02*
X19280000Y-17045000D01*
X19355000Y-11330000D02*
X19395000Y-11370000D01*
X19395000Y-11330000D02*
X19355000Y-11370000D01*
X19355000Y-11630000D02*
X19395000Y-11670000D01*
X19395000Y-11630000D02*
X19355000Y-11670000D01*
X19380000Y-15155000D02*
X19420000Y-15195000D01*
X19420000Y-15155000D02*
X19380000Y-15195000D01*
X19380000Y-15455000D02*
X19420000Y-15495000D01*
X19420000Y-15455000D02*
X19380000Y-15495000D01*
X19430000Y-13205000D02*
X19470000Y-13245000D01*
X19470000Y-13205000D02*
X19430000Y-13245000D01*
X19430000Y-13505000D02*
X19470000Y-13545000D01*
X19470000Y-13505000D02*
X19430000Y-13545000D01*
X19630000Y-9755000D02*
X19670000Y-9795000D01*
X19670000Y-9755000D02*
X19630000Y-9795000D01*
X19630000Y-17005000D02*
X19670000Y-17045000D01*
X19670000Y-17005000D02*
X19630000Y-17045000D01*
X19705000Y-11330000D02*
X19745000Y-11370000D01*
X19745000Y-11330000D02*
X19705000Y-11370000D01*
X19705000Y-11630000D02*
X19745000Y-11670000D01*
X19745000Y-11630000D02*
X19705000Y-11670000D01*
X19730000Y-15155000D02*
X19770000Y-15195000D01*
X19770000Y-15155000D02*
X19730000Y-15195000D01*
X19730000Y-15455000D02*
X19770000Y-15495000D01*
X19770000Y-15455000D02*
X19730000Y-15495000D01*
X19780000Y-13205000D02*
X19820000Y-13245000D01*
X19820000Y-13205000D02*
X19780000Y-13245000D01*
X19780000Y-13505000D02*
X19820000Y-13545000D01*
X19820000Y-13505000D02*
X19780000Y-13545000D01*
X19980000Y-9755000D02*
X20020000Y-9795000D01*
X20020000Y-9755000D02*
X19980000Y-9795000D01*
X19980000Y-17005000D02*
X20020000Y-17045000D01*
X20020000Y-17005000D02*
X19980000Y-17045000D01*
X20055000Y-10130000D02*
X20095000Y-10170000D01*
X20095000Y-10130000D02*
X20055000Y-10170000D01*
X20055000Y-11330000D02*
X20095000Y-11370000D01*
X20095000Y-11330000D02*
X20055000Y-11370000D01*
X20055000Y-11630000D02*
X20095000Y-11670000D01*
X20095000Y-11630000D02*
X20055000Y-11670000D01*
X20055000Y-12055000D02*
X20095000Y-12095000D01*
X20095000Y-12055000D02*
X20055000Y-12095000D01*
X20055000Y-13955000D02*
X20095000Y-13995000D01*
X20095000Y-13955000D02*
X20055000Y-13995000D01*
X20055000Y-15855000D02*
X20095000Y-15895000D01*
X20095000Y-15855000D02*
X20055000Y-15895000D01*
X20080000Y-15155000D02*
X20120000Y-15195000D01*
X20120000Y-15155000D02*
X20080000Y-15195000D01*
X20080000Y-15455000D02*
X20120000Y-15495000D01*
X20120000Y-15455000D02*
X20080000Y-15495000D01*
X20130000Y-13205000D02*
X20170000Y-13245000D01*
X20170000Y-13205000D02*
X20130000Y-13245000D01*
X20130000Y-13505000D02*
X20170000Y-13545000D01*
X20170000Y-13505000D02*
X20130000Y-13545000D01*
X20280000Y-9755000D02*
X20320000Y-9795000D01*
X20320000Y-9755000D02*
X20280000Y-9795000D01*
X20305000Y-17005000D02*
X20345000Y-17045000D01*
X20345000Y-17005000D02*
X20305000Y-17045000D01*
X20405000Y-11330000D02*
X20445000Y-11370000D01*
X20445000Y-11330000D02*
X20405000Y-11370000D01*
X20405000Y-11630000D02*
X20445000Y-11670000D01*
X20445000Y-11630000D02*
X20405000Y-11670000D01*
X20430000Y-15155000D02*
X20470000Y-15195000D01*
X20470000Y-15155000D02*
X20430000Y-15195000D01*
X20430000Y-15455000D02*
X20470000Y-15495000D01*
X20470000Y-15455000D02*
X20430000Y-15495000D01*
X20480000Y-13205000D02*
X20520000Y-13245000D01*
X20520000Y-13205000D02*
X20480000Y-13245000D01*
X20480000Y-13505000D02*
X20520000Y-13545000D01*
X20520000Y-13505000D02*
X20480000Y-13545000D01*
X20530000Y-10905000D02*
X20570000Y-10945000D01*
X20570000Y-10905000D02*
X20530000Y-10945000D01*
X20530000Y-12805000D02*
X20570000Y-12845000D01*
X20570000Y-12805000D02*
X20530000Y-12845000D01*
X20530000Y-14705000D02*
X20570000Y-14745000D01*
X20570000Y-14705000D02*
X20530000Y-14745000D01*
X20530000Y-16630000D02*
X20570000Y-16670000D01*
X20570000Y-16630000D02*
X20530000Y-16670000D01*
X20680000Y-9755000D02*
X20720000Y-9795000D01*
X20720000Y-9755000D02*
X20680000Y-9795000D01*
X20680000Y-17005000D02*
X20720000Y-17045000D01*
X20720000Y-17005000D02*
X20680000Y-17045000D01*
X20755000Y-11330000D02*
X20795000Y-11370000D01*
X20795000Y-11330000D02*
X20755000Y-11370000D01*
X20755000Y-11630000D02*
X20795000Y-11670000D01*
X20795000Y-11630000D02*
X20755000Y-11670000D01*
X20780000Y-15155000D02*
X20820000Y-15195000D01*
X20820000Y-15155000D02*
X20780000Y-15195000D01*
X20780000Y-15455000D02*
X20820000Y-15495000D01*
X20820000Y-15455000D02*
X20780000Y-15495000D01*
X20830000Y-13205000D02*
X20870000Y-13245000D01*
X20870000Y-13205000D02*
X20830000Y-13245000D01*
X20830000Y-13505000D02*
X20870000Y-13545000D01*
X20870000Y-13505000D02*
X20830000Y-13545000D01*
X21030000Y-9755000D02*
X21070000Y-9795000D01*
X21070000Y-9755000D02*
X21030000Y-9795000D01*
X21030000Y-17005000D02*
X21070000Y-17045000D01*
X21070000Y-17005000D02*
X21030000Y-17045000D01*
X21105000Y-11330000D02*
X21145000Y-11370000D01*
X21145000Y-11330000D02*
X21105000Y-11370000D01*
X21105000Y-11630000D02*
X21145000Y-11670000D01*
X21145000Y-11630000D02*
X21105000Y-11670000D01*
X21130000Y-15155000D02*
X21170000Y-15195000D01*
X21170000Y-15155000D02*
X21130000Y-15195000D01*
X21130000Y-15455000D02*
X21170000Y-15495000D01*
X21170000Y-15455000D02*
X21130000Y-15495000D01*
X21180000Y-13205000D02*
X21220000Y-13245000D01*
X21220000Y-13205000D02*
X21180000Y-13245000D01*
X21180000Y-13505000D02*
X21220000Y-13545000D01*
X21220000Y-13505000D02*
X21180000Y-13545000D01*
X21380000Y-9755000D02*
X21420000Y-9795000D01*
X21420000Y-9755000D02*
X21380000Y-9795000D01*
X21380000Y-17005000D02*
X21420000Y-17045000D01*
X21420000Y-17005000D02*
X21380000Y-17045000D01*
X21455000Y-11330000D02*
X21495000Y-11370000D01*
X21495000Y-11330000D02*
X21455000Y-11370000D01*
X21455000Y-11630000D02*
X21495000Y-11670000D01*
X21495000Y-11630000D02*
X21455000Y-11670000D01*
X21480000Y-15155000D02*
X21520000Y-15195000D01*
X21520000Y-15155000D02*
X21480000Y-15195000D01*
X21480000Y-15455000D02*
X21520000Y-15495000D01*
X21520000Y-15455000D02*
X21480000Y-15495000D01*
X21530000Y-13205000D02*
X21570000Y-13245000D01*
X21570000Y-13205000D02*
X21530000Y-13245000D01*
X21530000Y-13505000D02*
X21570000Y-13545000D01*
X21570000Y-13505000D02*
X21530000Y-13545000D01*
X21730000Y-9755000D02*
X21770000Y-9795000D01*
X21770000Y-9755000D02*
X21730000Y-9795000D01*
X21730000Y-17005000D02*
X21770000Y-17045000D01*
X21770000Y-17005000D02*
X21730000Y-17045000D01*
X21780000Y-13955000D02*
X21820000Y-13995000D01*
X21820000Y-13955000D02*
X21780000Y-13995000D01*
X21805000Y-10130000D02*
X21845000Y-10170000D01*
X21845000Y-10130000D02*
X21805000Y-10170000D01*
X21805000Y-11330000D02*
X21845000Y-11370000D01*
X21845000Y-11330000D02*
X21805000Y-11370000D01*
X21805000Y-11630000D02*
X21845000Y-11670000D01*
X21845000Y-11630000D02*
X21805000Y-11670000D01*
X21805000Y-12055000D02*
X21845000Y-12095000D01*
X21845000Y-12055000D02*
X21805000Y-12095000D01*
X21805000Y-15855000D02*
X21845000Y-15895000D01*
X21845000Y-15855000D02*
X21805000Y-15895000D01*
X21830000Y-15155000D02*
X21870000Y-15195000D01*
X21870000Y-15155000D02*
X21830000Y-15195000D01*
X21830000Y-15455000D02*
X21870000Y-15495000D01*
X21870000Y-15455000D02*
X21830000Y-15495000D01*
X21880000Y-13205000D02*
X21920000Y-13245000D01*
X21920000Y-13205000D02*
X21880000Y-13245000D01*
X21880000Y-13505000D02*
X21920000Y-13545000D01*
X21920000Y-13505000D02*
X21880000Y-13545000D01*
X22030000Y-17005000D02*
X22070000Y-17045000D01*
X22070000Y-17005000D02*
X22030000Y-17045000D01*
X22080000Y-9755000D02*
X22120000Y-9795000D01*
X22120000Y-9755000D02*
X22080000Y-9795000D01*
X22155000Y-11330000D02*
X22195000Y-11370000D01*
X22195000Y-11330000D02*
X22155000Y-11370000D01*
X22155000Y-11630000D02*
X22195000Y-11670000D01*
X22195000Y-11630000D02*
X22155000Y-11670000D01*
X22180000Y-15155000D02*
X22220000Y-15195000D01*
X22220000Y-15155000D02*
X22180000Y-15195000D01*
X22180000Y-15455000D02*
X22220000Y-15495000D01*
X22220000Y-15455000D02*
X22180000Y-15495000D01*
X22230000Y-13205000D02*
X22270000Y-13245000D01*
X22270000Y-13205000D02*
X22230000Y-13245000D01*
X22230000Y-13505000D02*
X22270000Y-13545000D01*
X22270000Y-13505000D02*
X22230000Y-13545000D01*
X22255000Y-10905000D02*
X22295000Y-10945000D01*
X22295000Y-10905000D02*
X22255000Y-10945000D01*
X22280000Y-12805000D02*
X22320000Y-12845000D01*
X22320000Y-12805000D02*
X22280000Y-12845000D01*
X22280000Y-14705000D02*
X22320000Y-14745000D01*
X22320000Y-14705000D02*
X22280000Y-14745000D01*
X22280000Y-16630000D02*
X22320000Y-16670000D01*
X22320000Y-16630000D02*
X22280000Y-16670000D01*
X22430000Y-9755000D02*
X22470000Y-9795000D01*
X22470000Y-9755000D02*
X22430000Y-9795000D01*
X22430000Y-17005000D02*
X22470000Y-17045000D01*
X22470000Y-17005000D02*
X22430000Y-17045000D01*
X22505000Y-11330000D02*
X22545000Y-11370000D01*
X22545000Y-11330000D02*
X22505000Y-11370000D01*
X22505000Y-11630000D02*
X22545000Y-11670000D01*
X22545000Y-11630000D02*
X22505000Y-11670000D01*
X22530000Y-15155000D02*
X22570000Y-15195000D01*
X22570000Y-15155000D02*
X22530000Y-15195000D01*
X22530000Y-15455000D02*
X22570000Y-15495000D01*
X22570000Y-15455000D02*
X22530000Y-15495000D01*
X22580000Y-13205000D02*
X22620000Y-13245000D01*
X22620000Y-13205000D02*
X22580000Y-13245000D01*
X22580000Y-13505000D02*
X22620000Y-13545000D01*
X22620000Y-13505000D02*
X22580000Y-13545000D01*
X22780000Y-9755000D02*
X22820000Y-9795000D01*
X22820000Y-9755000D02*
X22780000Y-9795000D01*
X22780000Y-17005000D02*
X22820000Y-17045000D01*
X22820000Y-17005000D02*
X22780000Y-17045000D01*
X22855000Y-11330000D02*
X22895000Y-11370000D01*
X22895000Y-11330000D02*
X22855000Y-11370000D01*
X22855000Y-11630000D02*
X22895000Y-11670000D01*
X22895000Y-11630000D02*
X22855000Y-11670000D01*
X22880000Y-15155000D02*
X22920000Y-15195000D01*
X22920000Y-15155000D02*
X22880000Y-15195000D01*
X22880000Y-15455000D02*
X22920000Y-15495000D01*
X22920000Y-15455000D02*
X22880000Y-15495000D01*
X22930000Y-13205000D02*
X22970000Y-13245000D01*
X22970000Y-13205000D02*
X22930000Y-13245000D01*
X22930000Y-13505000D02*
X22970000Y-13545000D01*
X22970000Y-13505000D02*
X22930000Y-13545000D01*
X23130000Y-9755000D02*
X23170000Y-9795000D01*
X23170000Y-9755000D02*
X23130000Y-9795000D01*
X23130000Y-17005000D02*
X23170000Y-17045000D01*
X23170000Y-17005000D02*
X23130000Y-17045000D01*
X23205000Y-11330000D02*
X23245000Y-11370000D01*
X23245000Y-11330000D02*
X23205000Y-11370000D01*
X23205000Y-11630000D02*
X23245000Y-11670000D01*
X23245000Y-11630000D02*
X23205000Y-11670000D01*
X23230000Y-15155000D02*
X23270000Y-15195000D01*
X23270000Y-15155000D02*
X23230000Y-15195000D01*
X23230000Y-15455000D02*
X23270000Y-15495000D01*
X23270000Y-15455000D02*
X23230000Y-15495000D01*
X23280000Y-13205000D02*
X23320000Y-13245000D01*
X23320000Y-13205000D02*
X23280000Y-13245000D01*
X23280000Y-13505000D02*
X23320000Y-13545000D01*
X23320000Y-13505000D02*
X23280000Y-13545000D01*
X23480000Y-9755000D02*
X23520000Y-9795000D01*
X23520000Y-9755000D02*
X23480000Y-9795000D01*
X23480000Y-17005000D02*
X23520000Y-17045000D01*
X23520000Y-17005000D02*
X23480000Y-17045000D01*
X23530000Y-10130000D02*
X23570000Y-10170000D01*
X23570000Y-10130000D02*
X23530000Y-10170000D01*
X23530000Y-12055000D02*
X23570000Y-12095000D01*
X23570000Y-12055000D02*
X23530000Y-12095000D01*
X23530000Y-13955000D02*
X23570000Y-13995000D01*
X23570000Y-13955000D02*
X23530000Y-13995000D01*
X23530000Y-15855000D02*
X23570000Y-15895000D01*
X23570000Y-15855000D02*
X23530000Y-15895000D01*
X23555000Y-11330000D02*
X23595000Y-11370000D01*
X23595000Y-11330000D02*
X23555000Y-11370000D01*
X23555000Y-11630000D02*
X23595000Y-11670000D01*
X23595000Y-11630000D02*
X23555000Y-11670000D01*
X23580000Y-15155000D02*
X23620000Y-15195000D01*
X23620000Y-15155000D02*
X23580000Y-15195000D01*
X23580000Y-15455000D02*
X23620000Y-15495000D01*
X23620000Y-15455000D02*
X23580000Y-15495000D01*
X23630000Y-13205000D02*
X23670000Y-13245000D01*
X23670000Y-13205000D02*
X23630000Y-13245000D01*
X23630000Y-13505000D02*
X23670000Y-13545000D01*
X23670000Y-13505000D02*
X23630000Y-13545000D01*
X23780000Y-9755000D02*
X23820000Y-9795000D01*
X23820000Y-9755000D02*
X23780000Y-9795000D01*
X23780000Y-17005000D02*
X23820000Y-17045000D01*
X23820000Y-17005000D02*
X23780000Y-17045000D01*
X23905000Y-11330000D02*
X23945000Y-11370000D01*
X23945000Y-11330000D02*
X23905000Y-11370000D01*
X23905000Y-11630000D02*
X23945000Y-11670000D01*
X23945000Y-11630000D02*
X23905000Y-11670000D01*
X23930000Y-15155000D02*
X23970000Y-15195000D01*
X23970000Y-15155000D02*
X23930000Y-15195000D01*
X23930000Y-15455000D02*
X23970000Y-15495000D01*
X23970000Y-15455000D02*
X23930000Y-15495000D01*
X23980000Y-13205000D02*
X24020000Y-13245000D01*
X24020000Y-13205000D02*
X23980000Y-13245000D01*
X23980000Y-13505000D02*
X24020000Y-13545000D01*
X24020000Y-13505000D02*
X23980000Y-13545000D01*
X24005000Y-10905000D02*
X24045000Y-10945000D01*
X24045000Y-10905000D02*
X24005000Y-10945000D01*
X24005000Y-12805000D02*
X24045000Y-12845000D01*
X24045000Y-12805000D02*
X24005000Y-12845000D01*
X24005000Y-14705000D02*
X24045000Y-14745000D01*
X24045000Y-14705000D02*
X24005000Y-14745000D01*
X24030000Y-16630000D02*
X24070000Y-16670000D01*
X24070000Y-16630000D02*
X24030000Y-16670000D01*
X24180000Y-9755000D02*
X24220000Y-9795000D01*
X24220000Y-9755000D02*
X24180000Y-9795000D01*
X24180000Y-17005000D02*
X24220000Y-17045000D01*
X24220000Y-17005000D02*
X24180000Y-17045000D01*
X24255000Y-11330000D02*
X24295000Y-11370000D01*
X24295000Y-11330000D02*
X24255000Y-11370000D01*
X24255000Y-11630000D02*
X24295000Y-11670000D01*
X24295000Y-11630000D02*
X24255000Y-11670000D01*
X24280000Y-15155000D02*
X24320000Y-15195000D01*
X24320000Y-15155000D02*
X24280000Y-15195000D01*
X24280000Y-15455000D02*
X24320000Y-15495000D01*
X24320000Y-15455000D02*
X24280000Y-15495000D01*
X24330000Y-13205000D02*
X24370000Y-13245000D01*
X24370000Y-13205000D02*
X24330000Y-13245000D01*
X24330000Y-13505000D02*
X24370000Y-13545000D01*
X24370000Y-13505000D02*
X24330000Y-13545000D01*
X24530000Y-9755000D02*
X24570000Y-9795000D01*
X24570000Y-9755000D02*
X24530000Y-9795000D01*
X24530000Y-17005000D02*
X24570000Y-17045000D01*
X24570000Y-17005000D02*
X24530000Y-17045000D01*
X24605000Y-11330000D02*
X24645000Y-11370000D01*
X24645000Y-11330000D02*
X24605000Y-11370000D01*
X24605000Y-11630000D02*
X24645000Y-11670000D01*
X24645000Y-11630000D02*
X24605000Y-11670000D01*
X24630000Y-15155000D02*
X24670000Y-15195000D01*
X24670000Y-15155000D02*
X24630000Y-15195000D01*
X24630000Y-15455000D02*
X24670000Y-15495000D01*
X24670000Y-15455000D02*
X24630000Y-15495000D01*
X24680000Y-13205000D02*
X24720000Y-13245000D01*
X24720000Y-13205000D02*
X24680000Y-13245000D01*
X24680000Y-13505000D02*
X24720000Y-13545000D01*
X24720000Y-13505000D02*
X24680000Y-13545000D01*
X24880000Y-9755000D02*
X24920000Y-9795000D01*
X24920000Y-9755000D02*
X24880000Y-9795000D01*
X24880000Y-17005000D02*
X24920000Y-17045000D01*
X24920000Y-17005000D02*
X24880000Y-17045000D01*
X24955000Y-11330000D02*
X24995000Y-11370000D01*
X24995000Y-11330000D02*
X24955000Y-11370000D01*
X24955000Y-11630000D02*
X24995000Y-11670000D01*
X24995000Y-11630000D02*
X24955000Y-11670000D01*
X24980000Y-15155000D02*
X25020000Y-15195000D01*
X25020000Y-15155000D02*
X24980000Y-15195000D01*
X24980000Y-15455000D02*
X25020000Y-15495000D01*
X25020000Y-15455000D02*
X24980000Y-15495000D01*
X25030000Y-13205000D02*
X25070000Y-13245000D01*
X25070000Y-13205000D02*
X25030000Y-13245000D01*
X25030000Y-13505000D02*
X25070000Y-13545000D01*
X25070000Y-13505000D02*
X25030000Y-13545000D01*
X25230000Y-9755000D02*
X25270000Y-9795000D01*
X25270000Y-9755000D02*
X25230000Y-9795000D01*
X25230000Y-17005000D02*
X25270000Y-17045000D01*
X25270000Y-17005000D02*
X25230000Y-17045000D01*
X25280000Y-12055000D02*
X25320000Y-12095000D01*
X25320000Y-12055000D02*
X25280000Y-12095000D01*
X25280000Y-15855000D02*
X25320000Y-15895000D01*
X25320000Y-15855000D02*
X25280000Y-15895000D01*
X25305000Y-10130000D02*
X25345000Y-10170000D01*
X25345000Y-10130000D02*
X25305000Y-10170000D01*
X25305000Y-11330000D02*
X25345000Y-11370000D01*
X25345000Y-11330000D02*
X25305000Y-11370000D01*
X25305000Y-11630000D02*
X25345000Y-11670000D01*
X25345000Y-11630000D02*
X25305000Y-11670000D01*
X25305000Y-13955000D02*
X25345000Y-13995000D01*
X25345000Y-13955000D02*
X25305000Y-13995000D01*
X25330000Y-15155000D02*
X25370000Y-15195000D01*
X25370000Y-15155000D02*
X25330000Y-15195000D01*
X25330000Y-15455000D02*
X25370000Y-15495000D01*
X25370000Y-15455000D02*
X25330000Y-15495000D01*
X25380000Y-13205000D02*
X25420000Y-13245000D01*
X25420000Y-13205000D02*
X25380000Y-13245000D01*
X25380000Y-13505000D02*
X25420000Y-13545000D01*
X25420000Y-13505000D02*
X25380000Y-13545000D01*
X25530000Y-9755000D02*
X25570000Y-9795000D01*
X25570000Y-9755000D02*
X25530000Y-9795000D01*
X25530000Y-17005000D02*
X25570000Y-17045000D01*
X25570000Y-17005000D02*
X25530000Y-17045000D01*
X25655000Y-11330000D02*
X25695000Y-11370000D01*
X25695000Y-11330000D02*
X25655000Y-11370000D01*
X25655000Y-11630000D02*
X25695000Y-11670000D01*
X25695000Y-11630000D02*
X25655000Y-11670000D01*
X25680000Y-15155000D02*
X25720000Y-15195000D01*
X25720000Y-15155000D02*
X25680000Y-15195000D01*
X25680000Y-15455000D02*
X25720000Y-15495000D01*
X25720000Y-15455000D02*
X25680000Y-15495000D01*
X25730000Y-13205000D02*
X25770000Y-13245000D01*
X25770000Y-13205000D02*
X25730000Y-13245000D01*
X25730000Y-13505000D02*
X25770000Y-13545000D01*
X25770000Y-13505000D02*
X25730000Y-13545000D01*
X25730000Y-16605000D02*
X25770000Y-16645000D01*
X25770000Y-16605000D02*
X25730000Y-16645000D01*
X25755000Y-10880000D02*
X25795000Y-10920000D01*
X25795000Y-10880000D02*
X25755000Y-10920000D01*
X25755000Y-12805000D02*
X25795000Y-12845000D01*
X25795000Y-12805000D02*
X25755000Y-12845000D01*
X25755000Y-14705000D02*
X25795000Y-14745000D01*
X25795000Y-14705000D02*
X25755000Y-14745000D01*
X25780000Y-17005000D02*
X25820000Y-17045000D01*
X25820000Y-17005000D02*
X25780000Y-17045000D01*
X26005000Y-11330000D02*
X26045000Y-11370000D01*
X26045000Y-11330000D02*
X26005000Y-11370000D01*
X26005000Y-11630000D02*
X26045000Y-11670000D01*
X26045000Y-11630000D02*
X26005000Y-11670000D01*
X26030000Y-15155000D02*
X26070000Y-15195000D01*
X26070000Y-15155000D02*
X26030000Y-15195000D01*
X26030000Y-15455000D02*
X26070000Y-15495000D01*
X26070000Y-15455000D02*
X26030000Y-15495000D01*
X26080000Y-13205000D02*
X26120000Y-13245000D01*
X26120000Y-13205000D02*
X26080000Y-13245000D01*
X26080000Y-13505000D02*
X26120000Y-13545000D01*
X26120000Y-13505000D02*
X26080000Y-13545000D01*
X26355000Y-11330000D02*
X26395000Y-11370000D01*
X26395000Y-11330000D02*
X26355000Y-11370000D01*
X26355000Y-11630000D02*
X26395000Y-11670000D01*
X26395000Y-11630000D02*
X26355000Y-11670000D01*
X26380000Y-15155000D02*
X26420000Y-15195000D01*
X26420000Y-15155000D02*
X26380000Y-15195000D01*
X26380000Y-15455000D02*
X26420000Y-15495000D01*
X26420000Y-15455000D02*
X26380000Y-15495000D01*
X26430000Y-13205000D02*
X26470000Y-13245000D01*
X26470000Y-13205000D02*
X26430000Y-13245000D01*
X26430000Y-13505000D02*
X26470000Y-13545000D01*
X26470000Y-13505000D02*
X26430000Y-13545000D01*
D13*
X15710789Y-16724789D02*
G75*
G03*
X15710789Y-16724789I-25000J0D01*
G01*
X15787674Y-16539174D02*
G75*
G03*
X15787674Y-16539174I-25000J0D01*
G01*
X15787674Y-16910405D02*
G75*
G03*
X15787674Y-16910405I-25000J0D01*
G01*
X15973289Y-16462289D02*
G75*
G03*
X15973289Y-16462289I-25000J0D01*
G01*
X15973289Y-16987289D02*
G75*
G03*
X15973289Y-16987289I-25000J0D01*
G01*
X16158905Y-16539174D02*
G75*
G03*
X16158905Y-16539174I-25000J0D01*
G01*
X16158905Y-16910405D02*
G75*
G03*
X16158905Y-16910405I-25000J0D01*
G01*
X16235789Y-16724789D02*
G75*
G03*
X16235789Y-16724789I-25000J0D01*
G01*
D14*
X15950000Y-12742500D02*
X15950000Y-12842500D01*
X15900000Y-12792500D02*
X16000000Y-12792500D01*
X15950000Y-12996500D02*
X15950000Y-13096500D01*
X15900000Y-13046500D02*
X16000000Y-13046500D01*
X15950000Y-13250500D02*
X15950000Y-13350500D01*
X15900000Y-13300500D02*
X16000000Y-13300500D01*
X15950000Y-13504500D02*
X15950000Y-13604500D01*
X15900000Y-13554500D02*
X16000000Y-13554500D01*
X15950000Y-13758500D02*
X15950000Y-13858500D01*
X15900000Y-13808500D02*
X16000000Y-13808500D01*
D15*
X16072034Y-10193534D02*
X16072034Y-9946044D01*
X15824544Y-9946044D01*
X15824544Y-10193534D01*
X16072034Y-10193534D01*
X16072034Y-16848534D02*
X16072034Y-16601044D01*
X15824544Y-16601044D01*
X15824544Y-16848534D01*
X16072034Y-16848534D01*
X26537034Y-10193534D02*
X26537034Y-9946044D01*
X26289544Y-9946044D01*
X26289544Y-10193534D01*
X26537034Y-10193534D01*
X26537034Y-16848534D02*
X26537034Y-16601044D01*
X26289544Y-16601044D01*
X26289544Y-16848534D01*
X26537034Y-16848534D01*
D11*
X15705908Y-17535265D02*
X15705908Y-17335265D01*
X15753527Y-17335265D01*
X15782099Y-17344789D01*
X15801146Y-17363837D01*
X15810670Y-17382885D01*
X15820194Y-17420980D01*
X15820194Y-17449551D01*
X15810670Y-17487646D01*
X15801146Y-17506694D01*
X15782099Y-17525742D01*
X15753527Y-17535265D01*
X15705908Y-17535265D01*
X15905908Y-17535265D02*
X15905908Y-17401932D01*
X15905908Y-17440027D02*
X15915432Y-17420980D01*
X15924956Y-17411456D01*
X15944003Y-17401932D01*
X15963051Y-17401932D01*
X16029718Y-17535265D02*
X16029718Y-17401932D01*
X16029718Y-17335265D02*
X16020194Y-17344789D01*
X16029718Y-17354313D01*
X16039242Y-17344789D01*
X16029718Y-17335265D01*
X16029718Y-17354313D01*
X16153527Y-17535265D02*
X16134480Y-17525742D01*
X16124956Y-17506694D01*
X16124956Y-17335265D01*
X16258289Y-17535265D02*
X16239242Y-17525742D01*
X16229718Y-17506694D01*
X16229718Y-17335265D01*
X16486861Y-17535265D02*
X16486861Y-17335265D01*
X16553527Y-17478123D01*
X16620194Y-17335265D01*
X16620194Y-17535265D01*
X16801146Y-17535265D02*
X16801146Y-17430504D01*
X16791623Y-17411456D01*
X16772575Y-17401932D01*
X16734480Y-17401932D01*
X16715432Y-17411456D01*
X16801146Y-17525742D02*
X16782099Y-17535265D01*
X16734480Y-17535265D01*
X16715432Y-17525742D01*
X16705908Y-17506694D01*
X16705908Y-17487646D01*
X16715432Y-17468599D01*
X16734480Y-17459075D01*
X16782099Y-17459075D01*
X16801146Y-17449551D01*
X16896385Y-17401932D02*
X16896385Y-17601932D01*
X16896385Y-17411456D02*
X16915432Y-17401932D01*
X16953527Y-17401932D01*
X16972575Y-17411456D01*
X16982099Y-17420980D01*
X16991623Y-17440027D01*
X16991623Y-17497170D01*
X16982099Y-17516218D01*
X16972575Y-17525742D01*
X16953527Y-17535265D01*
X16915432Y-17535265D01*
X16896385Y-17525742D01*
X17077337Y-17516218D02*
X17086861Y-17525742D01*
X17077337Y-17535265D01*
X17067813Y-17525742D01*
X17077337Y-17516218D01*
X17077337Y-17535265D01*
X17077337Y-17411456D02*
X17086861Y-17420980D01*
X17077337Y-17430504D01*
X17067813Y-17420980D01*
X17077337Y-17411456D01*
X17077337Y-17430504D01*
D12*
X15408289Y-17844789D02*
X15448289Y-17884789D01*
X15448289Y-17844789D02*
X15408289Y-17884789D01*
D11*
X15744003Y-17755265D02*
X15763051Y-17755265D01*
X15782099Y-17764789D01*
X15791623Y-17774313D01*
X15801146Y-17793361D01*
X15810670Y-17831456D01*
X15810670Y-17879075D01*
X15801146Y-17917170D01*
X15791623Y-17936218D01*
X15782099Y-17945742D01*
X15763051Y-17955265D01*
X15744003Y-17955265D01*
X15724956Y-17945742D01*
X15715432Y-17936218D01*
X15705908Y-17917170D01*
X15696384Y-17879075D01*
X15696384Y-17831456D01*
X15705908Y-17793361D01*
X15715432Y-17774313D01*
X15724956Y-17764789D01*
X15744003Y-17755265D01*
X15896384Y-17936218D02*
X15905908Y-17945742D01*
X15896384Y-17955265D01*
X15886861Y-17945742D01*
X15896384Y-17936218D01*
X15896384Y-17955265D01*
X16077337Y-17821932D02*
X16077337Y-17955265D01*
X16029718Y-17745742D02*
X15982099Y-17888599D01*
X16105908Y-17888599D01*
X16220194Y-17755265D02*
X16239242Y-17755265D01*
X16258289Y-17764789D01*
X16267813Y-17774313D01*
X16277337Y-17793361D01*
X16286861Y-17831456D01*
X16286861Y-17879075D01*
X16277337Y-17917170D01*
X16267813Y-17936218D01*
X16258289Y-17945742D01*
X16239242Y-17955265D01*
X16220194Y-17955265D01*
X16201146Y-17945742D01*
X16191623Y-17936218D01*
X16182099Y-17917170D01*
X16172575Y-17879075D01*
X16172575Y-17831456D01*
X16182099Y-17793361D01*
X16191623Y-17774313D01*
X16201146Y-17764789D01*
X16220194Y-17755265D01*
X16410670Y-17755265D02*
X16429718Y-17755265D01*
X16448765Y-17764789D01*
X16458289Y-17774313D01*
X16467813Y-17793361D01*
X16477337Y-17831456D01*
X16477337Y-17879075D01*
X16467813Y-17917170D01*
X16458289Y-17936218D01*
X16448765Y-17945742D01*
X16429718Y-17955265D01*
X16410670Y-17955265D01*
X16391623Y-17945742D01*
X16382099Y-17936218D01*
X16372575Y-17917170D01*
X16363051Y-17879075D01*
X16363051Y-17831456D01*
X16372575Y-17793361D01*
X16382099Y-17774313D01*
X16391623Y-17764789D01*
X16410670Y-17755265D01*
X16563051Y-17955265D02*
X16563051Y-17821932D01*
X16563051Y-17840980D02*
X16572575Y-17831456D01*
X16591623Y-17821932D01*
X16620194Y-17821932D01*
X16639242Y-17831456D01*
X16648765Y-17850504D01*
X16648765Y-17955265D01*
X16648765Y-17850504D02*
X16658289Y-17831456D01*
X16677337Y-17821932D01*
X16705908Y-17821932D01*
X16724956Y-17831456D01*
X16734480Y-17850504D01*
X16734480Y-17955265D01*
X16829718Y-17955265D02*
X16829718Y-17821932D01*
X16829718Y-17840980D02*
X16839242Y-17831456D01*
X16858289Y-17821932D01*
X16886861Y-17821932D01*
X16905908Y-17831456D01*
X16915432Y-17850504D01*
X16915432Y-17955265D01*
X16915432Y-17850504D02*
X16924956Y-17831456D01*
X16944004Y-17821932D01*
X16972575Y-17821932D01*
X16991623Y-17831456D01*
X17001146Y-17850504D01*
X17001146Y-17955265D01*
X17391623Y-17745742D02*
X17220194Y-18002885D01*
X17648765Y-17755265D02*
X17667813Y-17755265D01*
X17686861Y-17764789D01*
X17696385Y-17774313D01*
X17705908Y-17793361D01*
X17715432Y-17831456D01*
X17715432Y-17879075D01*
X17705908Y-17917170D01*
X17696385Y-17936218D01*
X17686861Y-17945742D01*
X17667813Y-17955265D01*
X17648765Y-17955265D01*
X17629718Y-17945742D01*
X17620194Y-17936218D01*
X17610670Y-17917170D01*
X17601146Y-17879075D01*
X17601146Y-17831456D01*
X17610670Y-17793361D01*
X17620194Y-17774313D01*
X17629718Y-17764789D01*
X17648765Y-17755265D01*
X17801146Y-17936218D02*
X17810670Y-17945742D01*
X17801146Y-17955265D01*
X17791623Y-17945742D01*
X17801146Y-17936218D01*
X17801146Y-17955265D01*
X17934480Y-17755265D02*
X17953527Y-17755265D01*
X17972575Y-17764789D01*
X17982099Y-17774313D01*
X17991623Y-17793361D01*
X18001146Y-17831456D01*
X18001146Y-17879075D01*
X17991623Y-17917170D01*
X17982099Y-17936218D01*
X17972575Y-17945742D01*
X17953527Y-17955265D01*
X17934480Y-17955265D01*
X17915432Y-17945742D01*
X17905908Y-17936218D01*
X17896385Y-17917170D01*
X17886861Y-17879075D01*
X17886861Y-17831456D01*
X17896385Y-17793361D01*
X17905908Y-17774313D01*
X17915432Y-17764789D01*
X17934480Y-17755265D01*
X18191623Y-17955265D02*
X18077337Y-17955265D01*
X18134480Y-17955265D02*
X18134480Y-17755265D01*
X18115432Y-17783837D01*
X18096385Y-17802885D01*
X18077337Y-17812408D01*
X18372575Y-17755265D02*
X18277337Y-17755265D01*
X18267813Y-17850504D01*
X18277337Y-17840980D01*
X18296385Y-17831456D01*
X18344004Y-17831456D01*
X18363051Y-17840980D01*
X18372575Y-17850504D01*
X18382099Y-17869551D01*
X18382099Y-17917170D01*
X18372575Y-17936218D01*
X18363051Y-17945742D01*
X18344004Y-17955265D01*
X18296385Y-17955265D01*
X18277337Y-17945742D01*
X18267813Y-17936218D01*
X18448765Y-17755265D02*
X18582099Y-17755265D01*
X18496385Y-17955265D01*
X18648765Y-17755265D02*
X18648765Y-17793361D01*
X18724956Y-17755265D02*
X18724956Y-17793361D01*
X19020194Y-18031456D02*
X19010670Y-18021932D01*
X18991623Y-17993361D01*
X18982099Y-17974313D01*
X18972575Y-17945742D01*
X18963051Y-17898123D01*
X18963051Y-17860027D01*
X18972575Y-17812408D01*
X18982099Y-17783837D01*
X18991623Y-17764789D01*
X19010670Y-17736218D01*
X19020194Y-17726694D01*
X19086861Y-17774313D02*
X19096385Y-17764789D01*
X19115432Y-17755265D01*
X19163051Y-17755265D01*
X19182099Y-17764789D01*
X19191623Y-17774313D01*
X19201146Y-17793361D01*
X19201146Y-17812408D01*
X19191623Y-17840980D01*
X19077337Y-17955265D01*
X19201146Y-17955265D01*
X19267813Y-17755265D02*
X19401146Y-17755265D01*
X19315432Y-17955265D01*
X19505908Y-17840980D02*
X19486861Y-17831456D01*
X19477337Y-17821932D01*
X19467813Y-17802885D01*
X19467813Y-17793361D01*
X19477337Y-17774313D01*
X19486861Y-17764789D01*
X19505908Y-17755265D01*
X19544004Y-17755265D01*
X19563051Y-17764789D01*
X19572575Y-17774313D01*
X19582099Y-17793361D01*
X19582099Y-17802885D01*
X19572575Y-17821932D01*
X19563051Y-17831456D01*
X19544004Y-17840980D01*
X19505908Y-17840980D01*
X19486861Y-17850504D01*
X19477337Y-17860027D01*
X19467813Y-17879075D01*
X19467813Y-17917170D01*
X19477337Y-17936218D01*
X19486861Y-17945742D01*
X19505908Y-17955265D01*
X19544004Y-17955265D01*
X19563051Y-17945742D01*
X19572575Y-17936218D01*
X19582099Y-17917170D01*
X19582099Y-17879075D01*
X19572575Y-17860027D01*
X19563051Y-17850504D01*
X19544004Y-17840980D01*
X19820194Y-17955265D02*
X19820194Y-17755265D01*
X19905908Y-17955265D02*
X19905908Y-17850504D01*
X19896385Y-17831456D01*
X19877337Y-17821932D01*
X19848765Y-17821932D01*
X19829718Y-17831456D01*
X19820194Y-17840980D01*
X20029718Y-17955265D02*
X20010670Y-17945742D01*
X20001146Y-17936218D01*
X19991623Y-17917170D01*
X19991623Y-17860027D01*
X20001146Y-17840980D01*
X20010670Y-17831456D01*
X20029718Y-17821932D01*
X20058289Y-17821932D01*
X20077337Y-17831456D01*
X20086861Y-17840980D01*
X20096385Y-17860027D01*
X20096385Y-17917170D01*
X20086861Y-17936218D01*
X20077337Y-17945742D01*
X20058289Y-17955265D01*
X20029718Y-17955265D01*
X20210670Y-17955265D02*
X20191623Y-17945742D01*
X20182099Y-17926694D01*
X20182099Y-17755265D01*
X20363051Y-17945742D02*
X20344004Y-17955265D01*
X20305908Y-17955265D01*
X20286861Y-17945742D01*
X20277337Y-17926694D01*
X20277337Y-17850504D01*
X20286861Y-17831456D01*
X20305908Y-17821932D01*
X20344004Y-17821932D01*
X20363051Y-17831456D01*
X20372575Y-17850504D01*
X20372575Y-17869551D01*
X20277337Y-17888599D01*
X20448765Y-17945742D02*
X20467813Y-17955265D01*
X20505908Y-17955265D01*
X20524956Y-17945742D01*
X20534480Y-17926694D01*
X20534480Y-17917170D01*
X20524956Y-17898123D01*
X20505908Y-17888599D01*
X20477337Y-17888599D01*
X20458289Y-17879075D01*
X20448765Y-17860027D01*
X20448765Y-17850504D01*
X20458289Y-17831456D01*
X20477337Y-17821932D01*
X20505908Y-17821932D01*
X20524956Y-17831456D01*
X20601146Y-18031456D02*
X20610670Y-18021932D01*
X20629718Y-17993361D01*
X20639242Y-17974313D01*
X20648765Y-17945742D01*
X20658289Y-17898123D01*
X20658289Y-17860027D01*
X20648765Y-17812408D01*
X20639242Y-17783837D01*
X20629718Y-17764789D01*
X20610670Y-17736218D01*
X20601146Y-17726694D01*
D13*
X15448289Y-18128789D02*
G75*
G03*
X15448289Y-18128789I-25000J0D01*
G01*
D11*
X15744003Y-18019265D02*
X15763051Y-18019265D01*
X15782099Y-18028789D01*
X15791623Y-18038313D01*
X15801146Y-18057361D01*
X15810670Y-18095456D01*
X15810670Y-18143075D01*
X15801146Y-18181170D01*
X15791623Y-18200218D01*
X15782099Y-18209742D01*
X15763051Y-18219265D01*
X15744003Y-18219265D01*
X15724956Y-18209742D01*
X15715432Y-18200218D01*
X15705908Y-18181170D01*
X15696384Y-18143075D01*
X15696384Y-18095456D01*
X15705908Y-18057361D01*
X15715432Y-18038313D01*
X15724956Y-18028789D01*
X15744003Y-18019265D01*
X15896384Y-18200218D02*
X15905908Y-18209742D01*
X15896384Y-18219265D01*
X15886861Y-18209742D01*
X15896384Y-18200218D01*
X15896384Y-18219265D01*
X16086861Y-18019265D02*
X15991623Y-18019265D01*
X15982099Y-18114504D01*
X15991623Y-18104980D01*
X16010670Y-18095456D01*
X16058289Y-18095456D01*
X16077337Y-18104980D01*
X16086861Y-18114504D01*
X16096384Y-18133551D01*
X16096384Y-18181170D01*
X16086861Y-18200218D01*
X16077337Y-18209742D01*
X16058289Y-18219265D01*
X16010670Y-18219265D01*
X15991623Y-18209742D01*
X15982099Y-18200218D01*
X16220194Y-18019265D02*
X16239242Y-18019265D01*
X16258289Y-18028789D01*
X16267813Y-18038313D01*
X16277337Y-18057361D01*
X16286861Y-18095456D01*
X16286861Y-18143075D01*
X16277337Y-18181170D01*
X16267813Y-18200218D01*
X16258289Y-18209742D01*
X16239242Y-18219265D01*
X16220194Y-18219265D01*
X16201146Y-18209742D01*
X16191623Y-18200218D01*
X16182099Y-18181170D01*
X16172575Y-18143075D01*
X16172575Y-18095456D01*
X16182099Y-18057361D01*
X16191623Y-18038313D01*
X16201146Y-18028789D01*
X16220194Y-18019265D01*
X16410670Y-18019265D02*
X16429718Y-18019265D01*
X16448765Y-18028789D01*
X16458289Y-18038313D01*
X16467813Y-18057361D01*
X16477337Y-18095456D01*
X16477337Y-18143075D01*
X16467813Y-18181170D01*
X16458289Y-18200218D01*
X16448765Y-18209742D01*
X16429718Y-18219265D01*
X16410670Y-18219265D01*
X16391623Y-18209742D01*
X16382099Y-18200218D01*
X16372575Y-18181170D01*
X16363051Y-18143075D01*
X16363051Y-18095456D01*
X16372575Y-18057361D01*
X16382099Y-18038313D01*
X16391623Y-18028789D01*
X16410670Y-18019265D01*
X16563051Y-18219265D02*
X16563051Y-18085932D01*
X16563051Y-18104980D02*
X16572575Y-18095456D01*
X16591623Y-18085932D01*
X16620194Y-18085932D01*
X16639242Y-18095456D01*
X16648765Y-18114504D01*
X16648765Y-18219265D01*
X16648765Y-18114504D02*
X16658289Y-18095456D01*
X16677337Y-18085932D01*
X16705908Y-18085932D01*
X16724956Y-18095456D01*
X16734480Y-18114504D01*
X16734480Y-18219265D01*
X16829718Y-18219265D02*
X16829718Y-18085932D01*
X16829718Y-18104980D02*
X16839242Y-18095456D01*
X16858289Y-18085932D01*
X16886861Y-18085932D01*
X16905908Y-18095456D01*
X16915432Y-18114504D01*
X16915432Y-18219265D01*
X16915432Y-18114504D02*
X16924956Y-18095456D01*
X16944004Y-18085932D01*
X16972575Y-18085932D01*
X16991623Y-18095456D01*
X17001146Y-18114504D01*
X17001146Y-18219265D01*
X17391623Y-18009742D02*
X17220194Y-18266885D01*
X17648765Y-18019265D02*
X17667813Y-18019265D01*
X17686861Y-18028789D01*
X17696385Y-18038313D01*
X17705908Y-18057361D01*
X17715432Y-18095456D01*
X17715432Y-18143075D01*
X17705908Y-18181170D01*
X17696385Y-18200218D01*
X17686861Y-18209742D01*
X17667813Y-18219265D01*
X17648765Y-18219265D01*
X17629718Y-18209742D01*
X17620194Y-18200218D01*
X17610670Y-18181170D01*
X17601146Y-18143075D01*
X17601146Y-18095456D01*
X17610670Y-18057361D01*
X17620194Y-18038313D01*
X17629718Y-18028789D01*
X17648765Y-18019265D01*
X17801146Y-18200218D02*
X17810670Y-18209742D01*
X17801146Y-18219265D01*
X17791623Y-18209742D01*
X17801146Y-18200218D01*
X17801146Y-18219265D01*
X17934480Y-18019265D02*
X17953527Y-18019265D01*
X17972575Y-18028789D01*
X17982099Y-18038313D01*
X17991623Y-18057361D01*
X18001146Y-18095456D01*
X18001146Y-18143075D01*
X17991623Y-18181170D01*
X17982099Y-18200218D01*
X17972575Y-18209742D01*
X17953527Y-18219265D01*
X17934480Y-18219265D01*
X17915432Y-18209742D01*
X17905908Y-18200218D01*
X17896385Y-18181170D01*
X17886861Y-18143075D01*
X17886861Y-18095456D01*
X17896385Y-18057361D01*
X17905908Y-18038313D01*
X17915432Y-18028789D01*
X17934480Y-18019265D01*
X18191623Y-18219265D02*
X18077337Y-18219265D01*
X18134480Y-18219265D02*
X18134480Y-18019265D01*
X18115432Y-18047837D01*
X18096385Y-18066885D01*
X18077337Y-18076408D01*
X18286861Y-18219265D02*
X18324956Y-18219265D01*
X18344004Y-18209742D01*
X18353527Y-18200218D01*
X18372575Y-18171646D01*
X18382099Y-18133551D01*
X18382099Y-18057361D01*
X18372575Y-18038313D01*
X18363051Y-18028789D01*
X18344004Y-18019265D01*
X18305908Y-18019265D01*
X18286861Y-18028789D01*
X18277337Y-18038313D01*
X18267813Y-18057361D01*
X18267813Y-18104980D01*
X18277337Y-18124027D01*
X18286861Y-18133551D01*
X18305908Y-18143075D01*
X18344004Y-18143075D01*
X18363051Y-18133551D01*
X18372575Y-18124027D01*
X18382099Y-18104980D01*
X18448765Y-18019265D02*
X18582099Y-18019265D01*
X18496385Y-18219265D01*
X18648765Y-18019265D02*
X18648765Y-18057361D01*
X18724956Y-18019265D02*
X18724956Y-18057361D01*
X19020194Y-18295456D02*
X19010670Y-18285932D01*
X18991623Y-18257361D01*
X18982099Y-18238313D01*
X18972575Y-18209742D01*
X18963051Y-18162123D01*
X18963051Y-18124027D01*
X18972575Y-18076408D01*
X18982099Y-18047837D01*
X18991623Y-18028789D01*
X19010670Y-18000218D01*
X19020194Y-17990694D01*
X19124956Y-18104980D02*
X19105908Y-18095456D01*
X19096385Y-18085932D01*
X19086861Y-18066885D01*
X19086861Y-18057361D01*
X19096385Y-18038313D01*
X19105908Y-18028789D01*
X19124956Y-18019265D01*
X19163051Y-18019265D01*
X19182099Y-18028789D01*
X19191623Y-18038313D01*
X19201146Y-18057361D01*
X19201146Y-18066885D01*
X19191623Y-18085932D01*
X19182099Y-18095456D01*
X19163051Y-18104980D01*
X19124956Y-18104980D01*
X19105908Y-18114504D01*
X19096385Y-18124027D01*
X19086861Y-18143075D01*
X19086861Y-18181170D01*
X19096385Y-18200218D01*
X19105908Y-18209742D01*
X19124956Y-18219265D01*
X19163051Y-18219265D01*
X19182099Y-18209742D01*
X19191623Y-18200218D01*
X19201146Y-18181170D01*
X19201146Y-18143075D01*
X19191623Y-18124027D01*
X19182099Y-18114504D01*
X19163051Y-18104980D01*
X19439242Y-18219265D02*
X19439242Y-18019265D01*
X19524956Y-18219265D02*
X19524956Y-18114504D01*
X19515432Y-18095456D01*
X19496385Y-18085932D01*
X19467813Y-18085932D01*
X19448765Y-18095456D01*
X19439242Y-18104980D01*
X19648765Y-18219265D02*
X19629718Y-18209742D01*
X19620194Y-18200218D01*
X19610670Y-18181170D01*
X19610670Y-18124027D01*
X19620194Y-18104980D01*
X19629718Y-18095456D01*
X19648765Y-18085932D01*
X19677337Y-18085932D01*
X19696385Y-18095456D01*
X19705908Y-18104980D01*
X19715432Y-18124027D01*
X19715432Y-18181170D01*
X19705908Y-18200218D01*
X19696385Y-18209742D01*
X19677337Y-18219265D01*
X19648765Y-18219265D01*
X19829718Y-18219265D02*
X19810670Y-18209742D01*
X19801146Y-18190694D01*
X19801146Y-18019265D01*
X19982099Y-18209742D02*
X19963051Y-18219265D01*
X19924956Y-18219265D01*
X19905908Y-18209742D01*
X19896385Y-18190694D01*
X19896385Y-18114504D01*
X19905908Y-18095456D01*
X19924956Y-18085932D01*
X19963051Y-18085932D01*
X19982099Y-18095456D01*
X19991623Y-18114504D01*
X19991623Y-18133551D01*
X19896385Y-18152599D01*
X20067813Y-18209742D02*
X20086861Y-18219265D01*
X20124956Y-18219265D01*
X20144004Y-18209742D01*
X20153527Y-18190694D01*
X20153527Y-18181170D01*
X20144004Y-18162123D01*
X20124956Y-18152599D01*
X20096385Y-18152599D01*
X20077337Y-18143075D01*
X20067813Y-18124027D01*
X20067813Y-18114504D01*
X20077337Y-18095456D01*
X20096385Y-18085932D01*
X20124956Y-18085932D01*
X20144004Y-18095456D01*
X20220194Y-18295456D02*
X20229718Y-18285932D01*
X20248765Y-18257361D01*
X20258289Y-18238313D01*
X20267813Y-18209742D01*
X20277337Y-18162123D01*
X20277337Y-18124027D01*
X20267813Y-18076408D01*
X20258289Y-18047837D01*
X20248765Y-18028789D01*
X20229718Y-18000218D01*
X20220194Y-17990694D01*
D14*
X15398289Y-18342789D02*
X15398289Y-18442789D01*
X15348289Y-18392789D02*
X15448289Y-18392789D01*
D11*
X15810670Y-18483265D02*
X15696384Y-18483265D01*
X15753527Y-18483265D02*
X15753527Y-18283265D01*
X15734480Y-18311837D01*
X15715432Y-18330885D01*
X15696384Y-18340408D01*
X15896384Y-18464218D02*
X15905908Y-18473742D01*
X15896384Y-18483265D01*
X15886861Y-18473742D01*
X15896384Y-18464218D01*
X15896384Y-18483265D01*
X16029718Y-18283265D02*
X16048765Y-18283265D01*
X16067813Y-18292789D01*
X16077337Y-18302313D01*
X16086861Y-18321361D01*
X16096384Y-18359456D01*
X16096384Y-18407075D01*
X16086861Y-18445170D01*
X16077337Y-18464218D01*
X16067813Y-18473742D01*
X16048765Y-18483265D01*
X16029718Y-18483265D01*
X16010670Y-18473742D01*
X16001146Y-18464218D01*
X15991623Y-18445170D01*
X15982099Y-18407075D01*
X15982099Y-18359456D01*
X15991623Y-18321361D01*
X16001146Y-18302313D01*
X16010670Y-18292789D01*
X16029718Y-18283265D01*
X16220194Y-18283265D02*
X16239242Y-18283265D01*
X16258289Y-18292789D01*
X16267813Y-18302313D01*
X16277337Y-18321361D01*
X16286861Y-18359456D01*
X16286861Y-18407075D01*
X16277337Y-18445170D01*
X16267813Y-18464218D01*
X16258289Y-18473742D01*
X16239242Y-18483265D01*
X16220194Y-18483265D01*
X16201146Y-18473742D01*
X16191623Y-18464218D01*
X16182099Y-18445170D01*
X16172575Y-18407075D01*
X16172575Y-18359456D01*
X16182099Y-18321361D01*
X16191623Y-18302313D01*
X16201146Y-18292789D01*
X16220194Y-18283265D01*
X16410670Y-18283265D02*
X16429718Y-18283265D01*
X16448765Y-18292789D01*
X16458289Y-18302313D01*
X16467813Y-18321361D01*
X16477337Y-18359456D01*
X16477337Y-18407075D01*
X16467813Y-18445170D01*
X16458289Y-18464218D01*
X16448765Y-18473742D01*
X16429718Y-18483265D01*
X16410670Y-18483265D01*
X16391623Y-18473742D01*
X16382099Y-18464218D01*
X16372575Y-18445170D01*
X16363051Y-18407075D01*
X16363051Y-18359456D01*
X16372575Y-18321361D01*
X16382099Y-18302313D01*
X16391623Y-18292789D01*
X16410670Y-18283265D01*
X16563051Y-18483265D02*
X16563051Y-18349932D01*
X16563051Y-18368980D02*
X16572575Y-18359456D01*
X16591623Y-18349932D01*
X16620194Y-18349932D01*
X16639242Y-18359456D01*
X16648765Y-18378504D01*
X16648765Y-18483265D01*
X16648765Y-18378504D02*
X16658289Y-18359456D01*
X16677337Y-18349932D01*
X16705908Y-18349932D01*
X16724956Y-18359456D01*
X16734480Y-18378504D01*
X16734480Y-18483265D01*
X16829718Y-18483265D02*
X16829718Y-18349932D01*
X16829718Y-18368980D02*
X16839242Y-18359456D01*
X16858289Y-18349932D01*
X16886861Y-18349932D01*
X16905908Y-18359456D01*
X16915432Y-18378504D01*
X16915432Y-18483265D01*
X16915432Y-18378504D02*
X16924956Y-18359456D01*
X16944004Y-18349932D01*
X16972575Y-18349932D01*
X16991623Y-18359456D01*
X17001146Y-18378504D01*
X17001146Y-18483265D01*
X17391623Y-18273742D02*
X17220194Y-18530885D01*
X17648765Y-18283265D02*
X17667813Y-18283265D01*
X17686861Y-18292789D01*
X17696385Y-18302313D01*
X17705908Y-18321361D01*
X17715432Y-18359456D01*
X17715432Y-18407075D01*
X17705908Y-18445170D01*
X17696385Y-18464218D01*
X17686861Y-18473742D01*
X17667813Y-18483265D01*
X17648765Y-18483265D01*
X17629718Y-18473742D01*
X17620194Y-18464218D01*
X17610670Y-18445170D01*
X17601146Y-18407075D01*
X17601146Y-18359456D01*
X17610670Y-18321361D01*
X17620194Y-18302313D01*
X17629718Y-18292789D01*
X17648765Y-18283265D01*
X17801146Y-18464218D02*
X17810670Y-18473742D01*
X17801146Y-18483265D01*
X17791623Y-18473742D01*
X17801146Y-18464218D01*
X17801146Y-18483265D01*
X17934480Y-18283265D02*
X17953527Y-18283265D01*
X17972575Y-18292789D01*
X17982099Y-18302313D01*
X17991623Y-18321361D01*
X18001146Y-18359456D01*
X18001146Y-18407075D01*
X17991623Y-18445170D01*
X17982099Y-18464218D01*
X17972575Y-18473742D01*
X17953527Y-18483265D01*
X17934480Y-18483265D01*
X17915432Y-18473742D01*
X17905908Y-18464218D01*
X17896385Y-18445170D01*
X17886861Y-18407075D01*
X17886861Y-18359456D01*
X17896385Y-18321361D01*
X17905908Y-18302313D01*
X17915432Y-18292789D01*
X17934480Y-18283265D01*
X18067813Y-18283265D02*
X18191623Y-18283265D01*
X18124956Y-18359456D01*
X18153527Y-18359456D01*
X18172575Y-18368980D01*
X18182099Y-18378504D01*
X18191623Y-18397551D01*
X18191623Y-18445170D01*
X18182099Y-18464218D01*
X18172575Y-18473742D01*
X18153527Y-18483265D01*
X18096385Y-18483265D01*
X18077337Y-18473742D01*
X18067813Y-18464218D01*
X18286861Y-18483265D02*
X18324956Y-18483265D01*
X18344004Y-18473742D01*
X18353527Y-18464218D01*
X18372575Y-18435646D01*
X18382099Y-18397551D01*
X18382099Y-18321361D01*
X18372575Y-18302313D01*
X18363051Y-18292789D01*
X18344004Y-18283265D01*
X18305908Y-18283265D01*
X18286861Y-18292789D01*
X18277337Y-18302313D01*
X18267813Y-18321361D01*
X18267813Y-18368980D01*
X18277337Y-18388027D01*
X18286861Y-18397551D01*
X18305908Y-18407075D01*
X18344004Y-18407075D01*
X18363051Y-18397551D01*
X18372575Y-18388027D01*
X18382099Y-18368980D01*
X18553527Y-18349932D02*
X18553527Y-18483265D01*
X18505908Y-18273742D02*
X18458289Y-18416599D01*
X18582099Y-18416599D01*
X18648765Y-18283265D02*
X18648765Y-18321361D01*
X18724956Y-18283265D02*
X18724956Y-18321361D01*
X19020194Y-18559456D02*
X19010670Y-18549932D01*
X18991623Y-18521361D01*
X18982099Y-18502313D01*
X18972575Y-18473742D01*
X18963051Y-18426123D01*
X18963051Y-18388027D01*
X18972575Y-18340408D01*
X18982099Y-18311837D01*
X18991623Y-18292789D01*
X19010670Y-18264218D01*
X19020194Y-18254694D01*
X19191623Y-18283265D02*
X19096385Y-18283265D01*
X19086861Y-18378504D01*
X19096385Y-18368980D01*
X19115432Y-18359456D01*
X19163051Y-18359456D01*
X19182099Y-18368980D01*
X19191623Y-18378504D01*
X19201146Y-18397551D01*
X19201146Y-18445170D01*
X19191623Y-18464218D01*
X19182099Y-18473742D01*
X19163051Y-18483265D01*
X19115432Y-18483265D01*
X19096385Y-18473742D01*
X19086861Y-18464218D01*
X19439242Y-18483265D02*
X19439242Y-18283265D01*
X19524956Y-18483265D02*
X19524956Y-18378504D01*
X19515432Y-18359456D01*
X19496385Y-18349932D01*
X19467813Y-18349932D01*
X19448765Y-18359456D01*
X19439242Y-18368980D01*
X19648765Y-18483265D02*
X19629718Y-18473742D01*
X19620194Y-18464218D01*
X19610670Y-18445170D01*
X19610670Y-18388027D01*
X19620194Y-18368980D01*
X19629718Y-18359456D01*
X19648765Y-18349932D01*
X19677337Y-18349932D01*
X19696385Y-18359456D01*
X19705908Y-18368980D01*
X19715432Y-18388027D01*
X19715432Y-18445170D01*
X19705908Y-18464218D01*
X19696385Y-18473742D01*
X19677337Y-18483265D01*
X19648765Y-18483265D01*
X19829718Y-18483265D02*
X19810670Y-18473742D01*
X19801146Y-18454694D01*
X19801146Y-18283265D01*
X19982099Y-18473742D02*
X19963051Y-18483265D01*
X19924956Y-18483265D01*
X19905908Y-18473742D01*
X19896385Y-18454694D01*
X19896385Y-18378504D01*
X19905908Y-18359456D01*
X19924956Y-18349932D01*
X19963051Y-18349932D01*
X19982099Y-18359456D01*
X19991623Y-18378504D01*
X19991623Y-18397551D01*
X19896385Y-18416599D01*
X20067813Y-18473742D02*
X20086861Y-18483265D01*
X20124956Y-18483265D01*
X20144004Y-18473742D01*
X20153527Y-18454694D01*
X20153527Y-18445170D01*
X20144004Y-18426123D01*
X20124956Y-18416599D01*
X20096385Y-18416599D01*
X20077337Y-18407075D01*
X20067813Y-18388027D01*
X20067813Y-18378504D01*
X20077337Y-18359456D01*
X20096385Y-18349932D01*
X20124956Y-18349932D01*
X20144004Y-18359456D01*
X20220194Y-18559456D02*
X20229718Y-18549932D01*
X20248765Y-18521361D01*
X20258289Y-18502313D01*
X20267813Y-18473742D01*
X20277337Y-18426123D01*
X20277337Y-18388027D01*
X20267813Y-18340408D01*
X20258289Y-18311837D01*
X20248765Y-18292789D01*
X20229718Y-18264218D01*
X20220194Y-18254694D01*
X15419001Y-18727501D02*
X15419001Y-18586078D01*
X15277578Y-18586078D01*
X15277578Y-18727501D01*
X15419001Y-18727501D01*
X15686861Y-18547265D02*
X15810670Y-18547265D01*
X15744003Y-18623456D01*
X15772575Y-18623456D01*
X15791623Y-18632980D01*
X15801146Y-18642504D01*
X15810670Y-18661551D01*
X15810670Y-18709170D01*
X15801146Y-18728218D01*
X15791623Y-18737742D01*
X15772575Y-18747265D01*
X15715432Y-18747265D01*
X15696384Y-18737742D01*
X15686861Y-18728218D01*
X15896384Y-18728218D02*
X15905908Y-18737742D01*
X15896384Y-18747265D01*
X15886861Y-18737742D01*
X15896384Y-18728218D01*
X15896384Y-18747265D01*
X16086861Y-18547265D02*
X15991623Y-18547265D01*
X15982099Y-18642504D01*
X15991623Y-18632980D01*
X16010670Y-18623456D01*
X16058289Y-18623456D01*
X16077337Y-18632980D01*
X16086861Y-18642504D01*
X16096384Y-18661551D01*
X16096384Y-18709170D01*
X16086861Y-18728218D01*
X16077337Y-18737742D01*
X16058289Y-18747265D01*
X16010670Y-18747265D01*
X15991623Y-18737742D01*
X15982099Y-18728218D01*
X16220194Y-18547265D02*
X16239242Y-18547265D01*
X16258289Y-18556789D01*
X16267813Y-18566313D01*
X16277337Y-18585361D01*
X16286861Y-18623456D01*
X16286861Y-18671075D01*
X16277337Y-18709170D01*
X16267813Y-18728218D01*
X16258289Y-18737742D01*
X16239242Y-18747265D01*
X16220194Y-18747265D01*
X16201146Y-18737742D01*
X16191623Y-18728218D01*
X16182099Y-18709170D01*
X16172575Y-18671075D01*
X16172575Y-18623456D01*
X16182099Y-18585361D01*
X16191623Y-18566313D01*
X16201146Y-18556789D01*
X16220194Y-18547265D01*
X16410670Y-18547265D02*
X16429718Y-18547265D01*
X16448765Y-18556789D01*
X16458289Y-18566313D01*
X16467813Y-18585361D01*
X16477337Y-18623456D01*
X16477337Y-18671075D01*
X16467813Y-18709170D01*
X16458289Y-18728218D01*
X16448765Y-18737742D01*
X16429718Y-18747265D01*
X16410670Y-18747265D01*
X16391623Y-18737742D01*
X16382099Y-18728218D01*
X16372575Y-18709170D01*
X16363051Y-18671075D01*
X16363051Y-18623456D01*
X16372575Y-18585361D01*
X16382099Y-18566313D01*
X16391623Y-18556789D01*
X16410670Y-18547265D01*
X16563051Y-18747265D02*
X16563051Y-18613932D01*
X16563051Y-18632980D02*
X16572575Y-18623456D01*
X16591623Y-18613932D01*
X16620194Y-18613932D01*
X16639242Y-18623456D01*
X16648765Y-18642504D01*
X16648765Y-18747265D01*
X16648765Y-18642504D02*
X16658289Y-18623456D01*
X16677337Y-18613932D01*
X16705908Y-18613932D01*
X16724956Y-18623456D01*
X16734480Y-18642504D01*
X16734480Y-18747265D01*
X16829718Y-18747265D02*
X16829718Y-18613932D01*
X16829718Y-18632980D02*
X16839242Y-18623456D01*
X16858289Y-18613932D01*
X16886861Y-18613932D01*
X16905908Y-18623456D01*
X16915432Y-18642504D01*
X16915432Y-18747265D01*
X16915432Y-18642504D02*
X16924956Y-18623456D01*
X16944004Y-18613932D01*
X16972575Y-18613932D01*
X16991623Y-18623456D01*
X17001146Y-18642504D01*
X17001146Y-18747265D01*
X17391623Y-18537742D02*
X17220194Y-18794885D01*
X17648765Y-18547265D02*
X17667813Y-18547265D01*
X17686861Y-18556789D01*
X17696385Y-18566313D01*
X17705908Y-18585361D01*
X17715432Y-18623456D01*
X17715432Y-18671075D01*
X17705908Y-18709170D01*
X17696385Y-18728218D01*
X17686861Y-18737742D01*
X17667813Y-18747265D01*
X17648765Y-18747265D01*
X17629718Y-18737742D01*
X17620194Y-18728218D01*
X17610670Y-18709170D01*
X17601146Y-18671075D01*
X17601146Y-18623456D01*
X17610670Y-18585361D01*
X17620194Y-18566313D01*
X17629718Y-18556789D01*
X17648765Y-18547265D01*
X17801146Y-18728218D02*
X17810670Y-18737742D01*
X17801146Y-18747265D01*
X17791623Y-18737742D01*
X17801146Y-18728218D01*
X17801146Y-18747265D01*
X18001146Y-18747265D02*
X17886861Y-18747265D01*
X17944004Y-18747265D02*
X17944004Y-18547265D01*
X17924956Y-18575837D01*
X17905908Y-18594885D01*
X17886861Y-18604408D01*
X18067813Y-18547265D02*
X18191623Y-18547265D01*
X18124956Y-18623456D01*
X18153527Y-18623456D01*
X18172575Y-18632980D01*
X18182099Y-18642504D01*
X18191623Y-18661551D01*
X18191623Y-18709170D01*
X18182099Y-18728218D01*
X18172575Y-18737742D01*
X18153527Y-18747265D01*
X18096385Y-18747265D01*
X18077337Y-18737742D01*
X18067813Y-18728218D01*
X18258289Y-18547265D02*
X18391623Y-18547265D01*
X18305908Y-18747265D01*
X18496385Y-18632980D02*
X18477337Y-18623456D01*
X18467813Y-18613932D01*
X18458289Y-18594885D01*
X18458289Y-18585361D01*
X18467813Y-18566313D01*
X18477337Y-18556789D01*
X18496385Y-18547265D01*
X18534480Y-18547265D01*
X18553527Y-18556789D01*
X18563051Y-18566313D01*
X18572575Y-18585361D01*
X18572575Y-18594885D01*
X18563051Y-18613932D01*
X18553527Y-18623456D01*
X18534480Y-18632980D01*
X18496385Y-18632980D01*
X18477337Y-18642504D01*
X18467813Y-18652027D01*
X18458289Y-18671075D01*
X18458289Y-18709170D01*
X18467813Y-18728218D01*
X18477337Y-18737742D01*
X18496385Y-18747265D01*
X18534480Y-18747265D01*
X18553527Y-18737742D01*
X18563051Y-18728218D01*
X18572575Y-18709170D01*
X18572575Y-18671075D01*
X18563051Y-18652027D01*
X18553527Y-18642504D01*
X18534480Y-18632980D01*
X18648765Y-18547265D02*
X18648765Y-18585361D01*
X18724956Y-18547265D02*
X18724956Y-18585361D01*
X19020194Y-18823456D02*
X19010670Y-18813932D01*
X18991623Y-18785361D01*
X18982099Y-18766313D01*
X18972575Y-18737742D01*
X18963051Y-18690123D01*
X18963051Y-18652027D01*
X18972575Y-18604408D01*
X18982099Y-18575837D01*
X18991623Y-18556789D01*
X19010670Y-18528218D01*
X19020194Y-18518694D01*
X19182099Y-18613932D02*
X19182099Y-18747265D01*
X19134480Y-18537742D02*
X19086861Y-18680599D01*
X19210670Y-18680599D01*
X19439242Y-18747265D02*
X19439242Y-18547265D01*
X19524956Y-18747265D02*
X19524956Y-18642504D01*
X19515432Y-18623456D01*
X19496385Y-18613932D01*
X19467813Y-18613932D01*
X19448765Y-18623456D01*
X19439242Y-18632980D01*
X19648765Y-18747265D02*
X19629718Y-18737742D01*
X19620194Y-18728218D01*
X19610670Y-18709170D01*
X19610670Y-18652027D01*
X19620194Y-18632980D01*
X19629718Y-18623456D01*
X19648765Y-18613932D01*
X19677337Y-18613932D01*
X19696385Y-18623456D01*
X19705908Y-18632980D01*
X19715432Y-18652027D01*
X19715432Y-18709170D01*
X19705908Y-18728218D01*
X19696385Y-18737742D01*
X19677337Y-18747265D01*
X19648765Y-18747265D01*
X19829718Y-18747265D02*
X19810670Y-18737742D01*
X19801146Y-18718694D01*
X19801146Y-18547265D01*
X19982099Y-18737742D02*
X19963051Y-18747265D01*
X19924956Y-18747265D01*
X19905908Y-18737742D01*
X19896385Y-18718694D01*
X19896385Y-18642504D01*
X19905908Y-18623456D01*
X19924956Y-18613932D01*
X19963051Y-18613932D01*
X19982099Y-18623456D01*
X19991623Y-18642504D01*
X19991623Y-18661551D01*
X19896385Y-18680599D01*
X20067813Y-18737742D02*
X20086861Y-18747265D01*
X20124956Y-18747265D01*
X20144004Y-18737742D01*
X20153527Y-18718694D01*
X20153527Y-18709170D01*
X20144004Y-18690123D01*
X20124956Y-18680599D01*
X20096385Y-18680599D01*
X20077337Y-18671075D01*
X20067813Y-18652027D01*
X20067813Y-18642504D01*
X20077337Y-18623456D01*
X20096385Y-18613932D01*
X20124956Y-18613932D01*
X20144004Y-18623456D01*
X20220194Y-18823456D02*
X20229718Y-18813932D01*
X20248765Y-18785361D01*
X20258289Y-18766313D01*
X20267813Y-18737742D01*
X20277337Y-18690123D01*
X20277337Y-18652027D01*
X20267813Y-18604408D01*
X20258289Y-18575837D01*
X20248765Y-18556789D01*
X20229718Y-18528218D01*
X20220194Y-18518694D01*
M02*
