%TF.GenerationSoftware,KiCad,Pcbnew,(6.0.7)*%
%TF.CreationDate,2022-11-11T00:25:46-08:00*%
%TF.ProjectId,LED_Board_s_,4c45445f-426f-4617-9264-5f735f2e6b69,rev?*%
%TF.SameCoordinates,Original*%
%TF.FileFunction,Copper,L4,Bot*%
%TF.FilePolarity,Positive*%
%FSLAX46Y46*%
G04 Gerber Fmt 4.6, Leading zero omitted, Abs format (unit mm)*
G04 Created by KiCad (PCBNEW (6.0.7)) date 2022-11-11 00:25:46*
%MOMM*%
%LPD*%
G01*
G04 APERTURE LIST*
%TA.AperFunction,ComponentPad*%
%ADD10C,0.800000*%
%TD*%
%TA.AperFunction,ComponentPad*%
%ADD11C,7.000000*%
%TD*%
%TA.AperFunction,ComponentPad*%
%ADD12R,1.700000X1.700000*%
%TD*%
%TA.AperFunction,ComponentPad*%
%ADD13O,1.700000X1.700000*%
%TD*%
%TA.AperFunction,ViaPad*%
%ADD14C,0.800000*%
%TD*%
G04 APERTURE END LIST*
D10*
%TO.P,H2,1,1*%
%TO.N,GND*%
X159482893Y-169872893D03*
X159482893Y-164622893D03*
X156857893Y-167247893D03*
D11*
X159482893Y-167247893D03*
D10*
X161339048Y-169104048D03*
X157626738Y-165391738D03*
X157626738Y-169104048D03*
X161339048Y-165391738D03*
X162107893Y-167247893D03*
%TD*%
D11*
%TO.P,H3,1*%
%TO.N,N/C*%
X264132893Y-100697893D03*
%TD*%
%TO.P,H4,1*%
%TO.N,N/C*%
X264132893Y-167247893D03*
%TD*%
%TO.P,H1,1*%
%TO.N,N/C*%
X159482893Y-100697893D03*
%TD*%
D12*
%TO.P,J1,1,Pin_1*%
%TO.N,GND*%
X159500000Y-127925000D03*
D13*
%TO.P,J1,2,Pin_2*%
%TO.N,/SDI*%
X159500000Y-130465000D03*
%TO.P,J1,3,Pin_3*%
%TO.N,/CKI*%
X159500000Y-133005000D03*
%TO.P,J1,4,Pin_4*%
%TO.N,VCC*%
X159500000Y-135545000D03*
%TO.P,J1,5,Pin_5*%
%TO.N,+5VD*%
X159500000Y-138085000D03*
%TD*%
D14*
%TO.N,/CKI*%
X157200000Y-119300000D03*
%TO.N,GND*%
X190500000Y-151750000D03*
X185500000Y-97750000D03*
X253250000Y-101500000D03*
X197500000Y-151750000D03*
X217500000Y-170250000D03*
X188000000Y-128250000D03*
X258000000Y-170250000D03*
X197250000Y-113500000D03*
X245500000Y-97750000D03*
X200750000Y-139750000D03*
X211250000Y-116500000D03*
X220500000Y-170250000D03*
X236500000Y-135250000D03*
X253000000Y-158750000D03*
X188000000Y-109250000D03*
X218250000Y-101500000D03*
X211500000Y-151750000D03*
X224500000Y-170250000D03*
X240250000Y-128250000D03*
X180500000Y-132250000D03*
X228750000Y-113500000D03*
X191000000Y-135250000D03*
X169250000Y-113500000D03*
X200750000Y-120750000D03*
X205500000Y-166500000D03*
X190500000Y-154750000D03*
X252500000Y-170250000D03*
X187000000Y-154750000D03*
X264500000Y-132250000D03*
X193750000Y-116500000D03*
X218250000Y-158750000D03*
X179000000Y-170250000D03*
X257750000Y-147250000D03*
X250500000Y-132250000D03*
X200750000Y-101500000D03*
X238000000Y-170250000D03*
X188000000Y-147250000D03*
X240000000Y-135250000D03*
X172750000Y-113500000D03*
X170000000Y-135250000D03*
X257500000Y-135250000D03*
X263750000Y-116500000D03*
X236000000Y-151750000D03*
X172000000Y-97750000D03*
X212000000Y-132250000D03*
X223000000Y-128250000D03*
X257000000Y-154750000D03*
X250000000Y-151750000D03*
X242000000Y-170250000D03*
X222500000Y-135250000D03*
X179750000Y-113500000D03*
X264500000Y-135250000D03*
X260250000Y-113500000D03*
X243000000Y-154750000D03*
X250500000Y-135250000D03*
X229000000Y-154750000D03*
X183000000Y-140000000D03*
X207750000Y-113500000D03*
X249000000Y-97750000D03*
X235500000Y-158750000D03*
X217500000Y-97750000D03*
X180000000Y-154750000D03*
X224500000Y-97750000D03*
X180500000Y-135250000D03*
X167000000Y-141000000D03*
X193750000Y-113500000D03*
X236000000Y-154750000D03*
X235750000Y-116500000D03*
X182500000Y-170250000D03*
X218500000Y-151750000D03*
X246250000Y-116500000D03*
X170000000Y-132250000D03*
X223000000Y-166500000D03*
X218500000Y-154750000D03*
X240250000Y-109250000D03*
X200750000Y-158750000D03*
X189500000Y-170250000D03*
X183250000Y-116500000D03*
X205000000Y-135250000D03*
X264000000Y-154750000D03*
X215000000Y-151750000D03*
X243000000Y-151750000D03*
X260500000Y-154750000D03*
X214000000Y-170250000D03*
X184000000Y-132250000D03*
X218250000Y-116500000D03*
X225500000Y-154750000D03*
X200000000Y-170250000D03*
X214750000Y-113500000D03*
X190250000Y-113500000D03*
X207750000Y-116500000D03*
X260500000Y-151750000D03*
X219000000Y-132250000D03*
X247000000Y-132250000D03*
X194500000Y-132250000D03*
X223000000Y-147250000D03*
X240250000Y-147250000D03*
X183250000Y-120750000D03*
X175500000Y-170250000D03*
X229500000Y-132250000D03*
X225250000Y-113500000D03*
X242750000Y-116500000D03*
X183500000Y-101500000D03*
X187500000Y-132250000D03*
X208500000Y-132250000D03*
X254000000Y-132250000D03*
X172750000Y-116500000D03*
X239500000Y-151750000D03*
X253250000Y-113500000D03*
X233000000Y-132250000D03*
X250000000Y-154750000D03*
X211500000Y-154750000D03*
X186750000Y-113500000D03*
X245500000Y-170250000D03*
X226000000Y-132250000D03*
X229000000Y-151750000D03*
X168250000Y-97750000D03*
X186000000Y-170250000D03*
X235750000Y-113500000D03*
X225250000Y-116500000D03*
X196500000Y-97750000D03*
X187000000Y-151750000D03*
X205000000Y-132250000D03*
X233000000Y-135250000D03*
X184000000Y-135250000D03*
X175500000Y-97750000D03*
X196500000Y-170250000D03*
X165000000Y-97750000D03*
X193000000Y-170250000D03*
X240500000Y-166500000D03*
X205500000Y-109250000D03*
X176500000Y-151750000D03*
X257500000Y-132250000D03*
X203250000Y-170250000D03*
X169500000Y-151750000D03*
X193000000Y-97750000D03*
X226000000Y-135250000D03*
X208000000Y-151750000D03*
X183500000Y-151750000D03*
X170750000Y-128000000D03*
X166000000Y-120750000D03*
X246500000Y-151750000D03*
X218000000Y-139750000D03*
X194000000Y-154750000D03*
X228000000Y-170250000D03*
X211250000Y-113500000D03*
X249750000Y-116500000D03*
X204250000Y-113500000D03*
X257500000Y-166250000D03*
X173500000Y-132250000D03*
X215500000Y-132250000D03*
X264000000Y-151750000D03*
X179750000Y-116500000D03*
X246500000Y-154750000D03*
X200000000Y-97750000D03*
X205500000Y-128250000D03*
X177000000Y-132250000D03*
X183250000Y-158750000D03*
X232250000Y-113500000D03*
X240000000Y-132250000D03*
X239500000Y-154750000D03*
X214750000Y-116500000D03*
X200750000Y-116500000D03*
X168500000Y-170250000D03*
X173500000Y-135250000D03*
X180000000Y-151750000D03*
X186750000Y-116500000D03*
X173000000Y-154750000D03*
X208000000Y-154750000D03*
X194500000Y-135250000D03*
X256750000Y-113500000D03*
X242750000Y-113500000D03*
X176250000Y-113500000D03*
X222000000Y-154750000D03*
X207000000Y-97750000D03*
X170500000Y-166500000D03*
X239250000Y-116500000D03*
X260250000Y-116500000D03*
X222500000Y-132250000D03*
X263750000Y-113500000D03*
X215000000Y-154750000D03*
X201500000Y-132250000D03*
X222000000Y-151750000D03*
X221000000Y-97750000D03*
X212000000Y-135250000D03*
X232250000Y-116500000D03*
X232500000Y-154750000D03*
X231500000Y-97750000D03*
X218250000Y-113500000D03*
X210500000Y-170250000D03*
X169250000Y-116500000D03*
X257000000Y-151750000D03*
X238000000Y-97750000D03*
X225500000Y-151750000D03*
X201500000Y-135250000D03*
X207000000Y-170250000D03*
X204500000Y-151750000D03*
X182500000Y-97750000D03*
X204250000Y-116500000D03*
X208500000Y-135250000D03*
X159500000Y-125000000D03*
X253000000Y-120750000D03*
X247000000Y-135250000D03*
X190250000Y-116500000D03*
X222750000Y-109250000D03*
X249750000Y-113500000D03*
X198000000Y-132250000D03*
X255500000Y-170250000D03*
X177000000Y-135250000D03*
X172000000Y-170250000D03*
X210500000Y-97750000D03*
X201000000Y-151750000D03*
X228750000Y-116500000D03*
X249000000Y-170250000D03*
X179000000Y-97750000D03*
X253250000Y-116500000D03*
X191000000Y-132250000D03*
X176500000Y-154750000D03*
X214000000Y-97750000D03*
X236500000Y-132250000D03*
X197500000Y-154750000D03*
X243500000Y-135250000D03*
X228000000Y-97750000D03*
X165000000Y-170250000D03*
X261000000Y-132250000D03*
X235500000Y-139750000D03*
X183500000Y-154750000D03*
X254000000Y-135250000D03*
X215500000Y-135250000D03*
X219000000Y-135250000D03*
X197250000Y-116500000D03*
X188000000Y-166500000D03*
X221750000Y-113500000D03*
X198000000Y-135250000D03*
X242000000Y-97750000D03*
X194000000Y-151750000D03*
X235000000Y-170250000D03*
X257750000Y-128250000D03*
X205500000Y-147250000D03*
X218250000Y-120750000D03*
X173000000Y-151750000D03*
X201000000Y-154750000D03*
X261000000Y-135250000D03*
X243500000Y-132250000D03*
X232500000Y-151750000D03*
X204500000Y-154750000D03*
X252500000Y-97750000D03*
X187500000Y-135250000D03*
X253250000Y-139750000D03*
X189500000Y-97750000D03*
X170500000Y-109250000D03*
X235000000Y-97750000D03*
X200750000Y-113500000D03*
X257750000Y-109000000D03*
X255500000Y-97750000D03*
X183250000Y-113500000D03*
X166000000Y-101500000D03*
X229500000Y-135250000D03*
X176250000Y-116500000D03*
X235500000Y-101500000D03*
X256750000Y-116500000D03*
X169500000Y-154750000D03*
X170750000Y-147500000D03*
X231500000Y-170250000D03*
X166000000Y-158500000D03*
X203000000Y-97750000D03*
X253500000Y-151750000D03*
X246250000Y-113500000D03*
X235500000Y-120750000D03*
X221750000Y-116500000D03*
X239250000Y-113500000D03*
X253500000Y-154750000D03*
%TO.N,/SDI_M*%
X165264607Y-99735393D03*
X156500000Y-122750000D03*
X156500000Y-146000000D03*
%TO.N,/CKI_M*%
X161343750Y-120343750D03*
X158250000Y-141000000D03*
%TD*%
%TA.AperFunction,Conductor*%
%TO.N,GND*%
G36*
X268027915Y-96282893D02*
G01*
X268042750Y-96285203D01*
X268042751Y-96285203D01*
X268051621Y-96286584D01*
X268060524Y-96285420D01*
X268060526Y-96285420D01*
X268060650Y-96285404D01*
X268091088Y-96285133D01*
X268123951Y-96288835D01*
X268153158Y-96292126D01*
X268180666Y-96298404D01*
X268257756Y-96325379D01*
X268283176Y-96337620D01*
X268352326Y-96381069D01*
X268374386Y-96398661D01*
X268432135Y-96456409D01*
X268449727Y-96478469D01*
X268493178Y-96547621D01*
X268505420Y-96573041D01*
X268532393Y-96650124D01*
X268538672Y-96677632D01*
X268544919Y-96733072D01*
X268544611Y-96748764D01*
X268545693Y-96748777D01*
X268545584Y-96757746D01*
X268544202Y-96766621D01*
X268548110Y-96796504D01*
X268548329Y-96798180D01*
X268549393Y-96814518D01*
X268549393Y-171123530D01*
X268547893Y-171142915D01*
X268545583Y-171157748D01*
X268545583Y-171157752D01*
X268544202Y-171166621D01*
X268545382Y-171175646D01*
X268545654Y-171206081D01*
X268538661Y-171268154D01*
X268538661Y-171268155D01*
X268532382Y-171295664D01*
X268505408Y-171372752D01*
X268493169Y-171398168D01*
X268449714Y-171467325D01*
X268432125Y-171489380D01*
X268374380Y-171547125D01*
X268352325Y-171564714D01*
X268283168Y-171608169D01*
X268257752Y-171620408D01*
X268180664Y-171647382D01*
X268153159Y-171653660D01*
X268097673Y-171659912D01*
X268082036Y-171659245D01*
X268082018Y-171660694D01*
X268073047Y-171660584D01*
X268064173Y-171659202D01*
X268055270Y-171660366D01*
X268055263Y-171660366D01*
X268032603Y-171663329D01*
X268016267Y-171664393D01*
X155607263Y-171664393D01*
X155587876Y-171662893D01*
X155573043Y-171660583D01*
X155573042Y-171660583D01*
X155564173Y-171659202D01*
X155555271Y-171660366D01*
X155555269Y-171660366D01*
X155555153Y-171660381D01*
X155524704Y-171660652D01*
X155462633Y-171653657D01*
X155435127Y-171647379D01*
X155358045Y-171620406D01*
X155332626Y-171608165D01*
X155302885Y-171589478D01*
X155263476Y-171564716D01*
X155241417Y-171547124D01*
X155183671Y-171489376D01*
X155166080Y-171467317D01*
X155122633Y-171398170D01*
X155110392Y-171372750D01*
X155083418Y-171295663D01*
X155077139Y-171268154D01*
X155076260Y-171260347D01*
X155070877Y-171212567D01*
X155070094Y-171196922D01*
X155070203Y-171188046D01*
X155071584Y-171179173D01*
X155070420Y-171170270D01*
X155070420Y-171170265D01*
X155067457Y-171147603D01*
X155066393Y-171131267D01*
X155066393Y-170258500D01*
X156837826Y-170258500D01*
X156837881Y-170259279D01*
X156843235Y-170267329D01*
X156879853Y-170301714D01*
X156884531Y-170305696D01*
X157190279Y-170541153D01*
X157195322Y-170544658D01*
X157522587Y-170749155D01*
X157527944Y-170752149D01*
X157873602Y-170923736D01*
X157879242Y-170926200D01*
X158239969Y-171063227D01*
X158245841Y-171065135D01*
X158618237Y-171166313D01*
X158624214Y-171167627D01*
X159004736Y-171231988D01*
X159010822Y-171232713D01*
X159395789Y-171259633D01*
X159401925Y-171259761D01*
X159787680Y-171248986D01*
X159793811Y-171248514D01*
X160176648Y-171200150D01*
X160182721Y-171199080D01*
X160559028Y-171113585D01*
X160564943Y-171111933D01*
X160931108Y-170990127D01*
X160936842Y-170987903D01*
X161289390Y-170830939D01*
X161294859Y-170828176D01*
X161630409Y-170637557D01*
X161635583Y-170634273D01*
X161950927Y-170411822D01*
X161955765Y-170408042D01*
X162118133Y-170267891D01*
X162126548Y-170254851D01*
X162120609Y-170244819D01*
X159495705Y-167619915D01*
X159481761Y-167612301D01*
X159479928Y-167612432D01*
X159473313Y-167616683D01*
X156845440Y-170244556D01*
X156837826Y-170258500D01*
X155066393Y-170258500D01*
X155066393Y-167194954D01*
X155470558Y-167194954D01*
X155484025Y-167580599D01*
X155484540Y-167586731D01*
X155535578Y-167969240D01*
X155536685Y-167975276D01*
X155624806Y-168350983D01*
X155626501Y-168356893D01*
X155750861Y-168722199D01*
X155753128Y-168727924D01*
X155912536Y-169079337D01*
X155915358Y-169084827D01*
X156108300Y-169419012D01*
X156111630Y-169424180D01*
X156336268Y-169737952D01*
X156340090Y-169742774D01*
X156462926Y-169883088D01*
X156476140Y-169891486D01*
X156485936Y-169885640D01*
X159110871Y-167260705D01*
X159117249Y-167249025D01*
X159847301Y-167249025D01*
X159847432Y-167250858D01*
X159851683Y-167257473D01*
X162480257Y-169886047D01*
X162494201Y-169893661D01*
X162495216Y-169893589D01*
X162502947Y-169888486D01*
X162518460Y-169872195D01*
X162522488Y-169867530D01*
X162760061Y-169563451D01*
X162763615Y-169558411D01*
X162970379Y-169232605D01*
X162973422Y-169227249D01*
X163147413Y-168882803D01*
X163149909Y-168877199D01*
X163289461Y-168517411D01*
X163291402Y-168511577D01*
X163395181Y-168139881D01*
X163396537Y-168133910D01*
X163463553Y-167753852D01*
X163464320Y-167747779D01*
X163494012Y-167361893D01*
X163494189Y-167357978D01*
X163495699Y-167249867D01*
X163495631Y-167245923D01*
X163492987Y-167191858D01*
X260119950Y-167191858D01*
X260133634Y-167583720D01*
X260134040Y-167586764D01*
X260134041Y-167586774D01*
X260137465Y-167612432D01*
X260185492Y-167972377D01*
X260275029Y-168354118D01*
X260401389Y-168725300D01*
X260563368Y-169082380D01*
X260759418Y-169421949D01*
X260761207Y-169424447D01*
X260761209Y-169424451D01*
X260985654Y-169737952D01*
X260987669Y-169740767D01*
X260989695Y-169743082D01*
X260989698Y-169743085D01*
X261119614Y-169891486D01*
X261245942Y-170035789D01*
X261531771Y-170304201D01*
X261669730Y-170410443D01*
X261839461Y-170541153D01*
X261842429Y-170543439D01*
X261845032Y-170545066D01*
X261845037Y-170545069D01*
X261964469Y-170619698D01*
X262174949Y-170751221D01*
X262526159Y-170925563D01*
X262892705Y-171064800D01*
X263271088Y-171167605D01*
X263506176Y-171207367D01*
X263654676Y-171232484D01*
X263654679Y-171232484D01*
X263657698Y-171232995D01*
X263812337Y-171243809D01*
X264045778Y-171260133D01*
X264045786Y-171260133D01*
X264048844Y-171260347D01*
X264300930Y-171253306D01*
X264437718Y-171249485D01*
X264437721Y-171249485D01*
X264440792Y-171249399D01*
X264443845Y-171249013D01*
X264443849Y-171249013D01*
X264585469Y-171231122D01*
X264829801Y-171200255D01*
X264832805Y-171199573D01*
X264832808Y-171199572D01*
X265209162Y-171114067D01*
X265209168Y-171114065D01*
X265212158Y-171113386D01*
X265216526Y-171111933D01*
X265581289Y-170990593D01*
X265581295Y-170990591D01*
X265584213Y-170989620D01*
X265587023Y-170988369D01*
X265939615Y-170831385D01*
X265939621Y-170831382D01*
X265942415Y-170830138D01*
X265945869Y-170828176D01*
X266280677Y-170637979D01*
X266280683Y-170637976D01*
X266283345Y-170636463D01*
X266603748Y-170410443D01*
X266729283Y-170302085D01*
X266898240Y-170156246D01*
X266898244Y-170156242D01*
X266900567Y-170154237D01*
X267170967Y-169870288D01*
X267412368Y-169561308D01*
X267622467Y-169230247D01*
X267623982Y-169227249D01*
X267797870Y-168883006D01*
X267799256Y-168880263D01*
X267800366Y-168877402D01*
X267939934Y-168517574D01*
X267939937Y-168517565D01*
X267941049Y-168514698D01*
X268046493Y-168137041D01*
X268114581Y-167750897D01*
X268127681Y-167580640D01*
X268144512Y-167361906D01*
X268144513Y-167361893D01*
X268144662Y-167359952D01*
X268146227Y-167247893D01*
X268145759Y-167238313D01*
X268135877Y-167036268D01*
X268127073Y-166856260D01*
X268069794Y-166468366D01*
X267974936Y-166087912D01*
X267954903Y-166031651D01*
X267844437Y-165721429D01*
X267843405Y-165718530D01*
X267676457Y-165363747D01*
X267674890Y-165361118D01*
X267674885Y-165361109D01*
X267477254Y-165029582D01*
X267475684Y-165026948D01*
X267473870Y-165024488D01*
X267473865Y-165024480D01*
X267244826Y-164713819D01*
X267244824Y-164713816D01*
X267243004Y-164711348D01*
X266980637Y-164419961D01*
X266691088Y-164155566D01*
X266377121Y-163920688D01*
X266328908Y-163891489D01*
X266044360Y-163719160D01*
X266044351Y-163719155D01*
X266041732Y-163717569D01*
X265688122Y-163548148D01*
X265685232Y-163547096D01*
X265685227Y-163547094D01*
X265322567Y-163415097D01*
X265322564Y-163415096D01*
X265319668Y-163414042D01*
X264944778Y-163317786D01*
X264942870Y-163317296D01*
X264942867Y-163317295D01*
X264939886Y-163316530D01*
X264552401Y-163256544D01*
X264160911Y-163234657D01*
X264157832Y-163234786D01*
X264157829Y-163234786D01*
X263902081Y-163245505D01*
X263769154Y-163251076D01*
X263766110Y-163251504D01*
X263766108Y-163251504D01*
X263555671Y-163281079D01*
X263380869Y-163305646D01*
X262999762Y-163397846D01*
X262629472Y-163526795D01*
X262273531Y-163691262D01*
X261935339Y-163889678D01*
X261775337Y-164005926D01*
X261620604Y-164118346D01*
X261620598Y-164118351D01*
X261618123Y-164120149D01*
X261615837Y-164122178D01*
X261615834Y-164122181D01*
X261575468Y-164158020D01*
X261324910Y-164380476D01*
X261322831Y-164382721D01*
X261322824Y-164382728D01*
X261113268Y-164609029D01*
X261058501Y-164668172D01*
X260821437Y-164980492D01*
X260615982Y-165314455D01*
X260444096Y-165666873D01*
X260443024Y-165669757D01*
X260443023Y-165669758D01*
X260425850Y-165715936D01*
X260307420Y-166034382D01*
X260207260Y-166413474D01*
X260144570Y-166800531D01*
X260144376Y-166803611D01*
X260144376Y-166803613D01*
X260140871Y-166859333D01*
X260119950Y-167191858D01*
X163492987Y-167191858D01*
X163476725Y-166859382D01*
X163476124Y-166853258D01*
X163419755Y-166471524D01*
X163418555Y-166465462D01*
X163325205Y-166091058D01*
X163323420Y-166085143D01*
X163193975Y-165721620D01*
X163191632Y-165715936D01*
X163027327Y-165366770D01*
X163024438Y-165361336D01*
X162826848Y-165029876D01*
X162823440Y-165024746D01*
X162594440Y-164714137D01*
X162590560Y-164709380D01*
X162503211Y-164612368D01*
X162489690Y-164604038D01*
X162489613Y-164604039D01*
X162480327Y-164609669D01*
X159854915Y-167235081D01*
X159847301Y-167249025D01*
X159117249Y-167249025D01*
X159118485Y-167246761D01*
X159118354Y-167244928D01*
X159114103Y-167238313D01*
X156486795Y-164611005D01*
X156472851Y-164603391D01*
X156472305Y-164603430D01*
X156463948Y-164609029D01*
X156410970Y-164666240D01*
X156407025Y-164670942D01*
X156173714Y-164978319D01*
X156170236Y-164983397D01*
X155968034Y-165312072D01*
X155965069Y-165317465D01*
X155795907Y-165664299D01*
X155793481Y-165669957D01*
X155658969Y-166031651D01*
X155657111Y-166037508D01*
X155558533Y-166410611D01*
X155557258Y-166416611D01*
X155495560Y-166797541D01*
X155494873Y-166803669D01*
X155470644Y-167188779D01*
X155470558Y-167194954D01*
X155066393Y-167194954D01*
X155066393Y-164241207D01*
X156839227Y-164241207D01*
X156844977Y-164250767D01*
X159470081Y-166875871D01*
X159484025Y-166883485D01*
X159485858Y-166883354D01*
X159492473Y-166879103D01*
X162119356Y-164252220D01*
X162126970Y-164238276D01*
X162126948Y-164237965D01*
X162121097Y-164229299D01*
X162043036Y-164158020D01*
X162038309Y-164154110D01*
X161729312Y-163922952D01*
X161724206Y-163919507D01*
X161394128Y-163719604D01*
X161388715Y-163716677D01*
X161040701Y-163549937D01*
X161035034Y-163547555D01*
X160672419Y-163415575D01*
X160666531Y-163413753D01*
X160292769Y-163317786D01*
X160286747Y-163316550D01*
X159905378Y-163257511D01*
X159899290Y-163256871D01*
X159513978Y-163235329D01*
X159507826Y-163235286D01*
X159122280Y-163251445D01*
X159116154Y-163252002D01*
X158734016Y-163305708D01*
X158727963Y-163306863D01*
X158352893Y-163397602D01*
X158346996Y-163399338D01*
X157982574Y-163526243D01*
X157976861Y-163528551D01*
X157626560Y-163690412D01*
X157621106Y-163693264D01*
X157288269Y-163888539D01*
X157283121Y-163891908D01*
X156970918Y-164118736D01*
X156966140Y-164122577D01*
X156847604Y-164227819D01*
X156839227Y-164241207D01*
X155066393Y-164241207D01*
X155066393Y-146000000D01*
X155586496Y-146000000D01*
X155606458Y-146189928D01*
X155665473Y-146371556D01*
X155760960Y-146536944D01*
X155888747Y-146678866D01*
X156043248Y-146791118D01*
X156049276Y-146793802D01*
X156049278Y-146793803D01*
X156211681Y-146866109D01*
X156217712Y-146868794D01*
X156311113Y-146888647D01*
X156398056Y-146907128D01*
X156398061Y-146907128D01*
X156404513Y-146908500D01*
X156595487Y-146908500D01*
X156601939Y-146907128D01*
X156601944Y-146907128D01*
X156688887Y-146888647D01*
X156782288Y-146868794D01*
X156788319Y-146866109D01*
X156950722Y-146793803D01*
X156950724Y-146793802D01*
X156956752Y-146791118D01*
X157111253Y-146678866D01*
X157239040Y-146536944D01*
X157334527Y-146371556D01*
X157393542Y-146189928D01*
X157413504Y-146000000D01*
X157393542Y-145810072D01*
X157334527Y-145628444D01*
X157239040Y-145463056D01*
X157111253Y-145321134D01*
X156956752Y-145208882D01*
X156950724Y-145206198D01*
X156950722Y-145206197D01*
X156788319Y-145133891D01*
X156788318Y-145133891D01*
X156782288Y-145131206D01*
X156688888Y-145111353D01*
X156601944Y-145092872D01*
X156601939Y-145092872D01*
X156595487Y-145091500D01*
X156404513Y-145091500D01*
X156398061Y-145092872D01*
X156398056Y-145092872D01*
X156311112Y-145111353D01*
X156217712Y-145131206D01*
X156211682Y-145133891D01*
X156211681Y-145133891D01*
X156049278Y-145206197D01*
X156049276Y-145206198D01*
X156043248Y-145208882D01*
X155888747Y-145321134D01*
X155760960Y-145463056D01*
X155665473Y-145628444D01*
X155606458Y-145810072D01*
X155586496Y-146000000D01*
X155066393Y-146000000D01*
X155066393Y-141000000D01*
X157336496Y-141000000D01*
X157356458Y-141189928D01*
X157415473Y-141371556D01*
X157510960Y-141536944D01*
X157638747Y-141678866D01*
X157793248Y-141791118D01*
X157799276Y-141793802D01*
X157799278Y-141793803D01*
X157961681Y-141866109D01*
X157967712Y-141868794D01*
X158061112Y-141888647D01*
X158148056Y-141907128D01*
X158148061Y-141907128D01*
X158154513Y-141908500D01*
X158345487Y-141908500D01*
X158351939Y-141907128D01*
X158351944Y-141907128D01*
X158438888Y-141888647D01*
X158532288Y-141868794D01*
X158538319Y-141866109D01*
X158700722Y-141793803D01*
X158700724Y-141793802D01*
X158706752Y-141791118D01*
X158861253Y-141678866D01*
X158989040Y-141536944D01*
X159084527Y-141371556D01*
X159143542Y-141189928D01*
X159163504Y-141000000D01*
X159143542Y-140810072D01*
X159084527Y-140628444D01*
X158989040Y-140463056D01*
X158861253Y-140321134D01*
X158706752Y-140208882D01*
X158700724Y-140206198D01*
X158700722Y-140206197D01*
X158538319Y-140133891D01*
X158538318Y-140133891D01*
X158532288Y-140131206D01*
X158438888Y-140111353D01*
X158351944Y-140092872D01*
X158351939Y-140092872D01*
X158345487Y-140091500D01*
X158154513Y-140091500D01*
X158148061Y-140092872D01*
X158148056Y-140092872D01*
X158061112Y-140111353D01*
X157967712Y-140131206D01*
X157961682Y-140133891D01*
X157961681Y-140133891D01*
X157799278Y-140206197D01*
X157799276Y-140206198D01*
X157793248Y-140208882D01*
X157638747Y-140321134D01*
X157510960Y-140463056D01*
X157415473Y-140628444D01*
X157356458Y-140810072D01*
X157336496Y-141000000D01*
X155066393Y-141000000D01*
X155066393Y-138051695D01*
X158137251Y-138051695D01*
X158137548Y-138056848D01*
X158137548Y-138056851D01*
X158143011Y-138151590D01*
X158150110Y-138274715D01*
X158151247Y-138279761D01*
X158151248Y-138279767D01*
X158171119Y-138367939D01*
X158199222Y-138492639D01*
X158283266Y-138699616D01*
X158399987Y-138890088D01*
X158546250Y-139058938D01*
X158718126Y-139201632D01*
X158911000Y-139314338D01*
X159119692Y-139394030D01*
X159124760Y-139395061D01*
X159124763Y-139395062D01*
X159232017Y-139416883D01*
X159338597Y-139438567D01*
X159343772Y-139438757D01*
X159343774Y-139438757D01*
X159556673Y-139446564D01*
X159556677Y-139446564D01*
X159561837Y-139446753D01*
X159566957Y-139446097D01*
X159566959Y-139446097D01*
X159778288Y-139419025D01*
X159778289Y-139419025D01*
X159783416Y-139418368D01*
X159788366Y-139416883D01*
X159992429Y-139355661D01*
X159992434Y-139355659D01*
X159997384Y-139354174D01*
X160197994Y-139255896D01*
X160379860Y-139126173D01*
X160538096Y-138968489D01*
X160597594Y-138885689D01*
X160665435Y-138791277D01*
X160668453Y-138787077D01*
X160767430Y-138586811D01*
X160832370Y-138373069D01*
X160861529Y-138151590D01*
X160863156Y-138085000D01*
X160844852Y-137862361D01*
X160790431Y-137645702D01*
X160701354Y-137440840D01*
X160580014Y-137253277D01*
X160429670Y-137088051D01*
X160425619Y-137084852D01*
X160425615Y-137084848D01*
X160258414Y-136952800D01*
X160258410Y-136952798D01*
X160254359Y-136949598D01*
X160213053Y-136926796D01*
X160163084Y-136876364D01*
X160148312Y-136806921D01*
X160173428Y-136740516D01*
X160200780Y-136713909D01*
X160244603Y-136682650D01*
X160379860Y-136586173D01*
X160538096Y-136428489D01*
X160597594Y-136345689D01*
X160665435Y-136251277D01*
X160668453Y-136247077D01*
X160767430Y-136046811D01*
X160832370Y-135833069D01*
X160861529Y-135611590D01*
X160863156Y-135545000D01*
X160844852Y-135322361D01*
X160790431Y-135105702D01*
X160701354Y-134900840D01*
X160580014Y-134713277D01*
X160429670Y-134548051D01*
X160425619Y-134544852D01*
X160425615Y-134544848D01*
X160258414Y-134412800D01*
X160258410Y-134412798D01*
X160254359Y-134409598D01*
X160213053Y-134386796D01*
X160163084Y-134336364D01*
X160148312Y-134266921D01*
X160173428Y-134200516D01*
X160200780Y-134173909D01*
X160244603Y-134142650D01*
X160379860Y-134046173D01*
X160538096Y-133888489D01*
X160597594Y-133805689D01*
X160665435Y-133711277D01*
X160668453Y-133707077D01*
X160767430Y-133506811D01*
X160832370Y-133293069D01*
X160861529Y-133071590D01*
X160863156Y-133005000D01*
X160844852Y-132782361D01*
X160790431Y-132565702D01*
X160701354Y-132360840D01*
X160580014Y-132173277D01*
X160429670Y-132008051D01*
X160425619Y-132004852D01*
X160425615Y-132004848D01*
X160258414Y-131872800D01*
X160258410Y-131872798D01*
X160254359Y-131869598D01*
X160213053Y-131846796D01*
X160163084Y-131796364D01*
X160148312Y-131726921D01*
X160173428Y-131660516D01*
X160200780Y-131633909D01*
X160244603Y-131602650D01*
X160379860Y-131506173D01*
X160538096Y-131348489D01*
X160597594Y-131265689D01*
X160665435Y-131171277D01*
X160668453Y-131167077D01*
X160767430Y-130966811D01*
X160832370Y-130753069D01*
X160861529Y-130531590D01*
X160863156Y-130465000D01*
X160844852Y-130242361D01*
X160790431Y-130025702D01*
X160701354Y-129820840D01*
X160580014Y-129633277D01*
X160576540Y-129629459D01*
X160576533Y-129629450D01*
X160432435Y-129471088D01*
X160401383Y-129407242D01*
X160409779Y-129336744D01*
X160454956Y-129281976D01*
X160481400Y-129268307D01*
X160588052Y-129228325D01*
X160603649Y-129219786D01*
X160705724Y-129143285D01*
X160718285Y-129130724D01*
X160794786Y-129028649D01*
X160803324Y-129013054D01*
X160848478Y-128892606D01*
X160852105Y-128877351D01*
X160857631Y-128826486D01*
X160858000Y-128819672D01*
X160858000Y-128197115D01*
X160853525Y-128181876D01*
X160852135Y-128180671D01*
X160844452Y-128179000D01*
X158160116Y-128179000D01*
X158144877Y-128183475D01*
X158143672Y-128184865D01*
X158142001Y-128192548D01*
X158142001Y-128819669D01*
X158142371Y-128826490D01*
X158147895Y-128877352D01*
X158151521Y-128892604D01*
X158196676Y-129013054D01*
X158205214Y-129028649D01*
X158281715Y-129130724D01*
X158294276Y-129143285D01*
X158396351Y-129219786D01*
X158411946Y-129228324D01*
X158520827Y-129269142D01*
X158577591Y-129311784D01*
X158602291Y-129378345D01*
X158587083Y-129447694D01*
X158567691Y-129474175D01*
X158444200Y-129603401D01*
X158440629Y-129607138D01*
X158314743Y-129791680D01*
X158220688Y-129994305D01*
X158160989Y-130209570D01*
X158137251Y-130431695D01*
X158137548Y-130436848D01*
X158137548Y-130436851D01*
X158143011Y-130531590D01*
X158150110Y-130654715D01*
X158151247Y-130659761D01*
X158151248Y-130659767D01*
X158171119Y-130747939D01*
X158199222Y-130872639D01*
X158283266Y-131079616D01*
X158399987Y-131270088D01*
X158546250Y-131438938D01*
X158718126Y-131581632D01*
X158788595Y-131622811D01*
X158791445Y-131624476D01*
X158840169Y-131676114D01*
X158853240Y-131745897D01*
X158826509Y-131811669D01*
X158786055Y-131845027D01*
X158773607Y-131851507D01*
X158769474Y-131854610D01*
X158769471Y-131854612D01*
X158745247Y-131872800D01*
X158594965Y-131985635D01*
X158440629Y-132147138D01*
X158314743Y-132331680D01*
X158220688Y-132534305D01*
X158160989Y-132749570D01*
X158137251Y-132971695D01*
X158137548Y-132976848D01*
X158137548Y-132976851D01*
X158143011Y-133071590D01*
X158150110Y-133194715D01*
X158151247Y-133199761D01*
X158151248Y-133199767D01*
X158171119Y-133287939D01*
X158199222Y-133412639D01*
X158283266Y-133619616D01*
X158399987Y-133810088D01*
X158546250Y-133978938D01*
X158718126Y-134121632D01*
X158788595Y-134162811D01*
X158791445Y-134164476D01*
X158840169Y-134216114D01*
X158853240Y-134285897D01*
X158826509Y-134351669D01*
X158786055Y-134385027D01*
X158773607Y-134391507D01*
X158769474Y-134394610D01*
X158769471Y-134394612D01*
X158745247Y-134412800D01*
X158594965Y-134525635D01*
X158440629Y-134687138D01*
X158314743Y-134871680D01*
X158220688Y-135074305D01*
X158160989Y-135289570D01*
X158137251Y-135511695D01*
X158137548Y-135516848D01*
X158137548Y-135516851D01*
X158143011Y-135611590D01*
X158150110Y-135734715D01*
X158151247Y-135739761D01*
X158151248Y-135739767D01*
X158171119Y-135827939D01*
X158199222Y-135952639D01*
X158283266Y-136159616D01*
X158399987Y-136350088D01*
X158546250Y-136518938D01*
X158718126Y-136661632D01*
X158788595Y-136702811D01*
X158791445Y-136704476D01*
X158840169Y-136756114D01*
X158853240Y-136825897D01*
X158826509Y-136891669D01*
X158786055Y-136925027D01*
X158773607Y-136931507D01*
X158769474Y-136934610D01*
X158769471Y-136934612D01*
X158745247Y-136952800D01*
X158594965Y-137065635D01*
X158440629Y-137227138D01*
X158314743Y-137411680D01*
X158220688Y-137614305D01*
X158160989Y-137829570D01*
X158137251Y-138051695D01*
X155066393Y-138051695D01*
X155066393Y-127652885D01*
X158142000Y-127652885D01*
X158146475Y-127668124D01*
X158147865Y-127669329D01*
X158155548Y-127671000D01*
X159227885Y-127671000D01*
X159243124Y-127666525D01*
X159244329Y-127665135D01*
X159246000Y-127657452D01*
X159246000Y-127652885D01*
X159754000Y-127652885D01*
X159758475Y-127668124D01*
X159759865Y-127669329D01*
X159767548Y-127671000D01*
X160839884Y-127671000D01*
X160855123Y-127666525D01*
X160856328Y-127665135D01*
X160857999Y-127657452D01*
X160857999Y-127030331D01*
X160857629Y-127023510D01*
X160852105Y-126972648D01*
X160848479Y-126957396D01*
X160803324Y-126836946D01*
X160794786Y-126821351D01*
X160718285Y-126719276D01*
X160705724Y-126706715D01*
X160603649Y-126630214D01*
X160588054Y-126621676D01*
X160467606Y-126576522D01*
X160452351Y-126572895D01*
X160401486Y-126567369D01*
X160394672Y-126567000D01*
X159772115Y-126567000D01*
X159756876Y-126571475D01*
X159755671Y-126572865D01*
X159754000Y-126580548D01*
X159754000Y-127652885D01*
X159246000Y-127652885D01*
X159246000Y-126585116D01*
X159241525Y-126569877D01*
X159240135Y-126568672D01*
X159232452Y-126567001D01*
X158605331Y-126567001D01*
X158598510Y-126567371D01*
X158547648Y-126572895D01*
X158532396Y-126576521D01*
X158411946Y-126621676D01*
X158396351Y-126630214D01*
X158294276Y-126706715D01*
X158281715Y-126719276D01*
X158205214Y-126821351D01*
X158196676Y-126836946D01*
X158151522Y-126957394D01*
X158147895Y-126972649D01*
X158142369Y-127023514D01*
X158142000Y-127030328D01*
X158142000Y-127652885D01*
X155066393Y-127652885D01*
X155066393Y-122750000D01*
X155586496Y-122750000D01*
X155606458Y-122939928D01*
X155665473Y-123121556D01*
X155760960Y-123286944D01*
X155888747Y-123428866D01*
X156043248Y-123541118D01*
X156049276Y-123543802D01*
X156049278Y-123543803D01*
X156211681Y-123616109D01*
X156217712Y-123618794D01*
X156311112Y-123638647D01*
X156398056Y-123657128D01*
X156398061Y-123657128D01*
X156404513Y-123658500D01*
X156595487Y-123658500D01*
X156601939Y-123657128D01*
X156601944Y-123657128D01*
X156688888Y-123638647D01*
X156782288Y-123618794D01*
X156788319Y-123616109D01*
X156950722Y-123543803D01*
X156950724Y-123543802D01*
X156956752Y-123541118D01*
X157111253Y-123428866D01*
X157239040Y-123286944D01*
X157334527Y-123121556D01*
X157393542Y-122939928D01*
X157413504Y-122750000D01*
X157393542Y-122560072D01*
X157334527Y-122378444D01*
X157239040Y-122213056D01*
X157111253Y-122071134D01*
X156956752Y-121958882D01*
X156950724Y-121956198D01*
X156950722Y-121956197D01*
X156788319Y-121883891D01*
X156788318Y-121883891D01*
X156782288Y-121881206D01*
X156688888Y-121861353D01*
X156601944Y-121842872D01*
X156601939Y-121842872D01*
X156595487Y-121841500D01*
X156404513Y-121841500D01*
X156398061Y-121842872D01*
X156398056Y-121842872D01*
X156311112Y-121861353D01*
X156217712Y-121881206D01*
X156211682Y-121883891D01*
X156211681Y-121883891D01*
X156049278Y-121956197D01*
X156049276Y-121956198D01*
X156043248Y-121958882D01*
X155888747Y-122071134D01*
X155760960Y-122213056D01*
X155665473Y-122378444D01*
X155606458Y-122560072D01*
X155586496Y-122750000D01*
X155066393Y-122750000D01*
X155066393Y-120343750D01*
X160430246Y-120343750D01*
X160450208Y-120533678D01*
X160509223Y-120715306D01*
X160604710Y-120880694D01*
X160732497Y-121022616D01*
X160886998Y-121134868D01*
X160893026Y-121137552D01*
X160893028Y-121137553D01*
X161055431Y-121209859D01*
X161061462Y-121212544D01*
X161154862Y-121232397D01*
X161241806Y-121250878D01*
X161241811Y-121250878D01*
X161248263Y-121252250D01*
X161439237Y-121252250D01*
X161445689Y-121250878D01*
X161445694Y-121250878D01*
X161532638Y-121232397D01*
X161626038Y-121212544D01*
X161632069Y-121209859D01*
X161794472Y-121137553D01*
X161794474Y-121137552D01*
X161800502Y-121134868D01*
X161955003Y-121022616D01*
X162082790Y-120880694D01*
X162178277Y-120715306D01*
X162237292Y-120533678D01*
X162257254Y-120343750D01*
X162238866Y-120168794D01*
X162237982Y-120160385D01*
X162237982Y-120160383D01*
X162237292Y-120153822D01*
X162178277Y-119972194D01*
X162082790Y-119806806D01*
X161966164Y-119677279D01*
X161959425Y-119669795D01*
X161959424Y-119669794D01*
X161955003Y-119664884D01*
X161800502Y-119552632D01*
X161794474Y-119549948D01*
X161794472Y-119549947D01*
X161632069Y-119477641D01*
X161632068Y-119477641D01*
X161626038Y-119474956D01*
X161532637Y-119455103D01*
X161445694Y-119436622D01*
X161445689Y-119436622D01*
X161439237Y-119435250D01*
X161248263Y-119435250D01*
X161241811Y-119436622D01*
X161241806Y-119436622D01*
X161154863Y-119455103D01*
X161061462Y-119474956D01*
X161055432Y-119477641D01*
X161055431Y-119477641D01*
X160893028Y-119549947D01*
X160893026Y-119549948D01*
X160886998Y-119552632D01*
X160732497Y-119664884D01*
X160728076Y-119669794D01*
X160728075Y-119669795D01*
X160721337Y-119677279D01*
X160604710Y-119806806D01*
X160509223Y-119972194D01*
X160450208Y-120153822D01*
X160449518Y-120160383D01*
X160449518Y-120160385D01*
X160448634Y-120168794D01*
X160430246Y-120343750D01*
X155066393Y-120343750D01*
X155066393Y-119300000D01*
X156286496Y-119300000D01*
X156287186Y-119306565D01*
X156305167Y-119477641D01*
X156306458Y-119489928D01*
X156365473Y-119671556D01*
X156460960Y-119836944D01*
X156465378Y-119841851D01*
X156465379Y-119841852D01*
X156584325Y-119973955D01*
X156588747Y-119978866D01*
X156743248Y-120091118D01*
X156749276Y-120093802D01*
X156749278Y-120093803D01*
X156869983Y-120147544D01*
X156917712Y-120168794D01*
X157011112Y-120188647D01*
X157098056Y-120207128D01*
X157098061Y-120207128D01*
X157104513Y-120208500D01*
X157295487Y-120208500D01*
X157301939Y-120207128D01*
X157301944Y-120207128D01*
X157388888Y-120188647D01*
X157482288Y-120168794D01*
X157530017Y-120147544D01*
X157650722Y-120093803D01*
X157650724Y-120093802D01*
X157656752Y-120091118D01*
X157811253Y-119978866D01*
X157815675Y-119973955D01*
X157934621Y-119841852D01*
X157934622Y-119841851D01*
X157939040Y-119836944D01*
X158034527Y-119671556D01*
X158093542Y-119489928D01*
X158094834Y-119477641D01*
X158112814Y-119306565D01*
X158113504Y-119300000D01*
X158093542Y-119110072D01*
X158034527Y-118928444D01*
X157939040Y-118763056D01*
X157811253Y-118621134D01*
X157656752Y-118508882D01*
X157650724Y-118506198D01*
X157650722Y-118506197D01*
X157488319Y-118433891D01*
X157488318Y-118433891D01*
X157482288Y-118431206D01*
X157388887Y-118411353D01*
X157301944Y-118392872D01*
X157301939Y-118392872D01*
X157295487Y-118391500D01*
X157104513Y-118391500D01*
X157098061Y-118392872D01*
X157098056Y-118392872D01*
X157011113Y-118411353D01*
X156917712Y-118431206D01*
X156911682Y-118433891D01*
X156911681Y-118433891D01*
X156749278Y-118506197D01*
X156749276Y-118506198D01*
X156743248Y-118508882D01*
X156588747Y-118621134D01*
X156460960Y-118763056D01*
X156365473Y-118928444D01*
X156306458Y-119110072D01*
X156286496Y-119300000D01*
X155066393Y-119300000D01*
X155066393Y-100641858D01*
X155469950Y-100641858D01*
X155483634Y-101033720D01*
X155535492Y-101422377D01*
X155625029Y-101804118D01*
X155751389Y-102175300D01*
X155913368Y-102532380D01*
X156109418Y-102871949D01*
X156111207Y-102874447D01*
X156111209Y-102874451D01*
X156210940Y-103013753D01*
X156337669Y-103190767D01*
X156595942Y-103485789D01*
X156881771Y-103754201D01*
X157192429Y-103993439D01*
X157195032Y-103995066D01*
X157195037Y-103995069D01*
X157314469Y-104069698D01*
X157524949Y-104201221D01*
X157876159Y-104375563D01*
X158242705Y-104514800D01*
X158621088Y-104617605D01*
X158919312Y-104668046D01*
X159004676Y-104682484D01*
X159004679Y-104682484D01*
X159007698Y-104682995D01*
X159162337Y-104693809D01*
X159395778Y-104710133D01*
X159395786Y-104710133D01*
X159398844Y-104710347D01*
X159650930Y-104703306D01*
X159787718Y-104699485D01*
X159787721Y-104699485D01*
X159790792Y-104699399D01*
X159793845Y-104699013D01*
X159793849Y-104699013D01*
X159935469Y-104681122D01*
X160179801Y-104650255D01*
X160182805Y-104649573D01*
X160182808Y-104649572D01*
X160559162Y-104564067D01*
X160559168Y-104564065D01*
X160562158Y-104563386D01*
X160565077Y-104562415D01*
X160931289Y-104440593D01*
X160931295Y-104440591D01*
X160934213Y-104439620D01*
X161075628Y-104376658D01*
X161289615Y-104281385D01*
X161289621Y-104281382D01*
X161292415Y-104280138D01*
X161295084Y-104278622D01*
X161630677Y-104087979D01*
X161630683Y-104087976D01*
X161633345Y-104086463D01*
X161953748Y-103860443D01*
X162250567Y-103604237D01*
X162520967Y-103320288D01*
X162762368Y-103011308D01*
X162972467Y-102680247D01*
X163149256Y-102330263D01*
X163209362Y-102175300D01*
X163289934Y-101967574D01*
X163289937Y-101967565D01*
X163291049Y-101964698D01*
X163396493Y-101587041D01*
X163464581Y-101200897D01*
X163494662Y-100809952D01*
X163496227Y-100697893D01*
X163493487Y-100641858D01*
X163477223Y-100309333D01*
X163477073Y-100306260D01*
X163419794Y-99918366D01*
X163374174Y-99735393D01*
X164351103Y-99735393D01*
X164351793Y-99741958D01*
X164370019Y-99915365D01*
X164371065Y-99925321D01*
X164430080Y-100106949D01*
X164525567Y-100272337D01*
X164653354Y-100414259D01*
X164807855Y-100526511D01*
X164813883Y-100529195D01*
X164813885Y-100529196D01*
X164976288Y-100601502D01*
X164982319Y-100604187D01*
X165075719Y-100624040D01*
X165162663Y-100642521D01*
X165162668Y-100642521D01*
X165169120Y-100643893D01*
X165360094Y-100643893D01*
X165366546Y-100642521D01*
X165366551Y-100642521D01*
X165369670Y-100641858D01*
X260119950Y-100641858D01*
X260133634Y-101033720D01*
X260185492Y-101422377D01*
X260275029Y-101804118D01*
X260401389Y-102175300D01*
X260563368Y-102532380D01*
X260759418Y-102871949D01*
X260761207Y-102874447D01*
X260761209Y-102874451D01*
X260860940Y-103013753D01*
X260987669Y-103190767D01*
X261245942Y-103485789D01*
X261531771Y-103754201D01*
X261842429Y-103993439D01*
X261845032Y-103995066D01*
X261845037Y-103995069D01*
X261964469Y-104069698D01*
X262174949Y-104201221D01*
X262526159Y-104375563D01*
X262892705Y-104514800D01*
X263271088Y-104617605D01*
X263569312Y-104668046D01*
X263654676Y-104682484D01*
X263654679Y-104682484D01*
X263657698Y-104682995D01*
X263812337Y-104693809D01*
X264045778Y-104710133D01*
X264045786Y-104710133D01*
X264048844Y-104710347D01*
X264300930Y-104703306D01*
X264437718Y-104699485D01*
X264437721Y-104699485D01*
X264440792Y-104699399D01*
X264443845Y-104699013D01*
X264443849Y-104699013D01*
X264585469Y-104681122D01*
X264829801Y-104650255D01*
X264832805Y-104649573D01*
X264832808Y-104649572D01*
X265209162Y-104564067D01*
X265209168Y-104564065D01*
X265212158Y-104563386D01*
X265215077Y-104562415D01*
X265581289Y-104440593D01*
X265581295Y-104440591D01*
X265584213Y-104439620D01*
X265725628Y-104376658D01*
X265939615Y-104281385D01*
X265939621Y-104281382D01*
X265942415Y-104280138D01*
X265945084Y-104278622D01*
X266280677Y-104087979D01*
X266280683Y-104087976D01*
X266283345Y-104086463D01*
X266603748Y-103860443D01*
X266900567Y-103604237D01*
X267170967Y-103320288D01*
X267412368Y-103011308D01*
X267622467Y-102680247D01*
X267799256Y-102330263D01*
X267859362Y-102175300D01*
X267939934Y-101967574D01*
X267939937Y-101967565D01*
X267941049Y-101964698D01*
X268046493Y-101587041D01*
X268114581Y-101200897D01*
X268144662Y-100809952D01*
X268146227Y-100697893D01*
X268143487Y-100641858D01*
X268127223Y-100309333D01*
X268127073Y-100306260D01*
X268069794Y-99918366D01*
X267974936Y-99537912D01*
X267843405Y-99168530D01*
X267676457Y-98813747D01*
X267674890Y-98811118D01*
X267674885Y-98811109D01*
X267477254Y-98479582D01*
X267475684Y-98476948D01*
X267473870Y-98474488D01*
X267473865Y-98474480D01*
X267244826Y-98163819D01*
X267244824Y-98163816D01*
X267243004Y-98161348D01*
X266980637Y-97869961D01*
X266691088Y-97605566D01*
X266377121Y-97370688D01*
X266328908Y-97341489D01*
X266044360Y-97169160D01*
X266044351Y-97169155D01*
X266041732Y-97167569D01*
X265688122Y-96998148D01*
X265685232Y-96997096D01*
X265685227Y-96997094D01*
X265322567Y-96865097D01*
X265322564Y-96865096D01*
X265319668Y-96864042D01*
X264964653Y-96772889D01*
X264942870Y-96767296D01*
X264942867Y-96767295D01*
X264939886Y-96766530D01*
X264552401Y-96706544D01*
X264160911Y-96684657D01*
X264157832Y-96684786D01*
X264157829Y-96684786D01*
X263902081Y-96695505D01*
X263769154Y-96701076D01*
X263766110Y-96701504D01*
X263766108Y-96701504D01*
X263555671Y-96731079D01*
X263380869Y-96755646D01*
X262999762Y-96847846D01*
X262629472Y-96976795D01*
X262273531Y-97141262D01*
X261935339Y-97339678D01*
X261775337Y-97455926D01*
X261620604Y-97568346D01*
X261620598Y-97568351D01*
X261618123Y-97570149D01*
X261615837Y-97572178D01*
X261615834Y-97572181D01*
X261536016Y-97643047D01*
X261324910Y-97830476D01*
X261322831Y-97832721D01*
X261322824Y-97832728D01*
X261060587Y-98115919D01*
X261058501Y-98118172D01*
X260821437Y-98430492D01*
X260615982Y-98764455D01*
X260444096Y-99116873D01*
X260443024Y-99119757D01*
X260443023Y-99119758D01*
X260411632Y-99204167D01*
X260307420Y-99484382D01*
X260207260Y-99863474D01*
X260144570Y-100250531D01*
X260144376Y-100253611D01*
X260144376Y-100253613D01*
X260140871Y-100309333D01*
X260119950Y-100641858D01*
X165369670Y-100641858D01*
X165453495Y-100624040D01*
X165546895Y-100604187D01*
X165552926Y-100601502D01*
X165715329Y-100529196D01*
X165715331Y-100529195D01*
X165721359Y-100526511D01*
X165875860Y-100414259D01*
X166003647Y-100272337D01*
X166099134Y-100106949D01*
X166158149Y-99925321D01*
X166159196Y-99915365D01*
X166177421Y-99741958D01*
X166178111Y-99735393D01*
X166158149Y-99545465D01*
X166099134Y-99363837D01*
X166003647Y-99198449D01*
X165932794Y-99119758D01*
X165880282Y-99061438D01*
X165880281Y-99061437D01*
X165875860Y-99056527D01*
X165721359Y-98944275D01*
X165715331Y-98941591D01*
X165715329Y-98941590D01*
X165552926Y-98869284D01*
X165552925Y-98869284D01*
X165546895Y-98866599D01*
X165453494Y-98846746D01*
X165366551Y-98828265D01*
X165366546Y-98828265D01*
X165360094Y-98826893D01*
X165169120Y-98826893D01*
X165162668Y-98828265D01*
X165162663Y-98828265D01*
X165075720Y-98846746D01*
X164982319Y-98866599D01*
X164976289Y-98869284D01*
X164976288Y-98869284D01*
X164813885Y-98941590D01*
X164813883Y-98941591D01*
X164807855Y-98944275D01*
X164653354Y-99056527D01*
X164648933Y-99061437D01*
X164648932Y-99061438D01*
X164596421Y-99119758D01*
X164525567Y-99198449D01*
X164430080Y-99363837D01*
X164371065Y-99545465D01*
X164351103Y-99735393D01*
X163374174Y-99735393D01*
X163324936Y-99537912D01*
X163193405Y-99168530D01*
X163026457Y-98813747D01*
X163024890Y-98811118D01*
X163024885Y-98811109D01*
X162827254Y-98479582D01*
X162825684Y-98476948D01*
X162823870Y-98474488D01*
X162823865Y-98474480D01*
X162594826Y-98163819D01*
X162594824Y-98163816D01*
X162593004Y-98161348D01*
X162330637Y-97869961D01*
X162041088Y-97605566D01*
X161727121Y-97370688D01*
X161678908Y-97341489D01*
X161394360Y-97169160D01*
X161394351Y-97169155D01*
X161391732Y-97167569D01*
X161038122Y-96998148D01*
X161035232Y-96997096D01*
X161035227Y-96997094D01*
X160672567Y-96865097D01*
X160672564Y-96865096D01*
X160669668Y-96864042D01*
X160314653Y-96772889D01*
X160292870Y-96767296D01*
X160292867Y-96767295D01*
X160289886Y-96766530D01*
X159902401Y-96706544D01*
X159510911Y-96684657D01*
X159507832Y-96684786D01*
X159507829Y-96684786D01*
X159252081Y-96695505D01*
X159119154Y-96701076D01*
X159116110Y-96701504D01*
X159116108Y-96701504D01*
X158905671Y-96731079D01*
X158730869Y-96755646D01*
X158349762Y-96847846D01*
X157979472Y-96976795D01*
X157623531Y-97141262D01*
X157285339Y-97339678D01*
X157125337Y-97455926D01*
X156970604Y-97568346D01*
X156970598Y-97568351D01*
X156968123Y-97570149D01*
X156965837Y-97572178D01*
X156965834Y-97572181D01*
X156886016Y-97643047D01*
X156674910Y-97830476D01*
X156672831Y-97832721D01*
X156672824Y-97832728D01*
X156410587Y-98115919D01*
X156408501Y-98118172D01*
X156171437Y-98430492D01*
X155965982Y-98764455D01*
X155794096Y-99116873D01*
X155793024Y-99119757D01*
X155793023Y-99119758D01*
X155761632Y-99204167D01*
X155657420Y-99484382D01*
X155557260Y-99863474D01*
X155494570Y-100250531D01*
X155494376Y-100253611D01*
X155494376Y-100253613D01*
X155490871Y-100309333D01*
X155469950Y-100641858D01*
X155066393Y-100641858D01*
X155066393Y-96822263D01*
X155067893Y-96802876D01*
X155070203Y-96788043D01*
X155070203Y-96788042D01*
X155071584Y-96779173D01*
X155070405Y-96770153D01*
X155070133Y-96739705D01*
X155070881Y-96733072D01*
X155077128Y-96677630D01*
X155083407Y-96650124D01*
X155110378Y-96573045D01*
X155122620Y-96547624D01*
X155166074Y-96478468D01*
X155183666Y-96456409D01*
X155241409Y-96398666D01*
X155263468Y-96381074D01*
X155332624Y-96337620D01*
X155358037Y-96325381D01*
X155435130Y-96298405D01*
X155462631Y-96292128D01*
X155500368Y-96287876D01*
X155518123Y-96285875D01*
X155533764Y-96286107D01*
X155533776Y-96285093D01*
X155542748Y-96285203D01*
X155551621Y-96286584D01*
X155560522Y-96285420D01*
X155560526Y-96285420D01*
X155583180Y-96282457D01*
X155599518Y-96281393D01*
X268008530Y-96281393D01*
X268027915Y-96282893D01*
G37*
%TD.AperFunction*%
%TD*%
M02*
