%TF.GenerationSoftware,KiCad,Pcbnew,(6.0.7)*%
%TF.CreationDate,2022-11-11T00:25:45-08:00*%
%TF.ProjectId,LED_Board_s_,4c45445f-426f-4617-9264-5f735f2e6b69,rev?*%
%TF.SameCoordinates,Original*%
%TF.FileFunction,Copper,L1,Top*%
%TF.FilePolarity,Positive*%
%FSLAX46Y46*%
G04 Gerber Fmt 4.6, Leading zero omitted, Abs format (unit mm)*
G04 Created by KiCad (PCBNEW (6.0.7)) date 2022-11-11 00:25:45*
%MOMM*%
%LPD*%
G01*
G04 APERTURE LIST*
G04 Aperture macros list*
%AMRoundRect*
0 Rectangle with rounded corners*
0 $1 Rounding radius*
0 $2 $3 $4 $5 $6 $7 $8 $9 X,Y pos of 4 corners*
0 Add a 4 corners polygon primitive as box body*
4,1,4,$2,$3,$4,$5,$6,$7,$8,$9,$2,$3,0*
0 Add four circle primitives for the rounded corners*
1,1,$1+$1,$2,$3*
1,1,$1+$1,$4,$5*
1,1,$1+$1,$6,$7*
1,1,$1+$1,$8,$9*
0 Add four rect primitives between the rounded corners*
20,1,$1+$1,$2,$3,$4,$5,0*
20,1,$1+$1,$4,$5,$6,$7,0*
20,1,$1+$1,$6,$7,$8,$9,0*
20,1,$1+$1,$8,$9,$2,$3,0*%
G04 Aperture macros list end*
%TA.AperFunction,SMDPad,CuDef*%
%ADD10R,0.800000X0.500000*%
%TD*%
%TA.AperFunction,SMDPad,CuDef*%
%ADD11R,0.500000X1.000000*%
%TD*%
%TA.AperFunction,SMDPad,CuDef*%
%ADD12R,0.800000X0.300000*%
%TD*%
%TA.AperFunction,SMDPad,CuDef*%
%ADD13R,0.500000X1.480000*%
%TD*%
%TA.AperFunction,SMDPad,CuDef*%
%ADD14RoundRect,0.250000X-0.400000X-0.625000X0.400000X-0.625000X0.400000X0.625000X-0.400000X0.625000X0*%
%TD*%
%TA.AperFunction,SMDPad,CuDef*%
%ADD15C,0.500000*%
%TD*%
%TA.AperFunction,ComponentPad*%
%ADD16C,0.800000*%
%TD*%
%TA.AperFunction,ComponentPad*%
%ADD17C,7.000000*%
%TD*%
%TA.AperFunction,SMDPad,CuDef*%
%ADD18RoundRect,0.150000X-0.512500X-0.150000X0.512500X-0.150000X0.512500X0.150000X-0.512500X0.150000X0*%
%TD*%
%TA.AperFunction,ComponentPad*%
%ADD19R,1.700000X1.700000*%
%TD*%
%TA.AperFunction,ComponentPad*%
%ADD20O,1.700000X1.700000*%
%TD*%
%TA.AperFunction,ViaPad*%
%ADD21C,0.800000*%
%TD*%
%TA.AperFunction,Conductor*%
%ADD22C,0.200000*%
%TD*%
%TA.AperFunction,Conductor*%
%ADD23C,0.500000*%
%TD*%
%TA.AperFunction,Conductor*%
%ADD24C,0.250000*%
%TD*%
G04 APERTURE END LIST*
D10*
%TO.P,D32,1,VDD*%
%TO.N,+5VD*%
X237147893Y-147360393D03*
D11*
X237997893Y-147430393D03*
D12*
%TO.P,D32,2,CKO*%
%TO.N,Net-(D32-Pad2)*%
X237147893Y-148260393D03*
D10*
%TO.P,D32,3,SDO*%
%TO.N,Net-(D32-Pad3)*%
X237147893Y-149160393D03*
%TO.P,D32,4,SDI*%
%TO.N,Net-(D31-Pad3)*%
X238847893Y-149160393D03*
D12*
%TO.P,D32,5,CKI*%
%TO.N,Net-(D31-Pad2)*%
X238847893Y-148260393D03*
D13*
%TO.P,D32,6,GND*%
%TO.N,GND*%
X237997893Y-148850393D03*
D10*
X238847893Y-147360393D03*
%TD*%
D14*
%TO.P,R2,1*%
%TO.N,/CKI_M*%
X157700000Y-143250000D03*
%TO.P,R2,2*%
%TO.N,+5VD*%
X160800000Y-143250000D03*
%TD*%
D11*
%TO.P,D44,1,VDD*%
%TO.N,+5VD*%
X237997893Y-166480393D03*
D10*
X237147893Y-166410393D03*
D12*
%TO.P,D44,2,CKO*%
%TO.N,Net-(D44-Pad2)*%
X237147893Y-167310393D03*
D10*
%TO.P,D44,3,SDO*%
%TO.N,Net-(D44-Pad3)*%
X237147893Y-168210393D03*
%TO.P,D44,4,SDI*%
%TO.N,Net-(D43-Pad3)*%
X238847893Y-168210393D03*
D12*
%TO.P,D44,5,CKI*%
%TO.N,Net-(D43-Pad2)*%
X238847893Y-167310393D03*
D10*
%TO.P,D44,6,GND*%
%TO.N,GND*%
X238847893Y-166410393D03*
D13*
X237997893Y-167900393D03*
%TD*%
D11*
%TO.P,D15,1,VDD*%
%TO.N,+5VD*%
X203077893Y-120515393D03*
D10*
X203927893Y-120585393D03*
D12*
%TO.P,D15,2,CKO*%
%TO.N,Net-(D15-Pad2)*%
X203927893Y-119685393D03*
D10*
%TO.P,D15,3,SDO*%
%TO.N,Net-(D15-Pad3)*%
X203927893Y-118785393D03*
%TO.P,D15,4,SDI*%
%TO.N,Net-(D14-Pad3)*%
X202227893Y-118785393D03*
D12*
%TO.P,D15,5,CKI*%
%TO.N,Net-(D14-Pad2)*%
X202227893Y-119685393D03*
D10*
%TO.P,D15,6,GND*%
%TO.N,GND*%
X202227893Y-120585393D03*
D13*
X203077893Y-119095393D03*
%TD*%
D14*
%TO.P,R4,1*%
%TO.N,/SDI_M*%
X157700000Y-148500000D03*
%TO.P,R4,2*%
%TO.N,+5VD*%
X160800000Y-148500000D03*
%TD*%
D10*
%TO.P,D10,1,VDD*%
%TO.N,+5VD*%
X202227893Y-109260393D03*
D11*
X203077893Y-109330393D03*
D12*
%TO.P,D10,2,CKO*%
%TO.N,Net-(D10-Pad2)*%
X202227893Y-110160393D03*
D10*
%TO.P,D10,3,SDO*%
%TO.N,Net-(D10-Pad3)*%
X202227893Y-111060393D03*
%TO.P,D10,4,SDI*%
%TO.N,Net-(D10-Pad4)*%
X203927893Y-111060393D03*
D12*
%TO.P,D10,5,CKI*%
%TO.N,Net-(D10-Pad5)*%
X203927893Y-110160393D03*
D13*
%TO.P,D10,6,GND*%
%TO.N,GND*%
X203077893Y-110750393D03*
D10*
X203927893Y-109260393D03*
%TD*%
%TO.P,D13,1,VDD*%
%TO.N,+5VD*%
X169007893Y-120585393D03*
D11*
X168157893Y-120515393D03*
D12*
%TO.P,D13,2,CKO*%
%TO.N,Net-(D13-Pad2)*%
X169007893Y-119685393D03*
D10*
%TO.P,D13,3,SDO*%
%TO.N,Net-(D13-Pad3)*%
X169007893Y-118785393D03*
%TO.P,D13,4,SDI*%
%TO.N,Net-(D12-Pad3)*%
X167307893Y-118785393D03*
D12*
%TO.P,D13,5,CKI*%
%TO.N,Net-(D12-Pad2)*%
X167307893Y-119685393D03*
D10*
%TO.P,D13,6,GND*%
%TO.N,GND*%
X167307893Y-120585393D03*
D13*
X168157893Y-119095393D03*
%TD*%
D11*
%TO.P,D33,1,VDD*%
%TO.N,+5VD*%
X220537893Y-147430393D03*
D10*
X219687893Y-147360393D03*
D12*
%TO.P,D33,2,CKO*%
%TO.N,Net-(D33-Pad2)*%
X219687893Y-148260393D03*
D10*
%TO.P,D33,3,SDO*%
%TO.N,Net-(D33-Pad3)*%
X219687893Y-149160393D03*
%TO.P,D33,4,SDI*%
%TO.N,Net-(D32-Pad3)*%
X221387893Y-149160393D03*
D12*
%TO.P,D33,5,CKI*%
%TO.N,Net-(D32-Pad2)*%
X221387893Y-148260393D03*
D13*
%TO.P,D33,6,GND*%
%TO.N,GND*%
X220537893Y-148850393D03*
D10*
X221387893Y-147360393D03*
%TD*%
D11*
%TO.P,D20,1,VDD*%
%TO.N,+5VD*%
X237997893Y-128380393D03*
D10*
X237147893Y-128310393D03*
D12*
%TO.P,D20,2,CKO*%
%TO.N,Net-(D20-Pad2)*%
X237147893Y-129210393D03*
D10*
%TO.P,D20,3,SDO*%
%TO.N,Net-(D20-Pad3)*%
X237147893Y-130110393D03*
%TO.P,D20,4,SDI*%
%TO.N,Net-(D19-Pad3)*%
X238847893Y-130110393D03*
D12*
%TO.P,D20,5,CKI*%
%TO.N,Net-(D19-Pad2)*%
X238847893Y-129210393D03*
D10*
%TO.P,D20,6,GND*%
%TO.N,GND*%
X238847893Y-128310393D03*
D13*
X237997893Y-129800393D03*
%TD*%
D10*
%TO.P,D48,1,VDD*%
%TO.N,+5VD*%
X167307893Y-166410393D03*
D11*
X168157893Y-166480393D03*
D12*
%TO.P,D48,2,CKO*%
%TO.N,unconnected-(D48-Pad2)*%
X167307893Y-167310393D03*
D10*
%TO.P,D48,3,SDO*%
%TO.N,unconnected-(D48-Pad3)*%
X167307893Y-168210393D03*
%TO.P,D48,4,SDI*%
%TO.N,Net-(D47-Pad3)*%
X169007893Y-168210393D03*
D12*
%TO.P,D48,5,CKI*%
%TO.N,Net-(D47-Pad2)*%
X169007893Y-167310393D03*
D13*
%TO.P,D48,6,GND*%
%TO.N,GND*%
X168157893Y-167900393D03*
D10*
X169007893Y-166410393D03*
%TD*%
D15*
%TO.P,FID2,*%
%TO.N,*%
X265250000Y-159250000D03*
%TD*%
D10*
%TO.P,D17,1,VDD*%
%TO.N,+5VD*%
X238847893Y-120585393D03*
D11*
X237997893Y-120515393D03*
D12*
%TO.P,D17,2,CKO*%
%TO.N,Net-(D17-Pad2)*%
X238847893Y-119685393D03*
D10*
%TO.P,D17,3,SDO*%
%TO.N,Net-(D17-Pad3)*%
X238847893Y-118785393D03*
%TO.P,D17,4,SDI*%
%TO.N,Net-(D16-Pad3)*%
X237147893Y-118785393D03*
D12*
%TO.P,D17,5,CKI*%
%TO.N,Net-(D16-Pad2)*%
X237147893Y-119685393D03*
D13*
%TO.P,D17,6,GND*%
%TO.N,GND*%
X237997893Y-119095393D03*
D10*
X237147893Y-120585393D03*
%TD*%
%TO.P,D46,1,VDD*%
%TO.N,+5VD*%
X202227893Y-166410393D03*
D11*
X203077893Y-166480393D03*
D12*
%TO.P,D46,2,CKO*%
%TO.N,Net-(D46-Pad2)*%
X202227893Y-167310393D03*
D10*
%TO.P,D46,3,SDO*%
%TO.N,Net-(D46-Pad3)*%
X202227893Y-168210393D03*
%TO.P,D46,4,SDI*%
%TO.N,Net-(D45-Pad3)*%
X203927893Y-168210393D03*
D12*
%TO.P,D46,5,CKI*%
%TO.N,Net-(D45-Pad2)*%
X203927893Y-167310393D03*
D13*
%TO.P,D46,6,GND*%
%TO.N,GND*%
X203077893Y-167900393D03*
D10*
X203927893Y-166410393D03*
%TD*%
%TO.P,D43,1,VDD*%
%TO.N,+5VD*%
X254607893Y-166410393D03*
D11*
X255457893Y-166480393D03*
D12*
%TO.P,D43,2,CKO*%
%TO.N,Net-(D43-Pad2)*%
X254607893Y-167310393D03*
D10*
%TO.P,D43,3,SDO*%
%TO.N,Net-(D43-Pad3)*%
X254607893Y-168210393D03*
%TO.P,D43,4,SDI*%
%TO.N,Net-(D42-Pad3)*%
X256307893Y-168210393D03*
D12*
%TO.P,D43,5,CKI*%
%TO.N,Net-(D42-Pad2)*%
X256307893Y-167310393D03*
D13*
%TO.P,D43,6,GND*%
%TO.N,GND*%
X255457893Y-167900393D03*
D10*
X256307893Y-166410393D03*
%TD*%
%TO.P,D11,1,VDD*%
%TO.N,+5VD*%
X184767893Y-109260393D03*
D11*
X185617893Y-109330393D03*
D12*
%TO.P,D11,2,CKO*%
%TO.N,Net-(D11-Pad2)*%
X184767893Y-110160393D03*
D10*
%TO.P,D11,3,SDO*%
%TO.N,Net-(D11-Pad3)*%
X184767893Y-111060393D03*
%TO.P,D11,4,SDI*%
%TO.N,Net-(D10-Pad3)*%
X186467893Y-111060393D03*
D12*
%TO.P,D11,5,CKI*%
%TO.N,Net-(D10-Pad2)*%
X186467893Y-110160393D03*
D10*
%TO.P,D11,6,GND*%
%TO.N,GND*%
X186467893Y-109260393D03*
D13*
X185617893Y-110750393D03*
%TD*%
D11*
%TO.P,D40,1,VDD*%
%TO.N,+5VD*%
X220537893Y-158615393D03*
D10*
X221387893Y-158685393D03*
D12*
%TO.P,D40,2,CKO*%
%TO.N,Net-(D40-Pad2)*%
X221387893Y-157785393D03*
D10*
%TO.P,D40,3,SDO*%
%TO.N,Net-(D40-Pad3)*%
X221387893Y-156885393D03*
%TO.P,D40,4,SDI*%
%TO.N,Net-(D39-Pad3)*%
X219687893Y-156885393D03*
D12*
%TO.P,D40,5,CKI*%
%TO.N,Net-(D39-Pad2)*%
X219687893Y-157785393D03*
D10*
%TO.P,D40,6,GND*%
%TO.N,GND*%
X219687893Y-158685393D03*
D13*
X220537893Y-157195393D03*
%TD*%
D10*
%TO.P,D39,1,VDD*%
%TO.N,+5VD*%
X203927893Y-158685393D03*
D11*
X203077893Y-158615393D03*
D12*
%TO.P,D39,2,CKO*%
%TO.N,Net-(D39-Pad2)*%
X203927893Y-157785393D03*
D10*
%TO.P,D39,3,SDO*%
%TO.N,Net-(D39-Pad3)*%
X203927893Y-156885393D03*
%TO.P,D39,4,SDI*%
%TO.N,Net-(D38-Pad3)*%
X202227893Y-156885393D03*
D12*
%TO.P,D39,5,CKI*%
%TO.N,Net-(D38-Pad2)*%
X202227893Y-157785393D03*
D13*
%TO.P,D39,6,GND*%
%TO.N,GND*%
X203077893Y-157195393D03*
D10*
X202227893Y-158685393D03*
%TD*%
%TO.P,D34,1,VDD*%
%TO.N,+5VD*%
X202227893Y-147360393D03*
D11*
X203077893Y-147430393D03*
D12*
%TO.P,D34,2,CKO*%
%TO.N,Net-(D34-Pad2)*%
X202227893Y-148260393D03*
D10*
%TO.P,D34,3,SDO*%
%TO.N,Net-(D34-Pad3)*%
X202227893Y-149160393D03*
%TO.P,D34,4,SDI*%
%TO.N,Net-(D33-Pad3)*%
X203927893Y-149160393D03*
D12*
%TO.P,D34,5,CKI*%
%TO.N,Net-(D33-Pad2)*%
X203927893Y-148260393D03*
D13*
%TO.P,D34,6,GND*%
%TO.N,GND*%
X203077893Y-148850393D03*
D10*
X203927893Y-147360393D03*
%TD*%
D11*
%TO.P,D31,1,VDD*%
%TO.N,+5VD*%
X255457893Y-147430393D03*
D10*
X254607893Y-147360393D03*
D12*
%TO.P,D31,2,CKO*%
%TO.N,Net-(D31-Pad2)*%
X254607893Y-148260393D03*
D10*
%TO.P,D31,3,SDO*%
%TO.N,Net-(D31-Pad3)*%
X254607893Y-149160393D03*
%TO.P,D31,4,SDI*%
%TO.N,Net-(D30-Pad3)*%
X256307893Y-149160393D03*
D12*
%TO.P,D31,5,CKI*%
%TO.N,Net-(D30-Pad2)*%
X256307893Y-148260393D03*
D10*
%TO.P,D31,6,GND*%
%TO.N,GND*%
X256307893Y-147360393D03*
D13*
X255457893Y-148850393D03*
%TD*%
D11*
%TO.P,D21,1,VDD*%
%TO.N,+5VD*%
X220537893Y-128380393D03*
D10*
X219687893Y-128310393D03*
D12*
%TO.P,D21,2,CKO*%
%TO.N,Net-(D21-Pad2)*%
X219687893Y-129210393D03*
D10*
%TO.P,D21,3,SDO*%
%TO.N,Net-(D21-Pad3)*%
X219687893Y-130110393D03*
%TO.P,D21,4,SDI*%
%TO.N,Net-(D20-Pad3)*%
X221387893Y-130110393D03*
D12*
%TO.P,D21,5,CKI*%
%TO.N,Net-(D20-Pad2)*%
X221387893Y-129210393D03*
D10*
%TO.P,D21,6,GND*%
%TO.N,GND*%
X221387893Y-128310393D03*
D13*
X220537893Y-129800393D03*
%TD*%
D11*
%TO.P,D16,1,VDD*%
%TO.N,+5VD*%
X220537893Y-120515393D03*
D10*
X221387893Y-120585393D03*
D12*
%TO.P,D16,2,CKO*%
%TO.N,Net-(D16-Pad2)*%
X221387893Y-119685393D03*
D10*
%TO.P,D16,3,SDO*%
%TO.N,Net-(D16-Pad3)*%
X221387893Y-118785393D03*
%TO.P,D16,4,SDI*%
%TO.N,Net-(D15-Pad3)*%
X219687893Y-118785393D03*
D12*
%TO.P,D16,5,CKI*%
%TO.N,Net-(D15-Pad2)*%
X219687893Y-119685393D03*
D13*
%TO.P,D16,6,GND*%
%TO.N,GND*%
X220537893Y-119095393D03*
D10*
X219687893Y-120585393D03*
%TD*%
D16*
%TO.P,H2,1,1*%
%TO.N,GND*%
X159482893Y-169872893D03*
X159482893Y-164622893D03*
X156857893Y-167247893D03*
D17*
X159482893Y-167247893D03*
D16*
X161339048Y-169104048D03*
X157626738Y-165391738D03*
X157626738Y-169104048D03*
X161339048Y-165391738D03*
X162107893Y-167247893D03*
%TD*%
D11*
%TO.P,D25,1,VDD*%
%TO.N,+5VD*%
X168157893Y-139565393D03*
D10*
X169007893Y-139635393D03*
D12*
%TO.P,D25,2,CKO*%
%TO.N,Net-(D25-Pad2)*%
X169007893Y-138735393D03*
D10*
%TO.P,D25,3,SDO*%
%TO.N,Net-(D25-Pad3)*%
X169007893Y-137835393D03*
%TO.P,D25,4,SDI*%
%TO.N,Net-(D24-Pad3)*%
X167307893Y-137835393D03*
D12*
%TO.P,D25,5,CKI*%
%TO.N,Net-(D24-Pad2)*%
X167307893Y-138735393D03*
D13*
%TO.P,D25,6,GND*%
%TO.N,GND*%
X168157893Y-138145393D03*
D10*
X167307893Y-139635393D03*
%TD*%
%TO.P,D4,1,VDD*%
%TO.N,+5VD*%
X221387893Y-101535393D03*
D11*
X220537893Y-101465393D03*
D12*
%TO.P,D4,2,CKO*%
%TO.N,Net-(D4-Pad2)*%
X221387893Y-100635393D03*
D10*
%TO.P,D4,3,SDO*%
%TO.N,Net-(D4-Pad3)*%
X221387893Y-99735393D03*
%TO.P,D4,4,SDI*%
%TO.N,Net-(D3-Pad3)*%
X219687893Y-99735393D03*
D12*
%TO.P,D4,5,CKI*%
%TO.N,Net-(D3-Pad2)*%
X219687893Y-100635393D03*
D10*
%TO.P,D4,6,GND*%
%TO.N,GND*%
X219687893Y-101535393D03*
D13*
X220537893Y-100045393D03*
%TD*%
D10*
%TO.P,D7,1,VDD*%
%TO.N,+5VD*%
X254607893Y-109260393D03*
D11*
X255457893Y-109330393D03*
D12*
%TO.P,D7,2,CKO*%
%TO.N,Net-(D7-Pad2)*%
X254607893Y-110160393D03*
D10*
%TO.P,D7,3,SDO*%
%TO.N,Net-(D7-Pad3)*%
X254607893Y-111060393D03*
%TO.P,D7,4,SDI*%
%TO.N,Net-(D6-Pad3)*%
X256307893Y-111060393D03*
D12*
%TO.P,D7,5,CKI*%
%TO.N,Net-(D6-Pad2)*%
X256307893Y-110160393D03*
D13*
%TO.P,D7,6,GND*%
%TO.N,GND*%
X255457893Y-110750393D03*
D10*
X256307893Y-109260393D03*
%TD*%
D14*
%TO.P,R3,1*%
%TO.N,/SDI*%
X157200000Y-111750000D03*
%TO.P,R3,2*%
%TO.N,VCC*%
X160300000Y-111750000D03*
%TD*%
D10*
%TO.P,D6,1,VDD*%
%TO.N,+5VD*%
X256307893Y-101535393D03*
D11*
X255457893Y-101465393D03*
D12*
%TO.P,D6,2,CKO*%
%TO.N,Net-(D6-Pad2)*%
X256307893Y-100635393D03*
D10*
%TO.P,D6,3,SDO*%
%TO.N,Net-(D6-Pad3)*%
X256307893Y-99735393D03*
%TO.P,D6,4,SDI*%
%TO.N,Net-(D5-Pad3)*%
X254607893Y-99735393D03*
D12*
%TO.P,D6,5,CKI*%
%TO.N,Net-(D5-Pad2)*%
X254607893Y-100635393D03*
D10*
%TO.P,D6,6,GND*%
%TO.N,GND*%
X254607893Y-101535393D03*
D13*
X255457893Y-100045393D03*
%TD*%
D10*
%TO.P,D1,1,VDD*%
%TO.N,+5VD*%
X169007893Y-101535393D03*
D11*
X168157893Y-101465393D03*
D12*
%TO.P,D1,2,CKO*%
%TO.N,Net-(D1-Pad2)*%
X169007893Y-100635393D03*
D10*
%TO.P,D1,3,SDO*%
%TO.N,Net-(D1-Pad3)*%
X169007893Y-99735393D03*
%TO.P,D1,4,SDI*%
%TO.N,/SDI_M*%
X167307893Y-99735393D03*
D12*
%TO.P,D1,5,CKI*%
%TO.N,/CKI_M*%
X167307893Y-100635393D03*
D13*
%TO.P,D1,6,GND*%
%TO.N,GND*%
X168157893Y-100045393D03*
D10*
X167307893Y-101535393D03*
%TD*%
%TO.P,D29,1,VDD*%
%TO.N,+5VD*%
X238847893Y-139635393D03*
D11*
X237997893Y-139565393D03*
D12*
%TO.P,D29,2,CKO*%
%TO.N,Net-(D29-Pad2)*%
X238847893Y-138735393D03*
D10*
%TO.P,D29,3,SDO*%
%TO.N,Net-(D29-Pad3)*%
X238847893Y-137835393D03*
%TO.P,D29,4,SDI*%
%TO.N,Net-(D28-Pad3)*%
X237147893Y-137835393D03*
D12*
%TO.P,D29,5,CKI*%
%TO.N,Net-(D28-Pad2)*%
X237147893Y-138735393D03*
D10*
%TO.P,D29,6,GND*%
%TO.N,GND*%
X237147893Y-139635393D03*
D13*
X237997893Y-138145393D03*
%TD*%
D10*
%TO.P,D35,1,VDD*%
%TO.N,+5VD*%
X184767893Y-147360393D03*
D11*
X185617893Y-147430393D03*
D12*
%TO.P,D35,2,CKO*%
%TO.N,Net-(D35-Pad2)*%
X184767893Y-148260393D03*
D10*
%TO.P,D35,3,SDO*%
%TO.N,Net-(D35-Pad3)*%
X184767893Y-149160393D03*
%TO.P,D35,4,SDI*%
%TO.N,Net-(D34-Pad3)*%
X186467893Y-149160393D03*
D12*
%TO.P,D35,5,CKI*%
%TO.N,Net-(D34-Pad2)*%
X186467893Y-148260393D03*
D10*
%TO.P,D35,6,GND*%
%TO.N,GND*%
X186467893Y-147360393D03*
D13*
X185617893Y-148850393D03*
%TD*%
D15*
%TO.P,FID1,*%
%TO.N,*%
X157250000Y-107000000D03*
%TD*%
D18*
%TO.P,Q1,1,S*%
%TO.N,/CKI*%
X157862500Y-121550000D03*
%TO.P,Q1,2,G*%
%TO.N,VCC*%
X157862500Y-122500000D03*
%TO.P,Q1,3,D*%
%TO.N,/SDI_M*%
X157862500Y-123450000D03*
%TO.P,Q1,4,S*%
%TO.N,/SDI*%
X160137500Y-123450000D03*
%TO.P,Q1,5,G*%
%TO.N,VCC*%
X160137500Y-122500000D03*
%TO.P,Q1,6,D*%
%TO.N,/CKI_M*%
X160137500Y-121550000D03*
%TD*%
D11*
%TO.P,D36,1,VDD*%
%TO.N,+5VD*%
X168157893Y-147430393D03*
D10*
X167307893Y-147360393D03*
D12*
%TO.P,D36,2,CKO*%
%TO.N,Net-(D36-Pad2)*%
X167307893Y-148260393D03*
D10*
%TO.P,D36,3,SDO*%
%TO.N,Net-(D36-Pad3)*%
X167307893Y-149160393D03*
%TO.P,D36,4,SDI*%
%TO.N,Net-(D35-Pad3)*%
X169007893Y-149160393D03*
D12*
%TO.P,D36,5,CKI*%
%TO.N,Net-(D35-Pad2)*%
X169007893Y-148260393D03*
D10*
%TO.P,D36,6,GND*%
%TO.N,GND*%
X169007893Y-147360393D03*
D13*
X168157893Y-148850393D03*
%TD*%
D10*
%TO.P,D26,1,VDD*%
%TO.N,+5VD*%
X186467893Y-139635393D03*
D11*
X185617893Y-139565393D03*
D12*
%TO.P,D26,2,CKO*%
%TO.N,Net-(D26-Pad2)*%
X186467893Y-138735393D03*
D10*
%TO.P,D26,3,SDO*%
%TO.N,Net-(D26-Pad3)*%
X186467893Y-137835393D03*
%TO.P,D26,4,SDI*%
%TO.N,Net-(D25-Pad3)*%
X184767893Y-137835393D03*
D12*
%TO.P,D26,5,CKI*%
%TO.N,Net-(D25-Pad2)*%
X184767893Y-138735393D03*
D13*
%TO.P,D26,6,GND*%
%TO.N,GND*%
X185617893Y-138145393D03*
D10*
X184767893Y-139635393D03*
%TD*%
%TO.P,D38,1,VDD*%
%TO.N,+5VD*%
X186467893Y-158685393D03*
D11*
X185617893Y-158615393D03*
D12*
%TO.P,D38,2,CKO*%
%TO.N,Net-(D38-Pad2)*%
X186467893Y-157785393D03*
D10*
%TO.P,D38,3,SDO*%
%TO.N,Net-(D38-Pad3)*%
X186467893Y-156885393D03*
%TO.P,D38,4,SDI*%
%TO.N,Net-(D37-Pad3)*%
X184767893Y-156885393D03*
D12*
%TO.P,D38,5,CKI*%
%TO.N,Net-(D37-Pad2)*%
X184767893Y-157785393D03*
D13*
%TO.P,D38,6,GND*%
%TO.N,GND*%
X185617893Y-157195393D03*
D10*
X184767893Y-158685393D03*
%TD*%
D11*
%TO.P,D23,1,VDD*%
%TO.N,+5VD*%
X185617893Y-128380393D03*
D10*
X184767893Y-128310393D03*
D12*
%TO.P,D23,2,CKO*%
%TO.N,Net-(D23-Pad2)*%
X184767893Y-129210393D03*
D10*
%TO.P,D23,3,SDO*%
%TO.N,Net-(D23-Pad3)*%
X184767893Y-130110393D03*
%TO.P,D23,4,SDI*%
%TO.N,Net-(D22-Pad3)*%
X186467893Y-130110393D03*
D12*
%TO.P,D23,5,CKI*%
%TO.N,Net-(D22-Pad2)*%
X186467893Y-129210393D03*
D10*
%TO.P,D23,6,GND*%
%TO.N,GND*%
X186467893Y-128310393D03*
D13*
X185617893Y-129800393D03*
%TD*%
D10*
%TO.P,D8,1,VDD*%
%TO.N,+5VD*%
X237147893Y-109260393D03*
D11*
X237997893Y-109330393D03*
D12*
%TO.P,D8,2,CKO*%
%TO.N,Net-(D8-Pad2)*%
X237147893Y-110160393D03*
D10*
%TO.P,D8,3,SDO*%
%TO.N,Net-(D8-Pad3)*%
X237147893Y-111060393D03*
%TO.P,D8,4,SDI*%
%TO.N,Net-(D7-Pad3)*%
X238847893Y-111060393D03*
D12*
%TO.P,D8,5,CKI*%
%TO.N,Net-(D7-Pad2)*%
X238847893Y-110160393D03*
D10*
%TO.P,D8,6,GND*%
%TO.N,GND*%
X238847893Y-109260393D03*
D13*
X237997893Y-110750393D03*
%TD*%
D10*
%TO.P,D30,1,VDD*%
%TO.N,+5VD*%
X256307893Y-139635393D03*
D11*
X255457893Y-139565393D03*
D12*
%TO.P,D30,2,CKO*%
%TO.N,Net-(D30-Pad2)*%
X256307893Y-138735393D03*
D10*
%TO.P,D30,3,SDO*%
%TO.N,Net-(D30-Pad3)*%
X256307893Y-137835393D03*
%TO.P,D30,4,SDI*%
%TO.N,Net-(D29-Pad3)*%
X254607893Y-137835393D03*
D12*
%TO.P,D30,5,CKI*%
%TO.N,Net-(D29-Pad2)*%
X254607893Y-138735393D03*
D10*
%TO.P,D30,6,GND*%
%TO.N,GND*%
X254607893Y-139635393D03*
D13*
X255457893Y-138145393D03*
%TD*%
D10*
%TO.P,D18,1,VDD*%
%TO.N,+5VD*%
X256307893Y-120585393D03*
D11*
X255457893Y-120515393D03*
D12*
%TO.P,D18,2,CKO*%
%TO.N,Net-(D18-Pad2)*%
X256307893Y-119685393D03*
D10*
%TO.P,D18,3,SDO*%
%TO.N,Net-(D18-Pad3)*%
X256307893Y-118785393D03*
%TO.P,D18,4,SDI*%
%TO.N,Net-(D17-Pad3)*%
X254607893Y-118785393D03*
D12*
%TO.P,D18,5,CKI*%
%TO.N,Net-(D17-Pad2)*%
X254607893Y-119685393D03*
D13*
%TO.P,D18,6,GND*%
%TO.N,GND*%
X255457893Y-119095393D03*
D10*
X254607893Y-120585393D03*
%TD*%
D11*
%TO.P,D2,1,VDD*%
%TO.N,+5VD*%
X185617893Y-101465393D03*
D10*
X186467893Y-101535393D03*
D12*
%TO.P,D2,2,CKO*%
%TO.N,Net-(D2-Pad2)*%
X186467893Y-100635393D03*
D10*
%TO.P,D2,3,SDO*%
%TO.N,Net-(D2-Pad3)*%
X186467893Y-99735393D03*
%TO.P,D2,4,SDI*%
%TO.N,Net-(D1-Pad3)*%
X184767893Y-99735393D03*
D12*
%TO.P,D2,5,CKI*%
%TO.N,Net-(D1-Pad2)*%
X184767893Y-100635393D03*
D10*
%TO.P,D2,6,GND*%
%TO.N,GND*%
X184767893Y-101535393D03*
D13*
X185617893Y-100045393D03*
%TD*%
D11*
%TO.P,D19,1,VDD*%
%TO.N,+5VD*%
X255457893Y-128380393D03*
D10*
X254607893Y-128310393D03*
D12*
%TO.P,D19,2,CKO*%
%TO.N,Net-(D19-Pad2)*%
X254607893Y-129210393D03*
D10*
%TO.P,D19,3,SDO*%
%TO.N,Net-(D19-Pad3)*%
X254607893Y-130110393D03*
%TO.P,D19,4,SDI*%
%TO.N,Net-(D18-Pad3)*%
X256307893Y-130110393D03*
D12*
%TO.P,D19,5,CKI*%
%TO.N,Net-(D18-Pad2)*%
X256307893Y-129210393D03*
D10*
%TO.P,D19,6,GND*%
%TO.N,GND*%
X256307893Y-128310393D03*
D13*
X255457893Y-129800393D03*
%TD*%
D17*
%TO.P,H3,1*%
%TO.N,N/C*%
X264132893Y-100697893D03*
%TD*%
D10*
%TO.P,D28,1,VDD*%
%TO.N,+5VD*%
X221387893Y-139635393D03*
D11*
X220537893Y-139565393D03*
D12*
%TO.P,D28,2,CKO*%
%TO.N,Net-(D28-Pad2)*%
X221387893Y-138735393D03*
D10*
%TO.P,D28,3,SDO*%
%TO.N,Net-(D28-Pad3)*%
X221387893Y-137835393D03*
%TO.P,D28,4,SDI*%
%TO.N,Net-(D27-Pad3)*%
X219687893Y-137835393D03*
D12*
%TO.P,D28,5,CKI*%
%TO.N,Net-(D27-Pad2)*%
X219687893Y-138735393D03*
D10*
%TO.P,D28,6,GND*%
%TO.N,GND*%
X219687893Y-139635393D03*
D13*
X220537893Y-138145393D03*
%TD*%
D11*
%TO.P,D12,1,VDD*%
%TO.N,+5VD*%
X168157893Y-109330393D03*
D10*
X167307893Y-109260393D03*
D12*
%TO.P,D12,2,CKO*%
%TO.N,Net-(D12-Pad2)*%
X167307893Y-110160393D03*
D10*
%TO.P,D12,3,SDO*%
%TO.N,Net-(D12-Pad3)*%
X167307893Y-111060393D03*
%TO.P,D12,4,SDI*%
%TO.N,Net-(D11-Pad3)*%
X169007893Y-111060393D03*
D12*
%TO.P,D12,5,CKI*%
%TO.N,Net-(D11-Pad2)*%
X169007893Y-110160393D03*
D13*
%TO.P,D12,6,GND*%
%TO.N,GND*%
X168157893Y-110750393D03*
D10*
X169007893Y-109260393D03*
%TD*%
%TO.P,D27,1,VDD*%
%TO.N,+5VD*%
X203927893Y-139635393D03*
D11*
X203077893Y-139565393D03*
D12*
%TO.P,D27,2,CKO*%
%TO.N,Net-(D27-Pad2)*%
X203927893Y-138735393D03*
D10*
%TO.P,D27,3,SDO*%
%TO.N,Net-(D27-Pad3)*%
X203927893Y-137835393D03*
%TO.P,D27,4,SDI*%
%TO.N,Net-(D26-Pad3)*%
X202227893Y-137835393D03*
D12*
%TO.P,D27,5,CKI*%
%TO.N,Net-(D26-Pad2)*%
X202227893Y-138735393D03*
D10*
%TO.P,D27,6,GND*%
%TO.N,GND*%
X202227893Y-139635393D03*
D13*
X203077893Y-138145393D03*
%TD*%
D10*
%TO.P,D45,1,VDD*%
%TO.N,+5VD*%
X219687893Y-166410393D03*
D11*
X220537893Y-166480393D03*
D12*
%TO.P,D45,2,CKO*%
%TO.N,Net-(D45-Pad2)*%
X219687893Y-167310393D03*
D10*
%TO.P,D45,3,SDO*%
%TO.N,Net-(D45-Pad3)*%
X219687893Y-168210393D03*
%TO.P,D45,4,SDI*%
%TO.N,Net-(D44-Pad3)*%
X221387893Y-168210393D03*
D12*
%TO.P,D45,5,CKI*%
%TO.N,Net-(D44-Pad2)*%
X221387893Y-167310393D03*
D10*
%TO.P,D45,6,GND*%
%TO.N,GND*%
X221387893Y-166410393D03*
D13*
X220537893Y-167900393D03*
%TD*%
D14*
%TO.P,R1,1*%
%TO.N,/CKI*%
X157200000Y-116750000D03*
%TO.P,R1,2*%
%TO.N,VCC*%
X160300000Y-116750000D03*
%TD*%
D10*
%TO.P,D14,1,VDD*%
%TO.N,+5VD*%
X186467893Y-120585393D03*
D11*
X185617893Y-120515393D03*
D12*
%TO.P,D14,2,CKO*%
%TO.N,Net-(D14-Pad2)*%
X186467893Y-119685393D03*
D10*
%TO.P,D14,3,SDO*%
%TO.N,Net-(D14-Pad3)*%
X186467893Y-118785393D03*
%TO.P,D14,4,SDI*%
%TO.N,Net-(D13-Pad3)*%
X184767893Y-118785393D03*
D12*
%TO.P,D14,5,CKI*%
%TO.N,Net-(D13-Pad2)*%
X184767893Y-119685393D03*
D13*
%TO.P,D14,6,GND*%
%TO.N,GND*%
X185617893Y-119095393D03*
D10*
X184767893Y-120585393D03*
%TD*%
%TO.P,D41,1,VDD*%
%TO.N,+5VD*%
X238847893Y-158685393D03*
D11*
X237997893Y-158615393D03*
D12*
%TO.P,D41,2,CKO*%
%TO.N,Net-(D41-Pad2)*%
X238847893Y-157785393D03*
D10*
%TO.P,D41,3,SDO*%
%TO.N,Net-(D41-Pad3)*%
X238847893Y-156885393D03*
%TO.P,D41,4,SDI*%
%TO.N,Net-(D40-Pad3)*%
X237147893Y-156885393D03*
D12*
%TO.P,D41,5,CKI*%
%TO.N,Net-(D40-Pad2)*%
X237147893Y-157785393D03*
D10*
%TO.P,D41,6,GND*%
%TO.N,GND*%
X237147893Y-158685393D03*
D13*
X237997893Y-157195393D03*
%TD*%
D10*
%TO.P,D47,1,VDD*%
%TO.N,+5VD*%
X184767893Y-166410393D03*
D11*
X185617893Y-166480393D03*
D12*
%TO.P,D47,2,CKO*%
%TO.N,Net-(D47-Pad2)*%
X184767893Y-167310393D03*
D10*
%TO.P,D47,3,SDO*%
%TO.N,Net-(D47-Pad3)*%
X184767893Y-168210393D03*
%TO.P,D47,4,SDI*%
%TO.N,Net-(D46-Pad3)*%
X186467893Y-168210393D03*
D12*
%TO.P,D47,5,CKI*%
%TO.N,Net-(D46-Pad2)*%
X186467893Y-167310393D03*
D13*
%TO.P,D47,6,GND*%
%TO.N,GND*%
X185617893Y-167900393D03*
D10*
X186467893Y-166410393D03*
%TD*%
%TO.P,D24,1,VDD*%
%TO.N,+5VD*%
X167307893Y-128310393D03*
D11*
X168157893Y-128380393D03*
D12*
%TO.P,D24,2,CKO*%
%TO.N,Net-(D24-Pad2)*%
X167307893Y-129210393D03*
D10*
%TO.P,D24,3,SDO*%
%TO.N,Net-(D24-Pad3)*%
X167307893Y-130110393D03*
%TO.P,D24,4,SDI*%
%TO.N,Net-(D23-Pad3)*%
X169007893Y-130110393D03*
D12*
%TO.P,D24,5,CKI*%
%TO.N,Net-(D23-Pad2)*%
X169007893Y-129210393D03*
D10*
%TO.P,D24,6,GND*%
%TO.N,GND*%
X169007893Y-128310393D03*
D13*
X168157893Y-129800393D03*
%TD*%
D11*
%TO.P,D42,1,VDD*%
%TO.N,+5VD*%
X255457893Y-158615393D03*
D10*
X256307893Y-158685393D03*
D12*
%TO.P,D42,2,CKO*%
%TO.N,Net-(D42-Pad2)*%
X256307893Y-157785393D03*
D10*
%TO.P,D42,3,SDO*%
%TO.N,Net-(D42-Pad3)*%
X256307893Y-156885393D03*
%TO.P,D42,4,SDI*%
%TO.N,Net-(D41-Pad3)*%
X254607893Y-156885393D03*
D12*
%TO.P,D42,5,CKI*%
%TO.N,Net-(D41-Pad2)*%
X254607893Y-157785393D03*
D10*
%TO.P,D42,6,GND*%
%TO.N,GND*%
X254607893Y-158685393D03*
D13*
X255457893Y-157195393D03*
%TD*%
D11*
%TO.P,D37,1,VDD*%
%TO.N,+5VD*%
X168157893Y-158615393D03*
D10*
X169007893Y-158685393D03*
D12*
%TO.P,D37,2,CKO*%
%TO.N,Net-(D37-Pad2)*%
X169007893Y-157785393D03*
D10*
%TO.P,D37,3,SDO*%
%TO.N,Net-(D37-Pad3)*%
X169007893Y-156885393D03*
%TO.P,D37,4,SDI*%
%TO.N,Net-(D36-Pad3)*%
X167307893Y-156885393D03*
D12*
%TO.P,D37,5,CKI*%
%TO.N,Net-(D36-Pad2)*%
X167307893Y-157785393D03*
D10*
%TO.P,D37,6,GND*%
%TO.N,GND*%
X167307893Y-158685393D03*
D13*
X168157893Y-157195393D03*
%TD*%
D17*
%TO.P,H4,1*%
%TO.N,N/C*%
X264132893Y-167247893D03*
%TD*%
D10*
%TO.P,D9,1,VDD*%
%TO.N,+5VD*%
X219687893Y-109260393D03*
D11*
X220537893Y-109330393D03*
D12*
%TO.P,D9,2,CKO*%
%TO.N,Net-(D10-Pad5)*%
X219687893Y-110160393D03*
D10*
%TO.P,D9,3,SDO*%
%TO.N,Net-(D10-Pad4)*%
X219687893Y-111060393D03*
%TO.P,D9,4,SDI*%
%TO.N,Net-(D8-Pad3)*%
X221387893Y-111060393D03*
D12*
%TO.P,D9,5,CKI*%
%TO.N,Net-(D8-Pad2)*%
X221387893Y-110160393D03*
D10*
%TO.P,D9,6,GND*%
%TO.N,GND*%
X221387893Y-109260393D03*
D13*
X220537893Y-110750393D03*
%TD*%
D11*
%TO.P,D22,1,VDD*%
%TO.N,+5VD*%
X203077893Y-128380393D03*
D10*
X202227893Y-128310393D03*
D12*
%TO.P,D22,2,CKO*%
%TO.N,Net-(D22-Pad2)*%
X202227893Y-129210393D03*
D10*
%TO.P,D22,3,SDO*%
%TO.N,Net-(D22-Pad3)*%
X202227893Y-130110393D03*
%TO.P,D22,4,SDI*%
%TO.N,Net-(D21-Pad3)*%
X203927893Y-130110393D03*
D12*
%TO.P,D22,5,CKI*%
%TO.N,Net-(D21-Pad2)*%
X203927893Y-129210393D03*
D10*
%TO.P,D22,6,GND*%
%TO.N,GND*%
X203927893Y-128310393D03*
D13*
X203077893Y-129800393D03*
%TD*%
D11*
%TO.P,D3,1,VDD*%
%TO.N,+5VD*%
X203077893Y-101465393D03*
D10*
X203927893Y-101535393D03*
D12*
%TO.P,D3,2,CKO*%
%TO.N,Net-(D3-Pad2)*%
X203927893Y-100635393D03*
D10*
%TO.P,D3,3,SDO*%
%TO.N,Net-(D3-Pad3)*%
X203927893Y-99735393D03*
%TO.P,D3,4,SDI*%
%TO.N,Net-(D2-Pad3)*%
X202227893Y-99735393D03*
D12*
%TO.P,D3,5,CKI*%
%TO.N,Net-(D2-Pad2)*%
X202227893Y-100635393D03*
D10*
%TO.P,D3,6,GND*%
%TO.N,GND*%
X202227893Y-101535393D03*
D13*
X203077893Y-100045393D03*
%TD*%
D11*
%TO.P,D5,1,VDD*%
%TO.N,+5VD*%
X237997893Y-101465393D03*
D10*
X238847893Y-101535393D03*
D12*
%TO.P,D5,2,CKO*%
%TO.N,Net-(D5-Pad2)*%
X238847893Y-100635393D03*
D10*
%TO.P,D5,3,SDO*%
%TO.N,Net-(D5-Pad3)*%
X238847893Y-99735393D03*
%TO.P,D5,4,SDI*%
%TO.N,Net-(D4-Pad3)*%
X237147893Y-99735393D03*
D12*
%TO.P,D5,5,CKI*%
%TO.N,Net-(D4-Pad2)*%
X237147893Y-100635393D03*
D10*
%TO.P,D5,6,GND*%
%TO.N,GND*%
X237147893Y-101535393D03*
D13*
X237997893Y-100045393D03*
%TD*%
D17*
%TO.P,H1,1*%
%TO.N,N/C*%
X159482893Y-100697893D03*
%TD*%
D19*
%TO.P,J1,1,Pin_1*%
%TO.N,GND*%
X159500000Y-127925000D03*
D20*
%TO.P,J1,2,Pin_2*%
%TO.N,/SDI*%
X159500000Y-130465000D03*
%TO.P,J1,3,Pin_3*%
%TO.N,/CKI*%
X159500000Y-133005000D03*
%TO.P,J1,4,Pin_4*%
%TO.N,VCC*%
X159500000Y-135545000D03*
%TO.P,J1,5,Pin_5*%
%TO.N,+5VD*%
X159500000Y-138085000D03*
%TD*%
D21*
%TO.N,/CKI*%
X157200000Y-119300000D03*
%TO.N,GND*%
X190500000Y-151750000D03*
X185500000Y-97750000D03*
X253250000Y-101500000D03*
X197500000Y-151750000D03*
X217500000Y-170250000D03*
X188000000Y-128250000D03*
X258000000Y-170250000D03*
X197250000Y-113500000D03*
X245500000Y-97750000D03*
X200750000Y-139750000D03*
X211250000Y-116500000D03*
X220500000Y-170250000D03*
X236500000Y-135250000D03*
X253000000Y-158750000D03*
X188000000Y-109250000D03*
X218250000Y-101500000D03*
X211500000Y-151750000D03*
X224500000Y-170250000D03*
X240250000Y-128250000D03*
X180500000Y-132250000D03*
X228750000Y-113500000D03*
X191000000Y-135250000D03*
X169250000Y-113500000D03*
X200750000Y-120750000D03*
X205500000Y-166500000D03*
X190500000Y-154750000D03*
X252500000Y-170250000D03*
X187000000Y-154750000D03*
X264500000Y-132250000D03*
X193750000Y-116500000D03*
X218250000Y-158750000D03*
X179000000Y-170250000D03*
X257750000Y-147250000D03*
X250500000Y-132250000D03*
X200750000Y-101500000D03*
X238000000Y-170250000D03*
X188000000Y-147250000D03*
X240000000Y-135250000D03*
X172750000Y-113500000D03*
X170000000Y-135250000D03*
X257500000Y-135250000D03*
X263750000Y-116500000D03*
X236000000Y-151750000D03*
X172000000Y-97750000D03*
X212000000Y-132250000D03*
X223000000Y-128250000D03*
X257000000Y-154750000D03*
X250000000Y-151750000D03*
X242000000Y-170250000D03*
X222500000Y-135250000D03*
X179750000Y-113500000D03*
X264500000Y-135250000D03*
X260250000Y-113500000D03*
X243000000Y-154750000D03*
X250500000Y-135250000D03*
X229000000Y-154750000D03*
X183000000Y-140000000D03*
X207750000Y-113500000D03*
X249000000Y-97750000D03*
X235500000Y-158750000D03*
X217500000Y-97750000D03*
X180000000Y-154750000D03*
X224500000Y-97750000D03*
X180500000Y-135250000D03*
X167000000Y-141000000D03*
X193750000Y-113500000D03*
X236000000Y-154750000D03*
X235750000Y-116500000D03*
X182500000Y-170250000D03*
X218500000Y-151750000D03*
X246250000Y-116500000D03*
X170000000Y-132250000D03*
X223000000Y-166500000D03*
X218500000Y-154750000D03*
X240250000Y-109250000D03*
X200750000Y-158750000D03*
X189500000Y-170250000D03*
X183250000Y-116500000D03*
X205000000Y-135250000D03*
X264000000Y-154750000D03*
X215000000Y-151750000D03*
X243000000Y-151750000D03*
X260500000Y-154750000D03*
X214000000Y-170250000D03*
X184000000Y-132250000D03*
X218250000Y-116500000D03*
X225500000Y-154750000D03*
X200000000Y-170250000D03*
X214750000Y-113500000D03*
X190250000Y-113500000D03*
X207750000Y-116500000D03*
X260500000Y-151750000D03*
X219000000Y-132250000D03*
X247000000Y-132250000D03*
X194500000Y-132250000D03*
X223000000Y-147250000D03*
X240250000Y-147250000D03*
X183250000Y-120750000D03*
X175500000Y-170250000D03*
X229500000Y-132250000D03*
X225250000Y-113500000D03*
X242750000Y-116500000D03*
X183500000Y-101500000D03*
X187500000Y-132250000D03*
X208500000Y-132250000D03*
X254000000Y-132250000D03*
X172750000Y-116500000D03*
X239500000Y-151750000D03*
X253250000Y-113500000D03*
X233000000Y-132250000D03*
X250000000Y-154750000D03*
X211500000Y-154750000D03*
X186750000Y-113500000D03*
X245500000Y-170250000D03*
X226000000Y-132250000D03*
X229000000Y-151750000D03*
X168250000Y-97750000D03*
X186000000Y-170250000D03*
X235750000Y-113500000D03*
X225250000Y-116500000D03*
X196500000Y-97750000D03*
X187000000Y-151750000D03*
X205000000Y-132250000D03*
X233000000Y-135250000D03*
X184000000Y-135250000D03*
X175500000Y-97750000D03*
X196500000Y-170250000D03*
X165000000Y-97750000D03*
X193000000Y-170250000D03*
X240500000Y-166500000D03*
X205500000Y-109250000D03*
X176500000Y-151750000D03*
X257500000Y-132250000D03*
X203250000Y-170250000D03*
X169500000Y-151750000D03*
X193000000Y-97750000D03*
X226000000Y-135250000D03*
X208000000Y-151750000D03*
X183500000Y-151750000D03*
X170750000Y-128000000D03*
X166000000Y-120750000D03*
X246500000Y-151750000D03*
X218000000Y-139750000D03*
X194000000Y-154750000D03*
X228000000Y-170250000D03*
X211250000Y-113500000D03*
X249750000Y-116500000D03*
X204250000Y-113500000D03*
X257500000Y-166250000D03*
X173500000Y-132250000D03*
X215500000Y-132250000D03*
X264000000Y-151750000D03*
X179750000Y-116500000D03*
X246500000Y-154750000D03*
X200000000Y-97750000D03*
X205500000Y-128250000D03*
X177000000Y-132250000D03*
X183250000Y-158750000D03*
X232250000Y-113500000D03*
X240000000Y-132250000D03*
X239500000Y-154750000D03*
X214750000Y-116500000D03*
X200750000Y-116500000D03*
X168500000Y-170250000D03*
X173500000Y-135250000D03*
X180000000Y-151750000D03*
X186750000Y-116500000D03*
X173000000Y-154750000D03*
X208000000Y-154750000D03*
X194500000Y-135250000D03*
X256750000Y-113500000D03*
X242750000Y-113500000D03*
X176250000Y-113500000D03*
X222000000Y-154750000D03*
X207000000Y-97750000D03*
X170500000Y-166500000D03*
X239250000Y-116500000D03*
X260250000Y-116500000D03*
X222500000Y-132250000D03*
X263750000Y-113500000D03*
X215000000Y-154750000D03*
X201500000Y-132250000D03*
X222000000Y-151750000D03*
X221000000Y-97750000D03*
X212000000Y-135250000D03*
X232250000Y-116500000D03*
X232500000Y-154750000D03*
X231500000Y-97750000D03*
X218250000Y-113500000D03*
X210500000Y-170250000D03*
X169250000Y-116500000D03*
X257000000Y-151750000D03*
X238000000Y-97750000D03*
X225500000Y-151750000D03*
X201500000Y-135250000D03*
X207000000Y-170250000D03*
X204500000Y-151750000D03*
X182500000Y-97750000D03*
X204250000Y-116500000D03*
X208500000Y-135250000D03*
X159500000Y-125000000D03*
X253000000Y-120750000D03*
X247000000Y-135250000D03*
X190250000Y-116500000D03*
X222750000Y-109250000D03*
X249750000Y-113500000D03*
X198000000Y-132250000D03*
X255500000Y-170250000D03*
X177000000Y-135250000D03*
X172000000Y-170250000D03*
X210500000Y-97750000D03*
X201000000Y-151750000D03*
X228750000Y-116500000D03*
X249000000Y-170250000D03*
X179000000Y-97750000D03*
X253250000Y-116500000D03*
X191000000Y-132250000D03*
X176500000Y-154750000D03*
X214000000Y-97750000D03*
X236500000Y-132250000D03*
X197500000Y-154750000D03*
X243500000Y-135250000D03*
X228000000Y-97750000D03*
X165000000Y-170250000D03*
X261000000Y-132250000D03*
X235500000Y-139750000D03*
X183500000Y-154750000D03*
X254000000Y-135250000D03*
X215500000Y-135250000D03*
X219000000Y-135250000D03*
X197250000Y-116500000D03*
X188000000Y-166500000D03*
X221750000Y-113500000D03*
X198000000Y-135250000D03*
X242000000Y-97750000D03*
X194000000Y-151750000D03*
X235000000Y-170250000D03*
X257750000Y-128250000D03*
X205500000Y-147250000D03*
X218250000Y-120750000D03*
X173000000Y-151750000D03*
X201000000Y-154750000D03*
X261000000Y-135250000D03*
X243500000Y-132250000D03*
X232500000Y-151750000D03*
X204500000Y-154750000D03*
X252500000Y-97750000D03*
X187500000Y-135250000D03*
X253250000Y-139750000D03*
X189500000Y-97750000D03*
X170500000Y-109250000D03*
X235000000Y-97750000D03*
X200750000Y-113500000D03*
X257750000Y-109000000D03*
X255500000Y-97750000D03*
X183250000Y-113500000D03*
X166000000Y-101500000D03*
X229500000Y-135250000D03*
X176250000Y-116500000D03*
X235500000Y-101500000D03*
X256750000Y-116500000D03*
X169500000Y-154750000D03*
X170750000Y-147500000D03*
X231500000Y-170250000D03*
X166000000Y-158500000D03*
X203000000Y-97750000D03*
X253500000Y-151750000D03*
X246250000Y-113500000D03*
X235500000Y-120750000D03*
X221750000Y-116500000D03*
X239250000Y-113500000D03*
X253500000Y-154750000D03*
%TO.N,/SDI_M*%
X165264607Y-99735393D03*
X156500000Y-122750000D03*
X156500000Y-146000000D03*
%TO.N,/CKI_M*%
X161343750Y-120343750D03*
X158250000Y-141000000D03*
%TD*%
D22*
%TO.N,+5VD*%
X202227893Y-109260393D02*
X202227893Y-107272107D01*
X185617893Y-147430393D02*
X184837893Y-147430393D01*
X203857893Y-158615393D02*
X203927893Y-158685393D01*
X202297893Y-109330393D02*
X202227893Y-109260393D01*
X184767893Y-109260393D02*
X184767893Y-107267893D01*
X168500000Y-107500000D02*
X169007893Y-106992107D01*
X238067893Y-139635393D02*
X237997893Y-139565393D01*
X237997893Y-128380393D02*
X237217893Y-128380393D01*
X237147893Y-128310393D02*
X237147893Y-126852107D01*
X221317893Y-158615393D02*
X221387893Y-158685393D01*
X219757893Y-128380393D02*
X219687893Y-128310393D01*
X238847893Y-120585393D02*
X238067893Y-120585393D01*
X220607893Y-139635393D02*
X220537893Y-139565393D01*
X168227893Y-101535393D02*
X168157893Y-101465393D01*
X169007893Y-122257893D02*
X169250000Y-122500000D01*
X219687893Y-164812107D02*
X219750000Y-164750000D01*
X202227893Y-128310393D02*
X202227893Y-126772107D01*
X168157893Y-158615393D02*
X168937893Y-158615393D01*
X256237893Y-158615393D02*
X256307893Y-158685393D01*
X186467893Y-139635393D02*
X186467893Y-141967893D01*
X203927893Y-141927893D02*
X203927893Y-139635393D01*
X220467893Y-166410393D02*
X220537893Y-166480393D01*
X256307893Y-139635393D02*
X256307893Y-141942107D01*
X203077893Y-109330393D02*
X202297893Y-109330393D01*
X221387893Y-158685393D02*
X221387893Y-160862107D01*
X220537893Y-158615393D02*
X221317893Y-158615393D01*
X185687893Y-101535393D02*
X185617893Y-101465393D01*
X202227893Y-164772107D02*
X202250000Y-164750000D01*
X168157893Y-147430393D02*
X167377893Y-147430393D01*
X254607893Y-147360393D02*
X254607893Y-145892107D01*
X186467893Y-120585393D02*
X185687893Y-120585393D01*
X186467893Y-139635393D02*
X185687893Y-139635393D01*
X256307893Y-139635393D02*
X255527893Y-139635393D01*
X254677893Y-147430393D02*
X254607893Y-147360393D01*
X203927893Y-120585393D02*
X203147893Y-120585393D01*
X220537893Y-128380393D02*
X219757893Y-128380393D01*
X237927893Y-166410393D02*
X237997893Y-166480393D01*
X167500000Y-108250000D02*
X168250000Y-108250000D01*
X238847893Y-158685393D02*
X238847893Y-160902107D01*
X254607893Y-109260393D02*
X254607893Y-107142107D01*
X221500000Y-139747500D02*
X221500000Y-141775786D01*
X203927893Y-158685393D02*
X203927893Y-160927893D01*
X219687893Y-166410393D02*
X220467893Y-166410393D01*
X219757893Y-109330393D02*
X219687893Y-109260393D01*
X202227893Y-166410393D02*
X202227893Y-164772107D01*
X220537893Y-147430393D02*
X219757893Y-147430393D01*
X220537893Y-109330393D02*
X219757893Y-109330393D01*
X203147893Y-139635393D02*
X203077893Y-139565393D01*
X202227893Y-126772107D02*
X202250000Y-126750000D01*
X202227893Y-166410393D02*
X203007893Y-166410393D01*
X203147893Y-120585393D02*
X203077893Y-120515393D01*
X167307893Y-108442107D02*
X167500000Y-108250000D01*
X237997893Y-147430393D02*
X237217893Y-147430393D01*
X169007893Y-158685393D02*
X169007893Y-160992107D01*
X167307893Y-145942107D02*
X167307893Y-147360393D01*
X221387893Y-120585393D02*
X220607893Y-120585393D01*
X254677893Y-128380393D02*
X254607893Y-128310393D01*
X186467893Y-122217893D02*
X186500000Y-122250000D01*
X169007893Y-101535393D02*
X168227893Y-101535393D01*
X237147893Y-107352107D02*
X237250000Y-107250000D01*
X237217893Y-128380393D02*
X237147893Y-128310393D01*
X168227893Y-120585393D02*
X168157893Y-120515393D01*
X238847893Y-101535393D02*
X238067893Y-101535393D01*
X203007893Y-166410393D02*
X203077893Y-166480393D01*
X219687893Y-147360393D02*
X219687893Y-145812107D01*
X237217893Y-147430393D02*
X237147893Y-147360393D01*
X254607893Y-166410393D02*
X255387893Y-166410393D01*
X255457893Y-109330393D02*
X254677893Y-109330393D01*
X221387893Y-139635393D02*
X220607893Y-139635393D01*
X237147893Y-166410393D02*
X237927893Y-166410393D01*
X221387893Y-101535393D02*
X220607893Y-101535393D01*
X203927893Y-101535393D02*
X203927893Y-103177893D01*
X168157893Y-128380393D02*
X167377893Y-128380393D01*
X238847893Y-120585393D02*
X238847893Y-122402107D01*
X184767893Y-109260393D02*
X185547893Y-109260393D01*
X254607893Y-166410393D02*
X254607893Y-164857893D01*
X186467893Y-120585393D02*
X186467893Y-122217893D01*
X169007893Y-120585393D02*
X168227893Y-120585393D01*
X255457893Y-128380393D02*
X254677893Y-128380393D01*
X185617893Y-166480393D02*
X184837893Y-166480393D01*
X185617893Y-128380393D02*
X184837893Y-128380393D01*
X219687893Y-109260393D02*
X219687893Y-107312107D01*
X255457893Y-147430393D02*
X254677893Y-147430393D01*
X203927893Y-139635393D02*
X203147893Y-139635393D01*
X167307893Y-109260393D02*
X167307893Y-108442107D01*
X169007893Y-139635393D02*
X169007893Y-142750000D01*
X186467893Y-160717893D02*
X186500000Y-160750000D01*
X203077893Y-158615393D02*
X203857893Y-158615393D01*
X237147893Y-147360393D02*
X237147893Y-143352107D01*
X254677893Y-109330393D02*
X254607893Y-109260393D01*
X238847893Y-101535393D02*
X238847893Y-103097893D01*
X254607893Y-107142107D02*
X254750000Y-107000000D01*
X168500000Y-108000000D02*
X168500000Y-107500000D01*
X255527893Y-139635393D02*
X255457893Y-139565393D01*
X238067893Y-120585393D02*
X237997893Y-120515393D01*
X203927893Y-103177893D02*
X204000000Y-103250000D01*
X221387893Y-122387893D02*
X221500000Y-122500000D01*
X184837893Y-147430393D02*
X184767893Y-147360393D01*
X203077893Y-128380393D02*
X202297893Y-128380393D01*
X203927893Y-122177893D02*
X204000000Y-122250000D01*
X238777893Y-158615393D02*
X238847893Y-158685393D01*
X184767893Y-143667893D02*
X184767893Y-147360393D01*
X237147893Y-166410393D02*
X237147893Y-164852107D01*
X237147893Y-126852107D02*
X237250000Y-126750000D01*
X202227893Y-147360393D02*
X202227893Y-143627893D01*
X237147893Y-164852107D02*
X237250000Y-164750000D01*
X184837893Y-128380393D02*
X184767893Y-128310393D01*
X237997893Y-158615393D02*
X238777893Y-158615393D01*
X203147893Y-101535393D02*
X203077893Y-101465393D01*
X255457893Y-120515393D02*
X256237893Y-120515393D01*
X168937893Y-158615393D02*
X169007893Y-158685393D01*
X169007893Y-106992107D02*
X169007893Y-101535393D01*
X186467893Y-101535393D02*
X185687893Y-101535393D01*
X168087893Y-109260393D02*
X168157893Y-109330393D01*
X255457893Y-158615393D02*
X256237893Y-158615393D01*
X221387893Y-101535393D02*
X221387893Y-103387893D01*
X220607893Y-120585393D02*
X220537893Y-120515393D01*
D23*
X160800000Y-148500000D02*
X160800000Y-143250000D01*
D22*
X237147893Y-109260393D02*
X237147893Y-107352107D01*
X185687893Y-139635393D02*
X185617893Y-139565393D01*
X219687893Y-128310393D02*
X219687893Y-126812107D01*
X220607893Y-101535393D02*
X220537893Y-101465393D01*
X167307893Y-109260393D02*
X168087893Y-109260393D01*
X255527893Y-101535393D02*
X255457893Y-101465393D01*
X255387893Y-166410393D02*
X255457893Y-166480393D01*
X254607893Y-128310393D02*
X254607893Y-126857893D01*
X256307893Y-102807893D02*
X256500000Y-103000000D01*
X184837893Y-166480393D02*
X184767893Y-166410393D01*
X186467893Y-158685393D02*
X185687893Y-158685393D01*
X256237893Y-120515393D02*
X256307893Y-120585393D01*
X202227893Y-107272107D02*
X202250000Y-107250000D01*
X184767893Y-128310393D02*
X184767893Y-126767893D01*
X238067893Y-101535393D02*
X237997893Y-101465393D01*
X221387893Y-139635393D02*
X221500000Y-139747500D01*
X186467893Y-101535393D02*
X186467893Y-103217893D01*
X221387893Y-103387893D02*
X221500000Y-103500000D01*
X184767893Y-166410393D02*
X184767893Y-164767893D01*
X185687893Y-120585393D02*
X185617893Y-120515393D01*
X185547893Y-109260393D02*
X185617893Y-109330393D01*
X167307893Y-166410393D02*
X167307893Y-164807893D01*
X254607893Y-126857893D02*
X254500000Y-126750000D01*
X186467893Y-158685393D02*
X186467893Y-160717893D01*
X256307893Y-158685393D02*
X256307893Y-160807893D01*
X168937893Y-139565393D02*
X169007893Y-139635393D01*
X203077893Y-147430393D02*
X202297893Y-147430393D01*
X168250000Y-108250000D02*
X168500000Y-108000000D01*
X185687893Y-158685393D02*
X185617893Y-158615393D01*
X221387893Y-120585393D02*
X221387893Y-122387893D01*
X256307893Y-101535393D02*
X256307893Y-102807893D01*
X202297893Y-147430393D02*
X202227893Y-147360393D01*
X167307893Y-128310393D02*
X167307893Y-126807893D01*
X203927893Y-101535393D02*
X203147893Y-101535393D01*
X237147893Y-109260393D02*
X237927893Y-109260393D01*
X203927893Y-120585393D02*
X203927893Y-122177893D01*
X219687893Y-166410393D02*
X219687893Y-164812107D01*
X238847893Y-139635393D02*
X238067893Y-139635393D01*
X219687893Y-126812107D02*
X219750000Y-126750000D01*
X202297893Y-128380393D02*
X202227893Y-128310393D01*
X167377893Y-128380393D02*
X167307893Y-128310393D01*
X237927893Y-109260393D02*
X237997893Y-109330393D01*
X167377893Y-147430393D02*
X167307893Y-147360393D01*
X168157893Y-139565393D02*
X168937893Y-139565393D01*
X169007893Y-120585393D02*
X169007893Y-122257893D01*
X219757893Y-147430393D02*
X219687893Y-147360393D01*
X219687893Y-107312107D02*
X219750000Y-107250000D01*
X167377893Y-166480393D02*
X167307893Y-166410393D01*
X256307893Y-120585393D02*
X256307893Y-122442107D01*
X256307893Y-101535393D02*
X255527893Y-101535393D01*
X168157893Y-166480393D02*
X167377893Y-166480393D01*
X238847893Y-141652107D02*
X238847893Y-139635393D01*
X254607893Y-164857893D02*
X254500000Y-164750000D01*
%TO.N,/CKI*%
X157200000Y-119300000D02*
X157200000Y-116750000D01*
X157862500Y-121550000D02*
X157200000Y-120887500D01*
X157200000Y-120887500D02*
X157200000Y-119300000D01*
D24*
%TO.N,GND*%
X221387893Y-166410393D02*
X222910393Y-166410393D01*
D22*
X203077893Y-119095393D02*
X203077893Y-117422107D01*
X169007893Y-147360393D02*
X170610393Y-147360393D01*
X218250000Y-158750000D02*
X219623286Y-158750000D01*
D24*
X186467893Y-166410393D02*
X187910393Y-166410393D01*
D22*
X235500000Y-158750000D02*
X237083286Y-158750000D01*
D24*
X220537893Y-98462107D02*
X221000000Y-98000000D01*
D22*
X235614607Y-139635393D02*
X235500000Y-139750000D01*
X254607893Y-158685393D02*
X253064607Y-158685393D01*
X257750000Y-147250000D02*
X257000000Y-147250000D01*
X202163286Y-158750000D02*
X202227893Y-158685393D01*
X220537893Y-117712107D02*
X220750000Y-117500000D01*
X170500000Y-128250000D02*
X170750000Y-128000000D01*
D24*
X255500000Y-98250000D02*
X255500000Y-97750000D01*
D22*
X218114607Y-139635393D02*
X218000000Y-139750000D01*
X168157893Y-169657893D02*
X168500000Y-170000000D01*
D24*
X256307893Y-166410393D02*
X257339607Y-166410393D01*
D22*
X203077893Y-169672107D02*
X203077893Y-170077893D01*
X185617893Y-110750393D02*
X185617893Y-112867893D01*
D24*
X169007893Y-166410393D02*
X170410393Y-166410393D01*
D22*
X237147893Y-101535393D02*
X235535393Y-101535393D01*
X202227893Y-120585393D02*
X200914607Y-120585393D01*
X255457893Y-157195393D02*
X255457893Y-155292107D01*
X203077893Y-136422107D02*
X203250000Y-136250000D01*
X237997893Y-131997893D02*
X238250000Y-132250000D01*
X255457893Y-119095393D02*
X255457893Y-117292107D01*
X203077893Y-167900393D02*
X203077893Y-169672107D01*
X237997893Y-154752107D02*
X238000000Y-154750000D01*
X220537893Y-138145393D02*
X220537893Y-136212107D01*
D24*
X222910393Y-166410393D02*
X223000000Y-166500000D01*
X238000000Y-98250000D02*
X238000000Y-97750000D01*
D22*
X170610393Y-147360393D02*
X170750000Y-147500000D01*
X183364607Y-139635393D02*
X183000000Y-140000000D01*
X166164607Y-120585393D02*
X166000000Y-120750000D01*
X168157893Y-148850393D02*
X168157893Y-150657893D01*
D24*
X203000000Y-99967500D02*
X203000000Y-97750000D01*
D22*
X237147893Y-120585393D02*
X235664607Y-120585393D01*
X170750000Y-128250000D02*
X170250000Y-128250000D01*
X203077893Y-157195393D02*
X203077893Y-154827893D01*
X170250000Y-128250000D02*
X170500000Y-128250000D01*
X185617893Y-129800393D02*
X185617893Y-131867893D01*
X203077893Y-117422107D02*
X203250000Y-117250000D01*
X237997893Y-136002107D02*
X238250000Y-135750000D01*
X185617893Y-169617893D02*
X186000000Y-170000000D01*
D24*
X185617893Y-100045393D02*
X185617893Y-97867893D01*
D22*
X168157893Y-136592107D02*
X168500000Y-136250000D01*
X257689607Y-128310393D02*
X257750000Y-128250000D01*
D24*
X168157893Y-100045393D02*
X168157893Y-98342107D01*
D22*
X169068286Y-128250000D02*
X169007893Y-128310393D01*
X184767893Y-139635393D02*
X183364607Y-139635393D01*
X219623286Y-158750000D02*
X219687893Y-158685393D01*
X188000000Y-128250000D02*
X186528286Y-128250000D01*
X220537893Y-110750393D02*
X220537893Y-112962107D01*
X185617893Y-148850393D02*
X185617893Y-151117893D01*
D24*
X221000000Y-98000000D02*
X221000000Y-97750000D01*
D22*
X185617893Y-131867893D02*
X185750000Y-132000000D01*
D24*
X257339607Y-166410393D02*
X257500000Y-166250000D01*
D22*
X253364607Y-139635393D02*
X253250000Y-139750000D01*
X185617893Y-112867893D02*
X185750000Y-113000000D01*
X220537893Y-129800393D02*
X220537893Y-131787893D01*
D24*
X257489607Y-109260393D02*
X257750000Y-109000000D01*
X203077893Y-100045393D02*
X203000000Y-99967500D01*
D22*
X220537893Y-148850393D02*
X220537893Y-151712107D01*
D24*
X237997893Y-170247893D02*
X238000000Y-170250000D01*
D22*
X203988286Y-128250000D02*
X203927893Y-128310393D01*
X219687893Y-101535393D02*
X218285393Y-101535393D01*
D24*
X205410393Y-166410393D02*
X205500000Y-166500000D01*
X168157893Y-131407893D02*
X168750000Y-132000000D01*
D22*
X168157893Y-167900393D02*
X168157893Y-169657893D01*
X255457893Y-110750393D02*
X255457893Y-112957893D01*
X237997893Y-157195393D02*
X237997893Y-154752107D01*
X220537893Y-131787893D02*
X220750000Y-132000000D01*
X221448286Y-128250000D02*
X221387893Y-128310393D01*
X203077893Y-129800393D02*
X203077893Y-131827893D01*
X200914607Y-120585393D02*
X200750000Y-120750000D01*
D24*
X220537893Y-167900393D02*
X220537893Y-170212107D01*
D22*
X184767893Y-101535393D02*
X183535393Y-101535393D01*
X237997893Y-113247893D02*
X238000000Y-113250000D01*
X237147893Y-139635393D02*
X235614607Y-139635393D01*
X253064607Y-158685393D02*
X253000000Y-158750000D01*
X237997893Y-110750393D02*
X237997893Y-113247893D01*
D24*
X240410393Y-166410393D02*
X240500000Y-166500000D01*
D22*
X185617893Y-138145393D02*
X185617893Y-136382107D01*
D24*
X170410393Y-166410393D02*
X170500000Y-166500000D01*
D22*
X185617893Y-167900393D02*
X185617893Y-169617893D01*
X202227893Y-101535393D02*
X200785393Y-101535393D01*
D24*
X203927893Y-109260393D02*
X205489607Y-109260393D01*
D22*
X256307893Y-128310393D02*
X257689607Y-128310393D01*
X219687893Y-139635393D02*
X218114607Y-139635393D01*
D24*
X203927893Y-166410393D02*
X205410393Y-166410393D01*
D22*
X219687893Y-120585393D02*
X218414607Y-120585393D01*
X253285393Y-101535393D02*
X253250000Y-101500000D01*
X168157893Y-110750393D02*
X168157893Y-112407893D01*
X187889607Y-147360393D02*
X188000000Y-147250000D01*
X238847893Y-147360393D02*
X240139607Y-147360393D01*
X200750000Y-158750000D02*
X202163286Y-158750000D01*
X203077893Y-151077893D02*
X203250000Y-151250000D01*
X159500000Y-127925000D02*
X159500000Y-125000000D01*
X237997893Y-119095393D02*
X237997893Y-117252107D01*
X235664607Y-120585393D02*
X235500000Y-120750000D01*
X167307893Y-120585393D02*
X166164607Y-120585393D01*
X167122500Y-158500000D02*
X167307893Y-158685393D01*
X168157893Y-150657893D02*
X168500000Y-151000000D01*
X255457893Y-131707893D02*
X255500000Y-131750000D01*
X205389607Y-147360393D02*
X205500000Y-147250000D01*
X203927893Y-147360393D02*
X205389607Y-147360393D01*
X166000000Y-158500000D02*
X167122500Y-158500000D01*
X220537893Y-157195393D02*
X220537893Y-154787893D01*
X218414607Y-120585393D02*
X218250000Y-120750000D01*
X185617893Y-119095393D02*
X185617893Y-117367893D01*
X183250000Y-158750000D02*
X184703286Y-158750000D01*
X237997893Y-148850393D02*
X237997893Y-150997893D01*
X202227893Y-139635393D02*
X200864607Y-139635393D01*
X256307893Y-147360393D02*
X256889607Y-147360393D01*
X220537893Y-119095393D02*
X220537893Y-117712107D01*
D24*
X240239607Y-109260393D02*
X240250000Y-109250000D01*
D22*
X237997893Y-129800393D02*
X237997893Y-131997893D01*
X255457893Y-148850393D02*
X255457893Y-150957893D01*
D24*
X238847893Y-166410393D02*
X240410393Y-166410393D01*
X222739607Y-109260393D02*
X222750000Y-109250000D01*
X255457893Y-98292107D02*
X255500000Y-98250000D01*
D22*
X184767893Y-120585393D02*
X183414607Y-120585393D01*
X185617893Y-157195393D02*
X185617893Y-154867893D01*
X256889607Y-147360393D02*
X257000000Y-147250000D01*
X237083286Y-158750000D02*
X237147893Y-158685393D01*
D24*
X168250000Y-98250000D02*
X168250000Y-97750000D01*
D22*
X168157893Y-119095393D02*
X168157893Y-117592107D01*
X255457893Y-138145393D02*
X255457893Y-136292107D01*
X203077893Y-170077893D02*
X203250000Y-170250000D01*
X238908286Y-128250000D02*
X238847893Y-128310393D01*
X203077893Y-131827893D02*
X203250000Y-132000000D01*
D24*
X168157893Y-98342107D02*
X168250000Y-98250000D01*
D22*
X203077893Y-112827893D02*
X203250000Y-113000000D01*
X187989607Y-109260393D02*
X188000000Y-109250000D01*
D24*
X255457893Y-170207893D02*
X255500000Y-170250000D01*
X255457893Y-100045393D02*
X255457893Y-98292107D01*
D22*
X168157893Y-157195393D02*
X168157893Y-155592107D01*
D24*
X255457893Y-167900393D02*
X255457893Y-170207893D01*
D22*
X166035393Y-101535393D02*
X166000000Y-101500000D01*
D24*
X238847893Y-109260393D02*
X240239607Y-109260393D01*
X220537893Y-100045393D02*
X220537893Y-98462107D01*
D22*
X186000000Y-170000000D02*
X186000000Y-170250000D01*
X170250000Y-128250000D02*
X169068286Y-128250000D01*
X186467893Y-109260393D02*
X187989607Y-109260393D01*
D24*
X205489607Y-109260393D02*
X205500000Y-109250000D01*
D22*
X222889607Y-147360393D02*
X223000000Y-147250000D01*
D24*
X168157893Y-129800393D02*
X168157893Y-131407893D01*
D22*
X255457893Y-129800393D02*
X255457893Y-131707893D01*
D24*
X187910393Y-166410393D02*
X188000000Y-166500000D01*
D22*
X203077893Y-138145393D02*
X203077893Y-136422107D01*
X221387893Y-147360393D02*
X222889607Y-147360393D01*
X255457893Y-112957893D02*
X255500000Y-113000000D01*
X240139607Y-147360393D02*
X240250000Y-147250000D01*
X168157893Y-112407893D02*
X169250000Y-113500000D01*
X218285393Y-101535393D02*
X218250000Y-101500000D01*
X220537893Y-136212107D02*
X220750000Y-136000000D01*
D24*
X185617893Y-97867893D02*
X185500000Y-97750000D01*
D22*
X168500000Y-170000000D02*
X168500000Y-170250000D01*
X254607893Y-139635393D02*
X253364607Y-139635393D01*
X203077893Y-148850393D02*
X203077893Y-151077893D01*
X167307893Y-140692107D02*
X167000000Y-141000000D01*
X254607893Y-101535393D02*
X253285393Y-101535393D01*
D24*
X221387893Y-109260393D02*
X222739607Y-109260393D01*
D22*
X254607893Y-120585393D02*
X253164607Y-120585393D01*
D24*
X220537893Y-170212107D02*
X220500000Y-170250000D01*
D22*
X240250000Y-128250000D02*
X238908286Y-128250000D01*
X200864607Y-139635393D02*
X200750000Y-139750000D01*
X167307893Y-139635393D02*
X167307893Y-140692107D01*
X184703286Y-158750000D02*
X184767893Y-158685393D01*
X168157893Y-155592107D02*
X168500000Y-155250000D01*
X253164607Y-120585393D02*
X253000000Y-120750000D01*
X186528286Y-128250000D02*
X186467893Y-128310393D01*
X223000000Y-128250000D02*
X221448286Y-128250000D01*
D24*
X237997893Y-98252107D02*
X238000000Y-98250000D01*
D22*
X237997893Y-138145393D02*
X237997893Y-136002107D01*
X203077893Y-110750393D02*
X203077893Y-112827893D01*
X185617893Y-151117893D02*
X185750000Y-151250000D01*
D24*
X169007893Y-109260393D02*
X170489607Y-109260393D01*
X256307893Y-109260393D02*
X257489607Y-109260393D01*
D22*
X235535393Y-101535393D02*
X235500000Y-101500000D01*
X167307893Y-101535393D02*
X166035393Y-101535393D01*
D24*
X237997893Y-100045393D02*
X237997893Y-98252107D01*
D22*
X200785393Y-101535393D02*
X200750000Y-101500000D01*
X185617893Y-136382107D02*
X185750000Y-136250000D01*
X168157893Y-138145393D02*
X168157893Y-136592107D01*
D24*
X237997893Y-167900393D02*
X237997893Y-170247893D01*
D22*
X183535393Y-101535393D02*
X183500000Y-101500000D01*
D24*
X170489607Y-109260393D02*
X170500000Y-109250000D01*
D22*
X205500000Y-128250000D02*
X203988286Y-128250000D01*
X168157893Y-117592107D02*
X169250000Y-116500000D01*
X183414607Y-120585393D02*
X183250000Y-120750000D01*
X186467893Y-147360393D02*
X187889607Y-147360393D01*
D24*
%TO.N,Net-(D1-Pad2)*%
X169007893Y-100635393D02*
X184767893Y-100635393D01*
%TO.N,Net-(D1-Pad3)*%
X169007893Y-99735393D02*
X184767893Y-99735393D01*
%TO.N,Net-(D2-Pad2)*%
X186467893Y-100635393D02*
X202227893Y-100635393D01*
%TO.N,Net-(D2-Pad3)*%
X186467893Y-99735393D02*
X202227893Y-99735393D01*
%TO.N,Net-(D3-Pad2)*%
X203927893Y-100635393D02*
X219687893Y-100635393D01*
%TO.N,Net-(D3-Pad3)*%
X203927893Y-99735393D02*
X219687893Y-99735393D01*
%TO.N,Net-(D4-Pad2)*%
X221387893Y-100635393D02*
X237147893Y-100635393D01*
%TO.N,Net-(D4-Pad3)*%
X221387893Y-99735393D02*
X237147893Y-99735393D01*
%TO.N,Net-(D5-Pad2)*%
X238847893Y-100635393D02*
X254607893Y-100635393D01*
%TO.N,Net-(D5-Pad3)*%
X238847893Y-99735393D02*
X254607893Y-99735393D01*
%TO.N,Net-(D6-Pad2)*%
X257885393Y-100635393D02*
X258750000Y-101500000D01*
X258750000Y-109250000D02*
X257839607Y-110160393D01*
X258750000Y-101500000D02*
X258750000Y-109250000D01*
X257839607Y-110160393D02*
X256307893Y-110160393D01*
X256307893Y-100635393D02*
X257885393Y-100635393D01*
%TO.N,Net-(D6-Pad3)*%
X259500000Y-100750000D02*
X259500000Y-110000000D01*
X258439607Y-111060393D02*
X256307893Y-111060393D01*
X256307893Y-99735393D02*
X258485393Y-99735393D01*
X259500000Y-110000000D02*
X258439607Y-111060393D01*
X258485393Y-99735393D02*
X259500000Y-100750000D01*
%TO.N,Net-(D7-Pad2)*%
X254607893Y-110160393D02*
X238847893Y-110160393D01*
%TO.N,Net-(D7-Pad3)*%
X254607893Y-111060393D02*
X238847893Y-111060393D01*
%TO.N,Net-(D8-Pad2)*%
X237147893Y-110160393D02*
X221387893Y-110160393D01*
%TO.N,Net-(D8-Pad3)*%
X237147893Y-111060393D02*
X221387893Y-111060393D01*
%TO.N,Net-(D10-Pad5)*%
X219687893Y-110160393D02*
X203927893Y-110160393D01*
%TO.N,Net-(D10-Pad4)*%
X219687893Y-111060393D02*
X203927893Y-111060393D01*
%TO.N,Net-(D10-Pad2)*%
X202227893Y-110160393D02*
X186467893Y-110160393D01*
%TO.N,Net-(D10-Pad3)*%
X202227893Y-111060393D02*
X186467893Y-111060393D01*
%TO.N,Net-(D11-Pad2)*%
X184767893Y-110160393D02*
X169007893Y-110160393D01*
%TO.N,Net-(D11-Pad3)*%
X184767893Y-111060393D02*
X169007893Y-111060393D01*
%TO.N,Net-(D12-Pad2)*%
X166250000Y-110500000D02*
X166250000Y-119027500D01*
X166907893Y-119685393D02*
X167307893Y-119685393D01*
X167307893Y-110160393D02*
X166589607Y-110160393D01*
X166250000Y-119027500D02*
X166907893Y-119685393D01*
X166589607Y-110160393D02*
X166250000Y-110500000D01*
%TO.N,Net-(D12-Pad3)*%
X167307893Y-111060393D02*
X167307893Y-118785393D01*
%TO.N,Net-(D13-Pad2)*%
X169007893Y-119685393D02*
X184767893Y-119685393D01*
%TO.N,Net-(D13-Pad3)*%
X169007893Y-118785393D02*
X184767893Y-118785393D01*
%TO.N,Net-(D14-Pad2)*%
X186467893Y-119685393D02*
X202227893Y-119685393D01*
%TO.N,Net-(D14-Pad3)*%
X186467893Y-118785393D02*
X202227893Y-118785393D01*
%TO.N,Net-(D15-Pad2)*%
X203927893Y-119685393D02*
X219687893Y-119685393D01*
%TO.N,Net-(D15-Pad3)*%
X203927893Y-118785393D02*
X219687893Y-118785393D01*
%TO.N,Net-(D16-Pad2)*%
X221387893Y-119685393D02*
X237147893Y-119685393D01*
%TO.N,Net-(D16-Pad3)*%
X221387893Y-118785393D02*
X237147893Y-118785393D01*
%TO.N,Net-(D17-Pad2)*%
X238847893Y-119685393D02*
X254607893Y-119685393D01*
%TO.N,Net-(D17-Pad3)*%
X238847893Y-118785393D02*
X254607893Y-118785393D01*
%TO.N,Net-(D18-Pad2)*%
X259250000Y-128250000D02*
X258289607Y-129210393D01*
X256307893Y-119685393D02*
X258435393Y-119685393D01*
X258435393Y-119685393D02*
X259250000Y-120500000D01*
X258289607Y-129210393D02*
X256307893Y-129210393D01*
X259250000Y-120500000D02*
X259250000Y-128250000D01*
%TO.N,Net-(D18-Pad3)*%
X260250000Y-119500000D02*
X260250000Y-129250000D01*
X260250000Y-129250000D02*
X259389607Y-130110393D01*
X259389607Y-130110393D02*
X256307893Y-130110393D01*
X256307893Y-118785393D02*
X259535393Y-118785393D01*
X259535393Y-118785393D02*
X260250000Y-119500000D01*
%TO.N,Net-(D19-Pad2)*%
X254607893Y-129210393D02*
X238847893Y-129210393D01*
%TO.N,Net-(D19-Pad3)*%
X254607893Y-130110393D02*
X238847893Y-130110393D01*
%TO.N,Net-(D20-Pad2)*%
X237147893Y-129210393D02*
X221387893Y-129210393D01*
%TO.N,Net-(D20-Pad3)*%
X237147893Y-130110393D02*
X221387893Y-130110393D01*
%TO.N,Net-(D21-Pad2)*%
X219687893Y-129210393D02*
X203927893Y-129210393D01*
%TO.N,Net-(D21-Pad3)*%
X219687893Y-130110393D02*
X203927893Y-130110393D01*
%TO.N,Net-(D22-Pad2)*%
X202227893Y-129210393D02*
X186467893Y-129210393D01*
%TO.N,Net-(D22-Pad3)*%
X202227893Y-130110393D02*
X186467893Y-130110393D01*
%TO.N,Net-(D23-Pad2)*%
X184767893Y-129210393D02*
X169007893Y-129210393D01*
%TO.N,Net-(D23-Pad3)*%
X184767893Y-130110393D02*
X169007893Y-130110393D01*
%TO.N,Net-(D24-Pad2)*%
X166500000Y-138750000D02*
X166514607Y-138735393D01*
X166789607Y-129210393D02*
X166250000Y-129750000D01*
X166514607Y-138735393D02*
X167307893Y-138735393D01*
X167307893Y-129210393D02*
X166789607Y-129210393D01*
X166250000Y-138500000D02*
X166500000Y-138750000D01*
X166250000Y-129750000D02*
X166250000Y-138500000D01*
%TO.N,Net-(D24-Pad3)*%
X167307893Y-130110393D02*
X167307893Y-137835393D01*
%TO.N,Net-(D25-Pad2)*%
X169007893Y-138735393D02*
X184767893Y-138735393D01*
%TO.N,Net-(D25-Pad3)*%
X169007893Y-137835393D02*
X184767893Y-137835393D01*
%TO.N,Net-(D26-Pad2)*%
X186467893Y-138735393D02*
X202227893Y-138735393D01*
%TO.N,Net-(D26-Pad3)*%
X202227893Y-137835393D02*
X186467893Y-137835393D01*
%TO.N,Net-(D27-Pad2)*%
X203927893Y-138735393D02*
X219687893Y-138735393D01*
%TO.N,Net-(D27-Pad3)*%
X203927893Y-137835393D02*
X219687893Y-137835393D01*
%TO.N,Net-(D28-Pad2)*%
X221387893Y-138735393D02*
X237147893Y-138735393D01*
%TO.N,Net-(D28-Pad3)*%
X221387893Y-137835393D02*
X237147893Y-137835393D01*
%TO.N,Net-(D29-Pad2)*%
X238847893Y-138735393D02*
X254607893Y-138735393D01*
%TO.N,Net-(D29-Pad3)*%
X238847893Y-137835393D02*
X254607893Y-137835393D01*
%TO.N,Net-(D30-Pad2)*%
X258239607Y-148260393D02*
X256307893Y-148260393D01*
X256307893Y-138735393D02*
X258235393Y-138735393D01*
X259250000Y-147250000D02*
X258239607Y-148260393D01*
X259250000Y-139750000D02*
X259250000Y-147250000D01*
X258235393Y-138735393D02*
X259250000Y-139750000D01*
%TO.N,Net-(D30-Pad3)*%
X259339607Y-149160393D02*
X256307893Y-149160393D01*
X260250000Y-139000000D02*
X260250000Y-148250000D01*
X256307893Y-137835393D02*
X259085393Y-137835393D01*
X260250000Y-148250000D02*
X259339607Y-149160393D01*
X259085393Y-137835393D02*
X260250000Y-139000000D01*
%TO.N,Net-(D31-Pad2)*%
X254607893Y-148260393D02*
X238847893Y-148260393D01*
%TO.N,Net-(D31-Pad3)*%
X254607893Y-149160393D02*
X238847893Y-149160393D01*
%TO.N,Net-(D32-Pad2)*%
X237147893Y-148260393D02*
X221387893Y-148260393D01*
%TO.N,Net-(D32-Pad3)*%
X237147893Y-149160393D02*
X221387893Y-149160393D01*
%TO.N,Net-(D33-Pad2)*%
X219687893Y-148260393D02*
X203927893Y-148260393D01*
%TO.N,Net-(D33-Pad3)*%
X219687893Y-149160393D02*
X203927893Y-149160393D01*
%TO.N,Net-(D34-Pad2)*%
X202227893Y-148260393D02*
X186467893Y-148260393D01*
%TO.N,Net-(D34-Pad3)*%
X186467893Y-149160393D02*
X202227893Y-149160393D01*
%TO.N,Net-(D35-Pad2)*%
X184767893Y-148260393D02*
X169007893Y-148260393D01*
%TO.N,Net-(D35-Pad3)*%
X184767893Y-149160393D02*
X169007893Y-149160393D01*
%TO.N,Net-(D36-Pad2)*%
X166989607Y-148260393D02*
X166250000Y-149000000D01*
X166250000Y-149000000D02*
X166250000Y-157500000D01*
X166535393Y-157785393D02*
X167307893Y-157785393D01*
X166250000Y-157500000D02*
X166535393Y-157785393D01*
X167307893Y-148260393D02*
X166989607Y-148260393D01*
%TO.N,Net-(D36-Pad3)*%
X167307893Y-149160393D02*
X167307893Y-156885393D01*
%TO.N,Net-(D37-Pad2)*%
X169007893Y-157785393D02*
X184767893Y-157785393D01*
%TO.N,Net-(D37-Pad3)*%
X169007893Y-156885393D02*
X184767893Y-156885393D01*
%TO.N,Net-(D38-Pad2)*%
X186467893Y-157785393D02*
X202227893Y-157785393D01*
%TO.N,Net-(D38-Pad3)*%
X202227893Y-156885393D02*
X186467893Y-156885393D01*
%TO.N,Net-(D39-Pad2)*%
X203927893Y-157785393D02*
X219687893Y-157785393D01*
%TO.N,Net-(D39-Pad3)*%
X203927893Y-156885393D02*
X219687893Y-156885393D01*
%TO.N,Net-(D40-Pad2)*%
X221387893Y-157785393D02*
X237147893Y-157785393D01*
%TO.N,Net-(D40-Pad3)*%
X221387893Y-156885393D02*
X237147893Y-156885393D01*
%TO.N,Net-(D41-Pad2)*%
X238847893Y-157785393D02*
X254607893Y-157785393D01*
%TO.N,Net-(D41-Pad3)*%
X238847893Y-156885393D02*
X254607893Y-156885393D01*
%TO.N,Net-(D42-Pad2)*%
X258500000Y-166500000D02*
X257689607Y-167310393D01*
X258500000Y-158750000D02*
X258500000Y-166500000D01*
X257689607Y-167310393D02*
X256307893Y-167310393D01*
X257535393Y-157785393D02*
X258500000Y-158750000D01*
X256307893Y-157785393D02*
X257535393Y-157785393D01*
%TO.N,Net-(D42-Pad3)*%
X256307893Y-156885393D02*
X258385393Y-156885393D01*
X259500000Y-158000000D02*
X259500000Y-167500000D01*
X259500000Y-167500000D02*
X258789607Y-168210393D01*
X258385393Y-156885393D02*
X259500000Y-158000000D01*
X258789607Y-168210393D02*
X256307893Y-168210393D01*
%TO.N,Net-(D43-Pad2)*%
X254607893Y-167310393D02*
X238847893Y-167310393D01*
%TO.N,Net-(D43-Pad3)*%
X254607893Y-168210393D02*
X238847893Y-168210393D01*
%TO.N,Net-(D44-Pad2)*%
X237147893Y-167310393D02*
X221387893Y-167310393D01*
%TO.N,Net-(D44-Pad3)*%
X237147893Y-168210393D02*
X221387893Y-168210393D01*
%TO.N,Net-(D45-Pad2)*%
X219687893Y-167310393D02*
X203927893Y-167310393D01*
%TO.N,Net-(D45-Pad3)*%
X219687893Y-168210393D02*
X203927893Y-168210393D01*
%TO.N,Net-(D46-Pad2)*%
X202227893Y-167310393D02*
X186467893Y-167310393D01*
%TO.N,Net-(D46-Pad3)*%
X202227893Y-168210393D02*
X186467893Y-168210393D01*
%TO.N,Net-(D47-Pad2)*%
X184767893Y-167310393D02*
X169007893Y-167310393D01*
%TO.N,Net-(D47-Pad3)*%
X184767893Y-168210393D02*
X169007893Y-168210393D01*
D22*
%TO.N,/SDI*%
X156750000Y-124750000D02*
X155750000Y-123750000D01*
X155750000Y-123750000D02*
X155750000Y-113200000D01*
X159500000Y-130465000D02*
X157000000Y-127965000D01*
X157000000Y-124750000D02*
X156750000Y-124750000D01*
X155750000Y-113200000D02*
X157200000Y-111750000D01*
X157000000Y-127965000D02*
X157000000Y-124750000D01*
X158837500Y-124750000D02*
X157000000Y-124750000D01*
X160137500Y-123450000D02*
X158837500Y-124750000D01*
D24*
%TO.N,/SDI_M*%
X156500000Y-147300000D02*
X157700000Y-148500000D01*
X167307893Y-99735393D02*
X165264607Y-99735393D01*
X157200000Y-123450000D02*
X157862500Y-123450000D01*
X156500000Y-146000000D02*
X156500000Y-147300000D01*
X156500000Y-122750000D02*
X157200000Y-123450000D01*
%TO.N,/CKI_M*%
X165364607Y-100635393D02*
X167307893Y-100635393D01*
X160137500Y-121550000D02*
X161343750Y-120343750D01*
X162000000Y-105250000D02*
X164750000Y-102500000D01*
X162000000Y-119687500D02*
X162000000Y-105250000D01*
X158250000Y-141000000D02*
X158250000Y-141500000D01*
X161343750Y-120343750D02*
X162000000Y-119687500D01*
X164750000Y-101250000D02*
X165364607Y-100635393D01*
X164750000Y-102500000D02*
X164750000Y-101250000D01*
X158250000Y-141500000D02*
X157700000Y-142050000D01*
X157700000Y-142050000D02*
X157700000Y-143250000D01*
%TO.N,VCC*%
X160521751Y-122500000D02*
X160137500Y-122500000D01*
X160300000Y-111750000D02*
X160300000Y-116750000D01*
X159000000Y-118050000D02*
X159000000Y-122500000D01*
X161125000Y-133920000D02*
X161125000Y-123103249D01*
X161125000Y-123103249D02*
X160521751Y-122500000D01*
X159500000Y-135545000D02*
X161125000Y-133920000D01*
X157862500Y-122500000D02*
X160137500Y-122500000D01*
X160300000Y-116750000D02*
X159000000Y-118050000D01*
%TD*%
%TA.AperFunction,Conductor*%
%TO.N,+5VD*%
G36*
X257907958Y-102520002D02*
G01*
X257954451Y-102573658D01*
X257965834Y-102625160D01*
X257999154Y-107623160D01*
X257979607Y-107691413D01*
X257926262Y-107738262D01*
X257873157Y-107750000D01*
X167387392Y-107750000D01*
X167379468Y-107757646D01*
X165567513Y-109506049D01*
X165387393Y-109679851D01*
X165453131Y-119929509D01*
X165453321Y-119959208D01*
X165433757Y-120027456D01*
X165401385Y-120061952D01*
X165388747Y-120071134D01*
X165384326Y-120076044D01*
X165384325Y-120076045D01*
X165286304Y-120184909D01*
X165260960Y-120213056D01*
X165257659Y-120218774D01*
X165194699Y-120327824D01*
X165165473Y-120378444D01*
X165106458Y-120560072D01*
X165086496Y-120750000D01*
X165087186Y-120756565D01*
X165105140Y-120927385D01*
X165106458Y-120939928D01*
X165165473Y-121121556D01*
X165260960Y-121286944D01*
X165265378Y-121291851D01*
X165265379Y-121291852D01*
X165302877Y-121333498D01*
X165388747Y-121428866D01*
X165394090Y-121432748D01*
X165411567Y-121445446D01*
X165454920Y-121501670D01*
X165463501Y-121546573D01*
X165464524Y-121706053D01*
X165465001Y-121780367D01*
X165478344Y-121780367D01*
X174322414Y-121780332D01*
X257839001Y-121780000D01*
X257907120Y-121800002D01*
X257953613Y-121853657D01*
X257965000Y-121906000D01*
X257965000Y-127154000D01*
X257944998Y-127222121D01*
X257891342Y-127268614D01*
X257839000Y-127280000D01*
X171345577Y-127280000D01*
X171277456Y-127259998D01*
X171271516Y-127255936D01*
X171212094Y-127212763D01*
X171212093Y-127212762D01*
X171206752Y-127208882D01*
X171200724Y-127206198D01*
X171200722Y-127206197D01*
X171038319Y-127133891D01*
X171038318Y-127133891D01*
X171032288Y-127131206D01*
X170938888Y-127111353D01*
X170851944Y-127092872D01*
X170851939Y-127092872D01*
X170845487Y-127091500D01*
X170654513Y-127091500D01*
X170648061Y-127092872D01*
X170648056Y-127092872D01*
X170561112Y-127111353D01*
X170467712Y-127131206D01*
X170461682Y-127133891D01*
X170461681Y-127133891D01*
X170299278Y-127206197D01*
X170299276Y-127206198D01*
X170293248Y-127208882D01*
X170287907Y-127212762D01*
X170287906Y-127212763D01*
X170228484Y-127255936D01*
X170161616Y-127279794D01*
X170154423Y-127280000D01*
X165715000Y-127280000D01*
X165715000Y-129367730D01*
X165699454Y-129424555D01*
X165700386Y-129424958D01*
X165700386Y-129424959D01*
X165697237Y-129432236D01*
X165682826Y-129465537D01*
X165677609Y-129476187D01*
X165656305Y-129514940D01*
X165654334Y-129522615D01*
X165654334Y-129522616D01*
X165651267Y-129534562D01*
X165644863Y-129553266D01*
X165636819Y-129571855D01*
X165635580Y-129579678D01*
X165635577Y-129579688D01*
X165629901Y-129615524D01*
X165627495Y-129627144D01*
X165616500Y-129669970D01*
X165616500Y-129690224D01*
X165614949Y-129709934D01*
X165611780Y-129729943D01*
X165612526Y-129737835D01*
X165615941Y-129773961D01*
X165616500Y-129785819D01*
X165616500Y-138421233D01*
X165615973Y-138432416D01*
X165614298Y-138439909D01*
X165614547Y-138447835D01*
X165614547Y-138447836D01*
X165616438Y-138507986D01*
X165616500Y-138511945D01*
X165616500Y-138539856D01*
X165616997Y-138543790D01*
X165616997Y-138543791D01*
X165617005Y-138543856D01*
X165617938Y-138555693D01*
X165619327Y-138599889D01*
X165624978Y-138619339D01*
X165628987Y-138638700D01*
X165631526Y-138658797D01*
X165634445Y-138666168D01*
X165634445Y-138666170D01*
X165647804Y-138699912D01*
X165651649Y-138711142D01*
X165663982Y-138753593D01*
X165668015Y-138760412D01*
X165668017Y-138760417D01*
X165674293Y-138771028D01*
X165682988Y-138788776D01*
X165690448Y-138807617D01*
X165695111Y-138814035D01*
X165698928Y-138820979D01*
X165695652Y-138822780D01*
X165715000Y-138882350D01*
X165715000Y-141280000D01*
X166044180Y-141280000D01*
X166112301Y-141300002D01*
X166158794Y-141353658D01*
X166162513Y-141363210D01*
X166163432Y-141365273D01*
X166165473Y-141371556D01*
X166260960Y-141536944D01*
X166265378Y-141541851D01*
X166265379Y-141541852D01*
X166344955Y-141630230D01*
X166388747Y-141678866D01*
X166543248Y-141791118D01*
X166549276Y-141793802D01*
X166549278Y-141793803D01*
X166711681Y-141866109D01*
X166717712Y-141868794D01*
X166794501Y-141885116D01*
X166898056Y-141907128D01*
X166898061Y-141907128D01*
X166904513Y-141908500D01*
X167095487Y-141908500D01*
X167101939Y-141907128D01*
X167101944Y-141907128D01*
X167205499Y-141885116D01*
X167282288Y-141868794D01*
X167288319Y-141866109D01*
X167450722Y-141793803D01*
X167450724Y-141793802D01*
X167456752Y-141791118D01*
X167611253Y-141678866D01*
X167655045Y-141630230D01*
X167734621Y-141541852D01*
X167734622Y-141541851D01*
X167739040Y-141536944D01*
X167834527Y-141371556D01*
X167836568Y-141365275D01*
X167839254Y-141359242D01*
X167840849Y-141359952D01*
X167876063Y-141308456D01*
X167941461Y-141280821D01*
X167955820Y-141280000D01*
X257339000Y-141280000D01*
X257407121Y-141300002D01*
X257453614Y-141353658D01*
X257465000Y-141406000D01*
X257465000Y-146154000D01*
X257444998Y-146222121D01*
X257391342Y-146268614D01*
X257339000Y-146280000D01*
X165715000Y-146280000D01*
X165715000Y-148617730D01*
X165699454Y-148674555D01*
X165700386Y-148674958D01*
X165700386Y-148674959D01*
X165697237Y-148682236D01*
X165682826Y-148715537D01*
X165677609Y-148726187D01*
X165656305Y-148764940D01*
X165654334Y-148772615D01*
X165654334Y-148772616D01*
X165651267Y-148784562D01*
X165644863Y-148803266D01*
X165636819Y-148821855D01*
X165635580Y-148829678D01*
X165635577Y-148829688D01*
X165629901Y-148865524D01*
X165627495Y-148877144D01*
X165616500Y-148919970D01*
X165616500Y-148940224D01*
X165614949Y-148959934D01*
X165611780Y-148979943D01*
X165612526Y-148987835D01*
X165615941Y-149023961D01*
X165616500Y-149035819D01*
X165616500Y-157421233D01*
X165615973Y-157432416D01*
X165614298Y-157439909D01*
X165614547Y-157447835D01*
X165614547Y-157447836D01*
X165616438Y-157507986D01*
X165616500Y-157511945D01*
X165616500Y-157539856D01*
X165616997Y-157543790D01*
X165616997Y-157543791D01*
X165617005Y-157543856D01*
X165617937Y-157555690D01*
X165618996Y-157589346D01*
X165601145Y-157658060D01*
X165553488Y-157700276D01*
X165555000Y-157702894D01*
X165549280Y-157706197D01*
X165543248Y-157708882D01*
X165388747Y-157821134D01*
X165260960Y-157963056D01*
X165165473Y-158128444D01*
X165106458Y-158310072D01*
X165105768Y-158316633D01*
X165105768Y-158316635D01*
X165093103Y-158437138D01*
X165086496Y-158500000D01*
X165106458Y-158689928D01*
X165165473Y-158871556D01*
X165260960Y-159036944D01*
X165388747Y-159178866D01*
X165543248Y-159291118D01*
X165549276Y-159293802D01*
X165549278Y-159293803D01*
X165560174Y-159298654D01*
X165717712Y-159368794D01*
X165798697Y-159386008D01*
X165898056Y-159407128D01*
X165898061Y-159407128D01*
X165904513Y-159408500D01*
X165911115Y-159408500D01*
X165917682Y-159409190D01*
X165917447Y-159411430D01*
X165968927Y-159425101D01*
X167465000Y-160280000D01*
X257339000Y-160280000D01*
X257407121Y-160300002D01*
X257453614Y-160353658D01*
X257465000Y-160406000D01*
X257465000Y-165154000D01*
X257444998Y-165222121D01*
X257391342Y-165268614D01*
X257339000Y-165280000D01*
X166491738Y-165280000D01*
X166440565Y-165269140D01*
X159789827Y-162313256D01*
X159735701Y-162267312D01*
X159715000Y-162198116D01*
X159715000Y-149815459D01*
X159735002Y-149747338D01*
X159788658Y-149700845D01*
X159858932Y-149690741D01*
X159919094Y-149716578D01*
X159933244Y-149727753D01*
X160071243Y-149812816D01*
X160084424Y-149818963D01*
X160238710Y-149870138D01*
X160252086Y-149873005D01*
X160346438Y-149882672D01*
X160352854Y-149883000D01*
X160527885Y-149883000D01*
X160543124Y-149878525D01*
X160544329Y-149877135D01*
X160546000Y-149869452D01*
X160546000Y-149864884D01*
X161054000Y-149864884D01*
X161058475Y-149880123D01*
X161059865Y-149881328D01*
X161067548Y-149882999D01*
X161247095Y-149882999D01*
X161253614Y-149882662D01*
X161349206Y-149872743D01*
X161362600Y-149869851D01*
X161516784Y-149818412D01*
X161529962Y-149812239D01*
X161667807Y-149726937D01*
X161679208Y-149717901D01*
X161793739Y-149603171D01*
X161802751Y-149591760D01*
X161887816Y-149453757D01*
X161893963Y-149440576D01*
X161945138Y-149286290D01*
X161948005Y-149272914D01*
X161957672Y-149178562D01*
X161958000Y-149172146D01*
X161958000Y-148772115D01*
X161953525Y-148756876D01*
X161952135Y-148755671D01*
X161944452Y-148754000D01*
X161072115Y-148754000D01*
X161056876Y-148758475D01*
X161055671Y-148759865D01*
X161054000Y-148767548D01*
X161054000Y-149864884D01*
X160546000Y-149864884D01*
X160546000Y-148227885D01*
X161054000Y-148227885D01*
X161058475Y-148243124D01*
X161059865Y-148244329D01*
X161067548Y-148246000D01*
X161939884Y-148246000D01*
X161955123Y-148241525D01*
X161956328Y-148240135D01*
X161957999Y-148232452D01*
X161957999Y-147827905D01*
X161957662Y-147821386D01*
X161947743Y-147725794D01*
X161944851Y-147712400D01*
X161893412Y-147558216D01*
X161887239Y-147545038D01*
X161801937Y-147407193D01*
X161792901Y-147395792D01*
X161678171Y-147281261D01*
X161666760Y-147272249D01*
X161528757Y-147187184D01*
X161515576Y-147181037D01*
X161361290Y-147129862D01*
X161347914Y-147126995D01*
X161253562Y-147117328D01*
X161247145Y-147117000D01*
X161072115Y-147117000D01*
X161056876Y-147121475D01*
X161055671Y-147122865D01*
X161054000Y-147130548D01*
X161054000Y-148227885D01*
X160546000Y-148227885D01*
X160546000Y-147135116D01*
X160541525Y-147119877D01*
X160540135Y-147118672D01*
X160532452Y-147117001D01*
X160352905Y-147117001D01*
X160346386Y-147117338D01*
X160250794Y-147127257D01*
X160237400Y-147130149D01*
X160083216Y-147181588D01*
X160070038Y-147187761D01*
X159932192Y-147273063D01*
X159919264Y-147283310D01*
X159853453Y-147309947D01*
X159783689Y-147296776D01*
X159732121Y-147247978D01*
X159715000Y-147184564D01*
X159715000Y-144565459D01*
X159735002Y-144497338D01*
X159788658Y-144450845D01*
X159858932Y-144440741D01*
X159919094Y-144466578D01*
X159933244Y-144477753D01*
X160071243Y-144562816D01*
X160084424Y-144568963D01*
X160238710Y-144620138D01*
X160252086Y-144623005D01*
X160346438Y-144632672D01*
X160352854Y-144633000D01*
X160527885Y-144633000D01*
X160543124Y-144628525D01*
X160544329Y-144627135D01*
X160546000Y-144619452D01*
X160546000Y-144614884D01*
X161054000Y-144614884D01*
X161058475Y-144630123D01*
X161059865Y-144631328D01*
X161067548Y-144632999D01*
X161247095Y-144632999D01*
X161253614Y-144632662D01*
X161349206Y-144622743D01*
X161362600Y-144619851D01*
X161516784Y-144568412D01*
X161529962Y-144562239D01*
X161667807Y-144476937D01*
X161679208Y-144467901D01*
X161793739Y-144353171D01*
X161802751Y-144341760D01*
X161887816Y-144203757D01*
X161893963Y-144190576D01*
X161945138Y-144036290D01*
X161948005Y-144022914D01*
X161957672Y-143928562D01*
X161958000Y-143922146D01*
X161958000Y-143522115D01*
X161953525Y-143506876D01*
X161952135Y-143505671D01*
X161944452Y-143504000D01*
X161072115Y-143504000D01*
X161056876Y-143508475D01*
X161055671Y-143509865D01*
X161054000Y-143517548D01*
X161054000Y-144614884D01*
X160546000Y-144614884D01*
X160546000Y-142977885D01*
X161054000Y-142977885D01*
X161058475Y-142993124D01*
X161059865Y-142994329D01*
X161067548Y-142996000D01*
X161939884Y-142996000D01*
X161955123Y-142991525D01*
X161956328Y-142990135D01*
X161957999Y-142982452D01*
X161957999Y-142577905D01*
X161957662Y-142571386D01*
X161947743Y-142475794D01*
X161944851Y-142462400D01*
X161893412Y-142308216D01*
X161887239Y-142295038D01*
X161801937Y-142157193D01*
X161792901Y-142145792D01*
X161678171Y-142031261D01*
X161666760Y-142022249D01*
X161528757Y-141937184D01*
X161515576Y-141931037D01*
X161361290Y-141879862D01*
X161347914Y-141876995D01*
X161253562Y-141867328D01*
X161247145Y-141867000D01*
X161072115Y-141867000D01*
X161056876Y-141871475D01*
X161055671Y-141872865D01*
X161054000Y-141880548D01*
X161054000Y-142977885D01*
X160546000Y-142977885D01*
X160546000Y-141885116D01*
X160541525Y-141869877D01*
X160540135Y-141868672D01*
X160532452Y-141867001D01*
X160352905Y-141867001D01*
X160346386Y-141867338D01*
X160250794Y-141877257D01*
X160237400Y-141880149D01*
X160083216Y-141931588D01*
X160070038Y-141937761D01*
X159932192Y-142023063D01*
X159919264Y-142033310D01*
X159853453Y-142059947D01*
X159783689Y-142046776D01*
X159732121Y-141997978D01*
X159715000Y-141934564D01*
X159715000Y-140280000D01*
X158845577Y-140280000D01*
X158777456Y-140259998D01*
X158771516Y-140255936D01*
X158712094Y-140212763D01*
X158712093Y-140212762D01*
X158706752Y-140208882D01*
X158700724Y-140206198D01*
X158700722Y-140206197D01*
X158538319Y-140133891D01*
X158538318Y-140133891D01*
X158532288Y-140131206D01*
X158427394Y-140108910D01*
X158351944Y-140092872D01*
X158351939Y-140092872D01*
X158345487Y-140091500D01*
X158154513Y-140091500D01*
X158148061Y-140092872D01*
X158148056Y-140092872D01*
X158072606Y-140108910D01*
X157967712Y-140131206D01*
X157961682Y-140133891D01*
X157961681Y-140133891D01*
X157799278Y-140206197D01*
X157799276Y-140206198D01*
X157793248Y-140208882D01*
X157787907Y-140212762D01*
X157787906Y-140212763D01*
X157728484Y-140255936D01*
X157661616Y-140279794D01*
X157654423Y-140280000D01*
X157591000Y-140280000D01*
X157522879Y-140259998D01*
X157476386Y-140206342D01*
X157465000Y-140154000D01*
X157465000Y-138352966D01*
X158168257Y-138352966D01*
X158198565Y-138487446D01*
X158201645Y-138497275D01*
X158281770Y-138694603D01*
X158286413Y-138703794D01*
X158397694Y-138885388D01*
X158403777Y-138893699D01*
X158543213Y-139054667D01*
X158550580Y-139061883D01*
X158714434Y-139197916D01*
X158722881Y-139203831D01*
X158906756Y-139311279D01*
X158916042Y-139315729D01*
X159115001Y-139391703D01*
X159124899Y-139394579D01*
X159228250Y-139415606D01*
X159242299Y-139414410D01*
X159246000Y-139404065D01*
X159246000Y-139403517D01*
X159754000Y-139403517D01*
X159758064Y-139417359D01*
X159771478Y-139419393D01*
X159778184Y-139418534D01*
X159788262Y-139416392D01*
X159992255Y-139355191D01*
X160001842Y-139351433D01*
X160193095Y-139257739D01*
X160201945Y-139252464D01*
X160375328Y-139128792D01*
X160383200Y-139122139D01*
X160534052Y-138971812D01*
X160540730Y-138963965D01*
X160665003Y-138791020D01*
X160670313Y-138782183D01*
X160764670Y-138591267D01*
X160768469Y-138581672D01*
X160830377Y-138377910D01*
X160832555Y-138367837D01*
X160833986Y-138356962D01*
X160831775Y-138342778D01*
X160818617Y-138339000D01*
X159772115Y-138339000D01*
X159756876Y-138343475D01*
X159755671Y-138344865D01*
X159754000Y-138352548D01*
X159754000Y-139403517D01*
X159246000Y-139403517D01*
X159246000Y-138357115D01*
X159241525Y-138341876D01*
X159240135Y-138340671D01*
X159232452Y-138339000D01*
X158183225Y-138339000D01*
X158169694Y-138342973D01*
X158168257Y-138352966D01*
X157465000Y-138352966D01*
X157465000Y-136905252D01*
X157485002Y-136837131D01*
X157538658Y-136790638D01*
X157590249Y-136779254D01*
X158004203Y-136776787D01*
X158606873Y-136773196D01*
X158675111Y-136792792D01*
X158721923Y-136846170D01*
X158732445Y-136916382D01*
X158703337Y-136981138D01*
X158683276Y-136999954D01*
X158599433Y-137062905D01*
X158591726Y-137069748D01*
X158444590Y-137223717D01*
X158438104Y-137231727D01*
X158318098Y-137407649D01*
X158313000Y-137416623D01*
X158223338Y-137609783D01*
X158219775Y-137619470D01*
X158164389Y-137819183D01*
X158165912Y-137827607D01*
X158178292Y-137831000D01*
X160818344Y-137831000D01*
X160831875Y-137827027D01*
X160833180Y-137817947D01*
X160791214Y-137650875D01*
X160787894Y-137641124D01*
X160702972Y-137445814D01*
X160698105Y-137436739D01*
X160582426Y-137257926D01*
X160576136Y-137249757D01*
X160432806Y-137092240D01*
X160425273Y-137085215D01*
X160301566Y-136987518D01*
X160260503Y-136929601D01*
X160257271Y-136858678D01*
X160292896Y-136797267D01*
X160356067Y-136764864D01*
X160378906Y-136762638D01*
X161603426Y-136755342D01*
X162481885Y-136750108D01*
X162500000Y-136750000D01*
X162500000Y-120124899D01*
X162518000Y-120063597D01*
X162516587Y-120062820D01*
X162526346Y-120045068D01*
X162537202Y-120028541D01*
X162544757Y-120018802D01*
X162544758Y-120018800D01*
X162549614Y-120012540D01*
X162567174Y-119971960D01*
X162572391Y-119961312D01*
X162589875Y-119929509D01*
X162589876Y-119929507D01*
X162593695Y-119922560D01*
X162598733Y-119902937D01*
X162605137Y-119884234D01*
X162610033Y-119872920D01*
X162610033Y-119872919D01*
X162613181Y-119865645D01*
X162614420Y-119857822D01*
X162614423Y-119857812D01*
X162620099Y-119821976D01*
X162622505Y-119810356D01*
X162631528Y-119775211D01*
X162631528Y-119775210D01*
X162633500Y-119767530D01*
X162633500Y-119747276D01*
X162635051Y-119727565D01*
X162636980Y-119715386D01*
X162638220Y-119707557D01*
X162634059Y-119663538D01*
X162633500Y-119651681D01*
X162633500Y-107418690D01*
X162653502Y-107350569D01*
X162670405Y-107329595D01*
X167463095Y-102536905D01*
X167525407Y-102502879D01*
X167552190Y-102500000D01*
X257839837Y-102500000D01*
X257907958Y-102520002D01*
G37*
%TD.AperFunction*%
%TD*%
%TA.AperFunction,Conductor*%
%TO.N,GND*%
G36*
X266907121Y-112300002D02*
G01*
X266953614Y-112353658D01*
X266965000Y-112406000D01*
X266965000Y-155654000D01*
X266944998Y-155722121D01*
X266891342Y-155768614D01*
X266839000Y-155780000D01*
X168091000Y-155780000D01*
X168022879Y-155759998D01*
X167976386Y-155706342D01*
X167965000Y-155654000D01*
X167965000Y-150656000D01*
X167985002Y-150587879D01*
X168038658Y-150541386D01*
X168091000Y-150530000D01*
X260965000Y-150530000D01*
X260965000Y-136780000D01*
X168091000Y-136780000D01*
X168022879Y-136759998D01*
X167976386Y-136706342D01*
X167965000Y-136654000D01*
X167965000Y-131406000D01*
X167985002Y-131337879D01*
X168038658Y-131291386D01*
X168091000Y-131280000D01*
X260965000Y-131280000D01*
X260965000Y-117780000D01*
X168091000Y-117780000D01*
X168022879Y-117759998D01*
X167976386Y-117706342D01*
X167965000Y-117654000D01*
X167965000Y-112406000D01*
X167985002Y-112337879D01*
X168038658Y-112291386D01*
X168091000Y-112280000D01*
X266839000Y-112280000D01*
X266907121Y-112300002D01*
G37*
%TD.AperFunction*%
%TD*%
%TA.AperFunction,Conductor*%
%TO.N,GND*%
G36*
X258907121Y-169300002D02*
G01*
X258953614Y-169353658D01*
X258965000Y-169406000D01*
X258965000Y-171154000D01*
X258944998Y-171222121D01*
X258891342Y-171268614D01*
X258839000Y-171280000D01*
X164091000Y-171280000D01*
X164022879Y-171259998D01*
X163976386Y-171206342D01*
X163965000Y-171154000D01*
X163965000Y-169406000D01*
X163985002Y-169337879D01*
X164038658Y-169291386D01*
X164091000Y-169280000D01*
X258839000Y-169280000D01*
X258907121Y-169300002D01*
G37*
%TD.AperFunction*%
%TD*%
%TA.AperFunction,Conductor*%
%TO.N,GND*%
G36*
X258907121Y-96800002D02*
G01*
X258953614Y-96853658D01*
X258965000Y-96906000D01*
X258965000Y-98654000D01*
X258944998Y-98722121D01*
X258891342Y-98768614D01*
X258839000Y-98780000D01*
X164091000Y-98780000D01*
X164022879Y-98759998D01*
X163976386Y-98706342D01*
X163965000Y-98654000D01*
X163965000Y-96906000D01*
X163985002Y-96837879D01*
X164038658Y-96791386D01*
X164091000Y-96780000D01*
X258839000Y-96780000D01*
X258907121Y-96800002D01*
G37*
%TD.AperFunction*%
%TD*%
M02*
