%TF.GenerationSoftware,KiCad,Pcbnew,(6.0.7)*%
%TF.CreationDate,2022-11-11T00:25:46-08:00*%
%TF.ProjectId,LED_Board_s_,4c45445f-426f-4617-9264-5f735f2e6b69,rev?*%
%TF.SameCoordinates,Original*%
%TF.FileFunction,Legend,Bot*%
%TF.FilePolarity,Positive*%
%FSLAX46Y46*%
G04 Gerber Fmt 4.6, Leading zero omitted, Abs format (unit mm)*
G04 Created by KiCad (PCBNEW (6.0.7)) date 2022-11-11 00:25:46*
%MOMM*%
%LPD*%
G01*
G04 APERTURE LIST*
%ADD10C,0.150000*%
%ADD11C,0.120000*%
G04 APERTURE END LIST*
D10*
X163761904Y-127500000D02*
X163857142Y-127452380D01*
X164000000Y-127452380D01*
X164142857Y-127500000D01*
X164238095Y-127595238D01*
X164285714Y-127690476D01*
X164333333Y-127880952D01*
X164333333Y-128023809D01*
X164285714Y-128214285D01*
X164238095Y-128309523D01*
X164142857Y-128404761D01*
X164000000Y-128452380D01*
X163904761Y-128452380D01*
X163761904Y-128404761D01*
X163714285Y-128357142D01*
X163714285Y-128023809D01*
X163904761Y-128023809D01*
X163285714Y-128452380D02*
X163285714Y-127452380D01*
X162714285Y-128452380D01*
X162714285Y-127452380D01*
X162238095Y-128452380D02*
X162238095Y-127452380D01*
X162000000Y-127452380D01*
X161857142Y-127500000D01*
X161761904Y-127595238D01*
X161714285Y-127690476D01*
X161666666Y-127880952D01*
X161666666Y-128023809D01*
X161714285Y-128214285D01*
X161761904Y-128309523D01*
X161857142Y-128404761D01*
X162000000Y-128452380D01*
X162238095Y-128452380D01*
X223500000Y-161318571D02*
X223166666Y-161318571D01*
X223023809Y-161842380D02*
X223500000Y-161842380D01*
X223500000Y-160842380D01*
X223023809Y-160842380D01*
X222023809Y-161747142D02*
X222071428Y-161794761D01*
X222214285Y-161842380D01*
X222309523Y-161842380D01*
X222452380Y-161794761D01*
X222547619Y-161699523D01*
X222595238Y-161604285D01*
X222642857Y-161413809D01*
X222642857Y-161270952D01*
X222595238Y-161080476D01*
X222547619Y-160985238D01*
X222452380Y-160890000D01*
X222309523Y-160842380D01*
X222214285Y-160842380D01*
X222071428Y-160890000D01*
X222023809Y-160937619D01*
X221595238Y-161318571D02*
X221261904Y-161318571D01*
X221119047Y-161842380D02*
X221595238Y-161842380D01*
X221595238Y-160842380D01*
X221119047Y-160842380D01*
X219404761Y-161842380D02*
X219976190Y-161842380D01*
X219690476Y-161842380D02*
X219690476Y-160842380D01*
X219785714Y-160985238D01*
X219880952Y-161080476D01*
X219976190Y-161128095D01*
X218500000Y-160842380D02*
X218976190Y-160842380D01*
X219023809Y-161318571D01*
X218976190Y-161270952D01*
X218880952Y-161223333D01*
X218642857Y-161223333D01*
X218547619Y-161270952D01*
X218500000Y-161318571D01*
X218452380Y-161413809D01*
X218452380Y-161651904D01*
X218500000Y-161747142D01*
X218547619Y-161794761D01*
X218642857Y-161842380D01*
X218880952Y-161842380D01*
X218976190Y-161794761D01*
X219023809Y-161747142D01*
X217595238Y-160842380D02*
X217785714Y-160842380D01*
X217880952Y-160890000D01*
X217928571Y-160937619D01*
X218023809Y-161080476D01*
X218071428Y-161270952D01*
X218071428Y-161651904D01*
X218023809Y-161747142D01*
X217976190Y-161794761D01*
X217880952Y-161842380D01*
X217690476Y-161842380D01*
X217595238Y-161794761D01*
X217547619Y-161747142D01*
X217500000Y-161651904D01*
X217500000Y-161413809D01*
X217547619Y-161318571D01*
X217595238Y-161270952D01*
X217690476Y-161223333D01*
X217880952Y-161223333D01*
X217976190Y-161270952D01*
X218023809Y-161318571D01*
X218071428Y-161413809D01*
X216357142Y-160794761D02*
X217214285Y-162080476D01*
X216071428Y-160937619D02*
X216023809Y-160890000D01*
X215928571Y-160842380D01*
X215690476Y-160842380D01*
X215595238Y-160890000D01*
X215547619Y-160937619D01*
X215500000Y-161032857D01*
X215500000Y-161128095D01*
X215547619Y-161270952D01*
X216119047Y-161842380D01*
X215500000Y-161842380D01*
X214595238Y-160842380D02*
X215071428Y-160842380D01*
X215119047Y-161318571D01*
X215071428Y-161270952D01*
X214976190Y-161223333D01*
X214738095Y-161223333D01*
X214642857Y-161270952D01*
X214595238Y-161318571D01*
X214547619Y-161413809D01*
X214547619Y-161651904D01*
X214595238Y-161747142D01*
X214642857Y-161794761D01*
X214738095Y-161842380D01*
X214976190Y-161842380D01*
X215071428Y-161794761D01*
X215119047Y-161747142D01*
X213690476Y-160842380D02*
X213880952Y-160842380D01*
X213976190Y-160890000D01*
X214023809Y-160937619D01*
X214119047Y-161080476D01*
X214166666Y-161270952D01*
X214166666Y-161651904D01*
X214119047Y-161747142D01*
X214071428Y-161794761D01*
X213976190Y-161842380D01*
X213785714Y-161842380D01*
X213690476Y-161794761D01*
X213642857Y-161747142D01*
X213595238Y-161651904D01*
X213595238Y-161413809D01*
X213642857Y-161318571D01*
X213690476Y-161270952D01*
X213785714Y-161223333D01*
X213976190Y-161223333D01*
X214071428Y-161270952D01*
X214119047Y-161318571D01*
X214166666Y-161413809D01*
X212452380Y-161794761D02*
X212309523Y-161842380D01*
X212071428Y-161842380D01*
X211976190Y-161794761D01*
X211928571Y-161747142D01*
X211880952Y-161651904D01*
X211880952Y-161556666D01*
X211928571Y-161461428D01*
X211976190Y-161413809D01*
X212071428Y-161366190D01*
X212261904Y-161318571D01*
X212357142Y-161270952D01*
X212404761Y-161223333D01*
X212452380Y-161128095D01*
X212452380Y-161032857D01*
X212404761Y-160937619D01*
X212357142Y-160890000D01*
X212261904Y-160842380D01*
X212023809Y-160842380D01*
X211880952Y-160890000D01*
X211595238Y-161175714D02*
X211214285Y-161175714D01*
X211452380Y-160842380D02*
X211452380Y-161699523D01*
X211404761Y-161794761D01*
X211309523Y-161842380D01*
X211214285Y-161842380D01*
X210452380Y-161842380D02*
X210452380Y-161318571D01*
X210500000Y-161223333D01*
X210595238Y-161175714D01*
X210785714Y-161175714D01*
X210880952Y-161223333D01*
X210452380Y-161794761D02*
X210547619Y-161842380D01*
X210785714Y-161842380D01*
X210880952Y-161794761D01*
X210928571Y-161699523D01*
X210928571Y-161604285D01*
X210880952Y-161509047D01*
X210785714Y-161461428D01*
X210547619Y-161461428D01*
X210452380Y-161413809D01*
X209976190Y-161175714D02*
X209976190Y-161842380D01*
X209976190Y-161270952D02*
X209928571Y-161223333D01*
X209833333Y-161175714D01*
X209690476Y-161175714D01*
X209595238Y-161223333D01*
X209547619Y-161318571D01*
X209547619Y-161842380D01*
X209214285Y-161175714D02*
X208833333Y-161175714D01*
X209071428Y-161842380D02*
X209071428Y-160985238D01*
X209023809Y-160890000D01*
X208928571Y-160842380D01*
X208833333Y-160842380D01*
X208357142Y-161842380D02*
X208452380Y-161794761D01*
X208500000Y-161747142D01*
X208547619Y-161651904D01*
X208547619Y-161366190D01*
X208500000Y-161270952D01*
X208452380Y-161223333D01*
X208357142Y-161175714D01*
X208214285Y-161175714D01*
X208119047Y-161223333D01*
X208071428Y-161270952D01*
X208023809Y-161366190D01*
X208023809Y-161651904D01*
X208071428Y-161747142D01*
X208119047Y-161794761D01*
X208214285Y-161842380D01*
X208357142Y-161842380D01*
X207595238Y-161842380D02*
X207595238Y-161175714D01*
X207595238Y-161366190D02*
X207547619Y-161270952D01*
X207500000Y-161223333D01*
X207404761Y-161175714D01*
X207309523Y-161175714D01*
X206547619Y-161842380D02*
X206547619Y-160842380D01*
X206547619Y-161794761D02*
X206642857Y-161842380D01*
X206833333Y-161842380D01*
X206928571Y-161794761D01*
X206976190Y-161747142D01*
X207023809Y-161651904D01*
X207023809Y-161366190D01*
X206976190Y-161270952D01*
X206928571Y-161223333D01*
X206833333Y-161175714D01*
X206642857Y-161175714D01*
X206547619Y-161223333D01*
X205309523Y-160842380D02*
X205309523Y-161651904D01*
X205261904Y-161747142D01*
X205214285Y-161794761D01*
X205119047Y-161842380D01*
X204928571Y-161842380D01*
X204833333Y-161794761D01*
X204785714Y-161747142D01*
X204738095Y-161651904D01*
X204738095Y-160842380D01*
X204261904Y-161175714D02*
X204261904Y-161842380D01*
X204261904Y-161270952D02*
X204214285Y-161223333D01*
X204119047Y-161175714D01*
X203976190Y-161175714D01*
X203880952Y-161223333D01*
X203833333Y-161318571D01*
X203833333Y-161842380D01*
X203357142Y-161842380D02*
X203357142Y-161175714D01*
X203357142Y-160842380D02*
X203404761Y-160890000D01*
X203357142Y-160937619D01*
X203309523Y-160890000D01*
X203357142Y-160842380D01*
X203357142Y-160937619D01*
X202976190Y-161175714D02*
X202738095Y-161842380D01*
X202500000Y-161175714D01*
X201738095Y-161794761D02*
X201833333Y-161842380D01*
X202023809Y-161842380D01*
X202119047Y-161794761D01*
X202166666Y-161699523D01*
X202166666Y-161318571D01*
X202119047Y-161223333D01*
X202023809Y-161175714D01*
X201833333Y-161175714D01*
X201738095Y-161223333D01*
X201690476Y-161318571D01*
X201690476Y-161413809D01*
X202166666Y-161509047D01*
X201261904Y-161842380D02*
X201261904Y-161175714D01*
X201261904Y-161366190D02*
X201214285Y-161270952D01*
X201166666Y-161223333D01*
X201071428Y-161175714D01*
X200976190Y-161175714D01*
X200690476Y-161794761D02*
X200595238Y-161842380D01*
X200404761Y-161842380D01*
X200309523Y-161794761D01*
X200261904Y-161699523D01*
X200261904Y-161651904D01*
X200309523Y-161556666D01*
X200404761Y-161509047D01*
X200547619Y-161509047D01*
X200642857Y-161461428D01*
X200690476Y-161366190D01*
X200690476Y-161318571D01*
X200642857Y-161223333D01*
X200547619Y-161175714D01*
X200404761Y-161175714D01*
X200309523Y-161223333D01*
X199833333Y-161842380D02*
X199833333Y-161175714D01*
X199833333Y-160842380D02*
X199880952Y-160890000D01*
X199833333Y-160937619D01*
X199785714Y-160890000D01*
X199833333Y-160842380D01*
X199833333Y-160937619D01*
X199500000Y-161175714D02*
X199119047Y-161175714D01*
X199357142Y-160842380D02*
X199357142Y-161699523D01*
X199309523Y-161794761D01*
X199214285Y-161842380D01*
X199119047Y-161842380D01*
X198880952Y-161175714D02*
X198642857Y-161842380D01*
X198404761Y-161175714D02*
X198642857Y-161842380D01*
X198738095Y-162080476D01*
X198785714Y-162128095D01*
X198880952Y-162175714D01*
X218761904Y-163452380D02*
X218761904Y-162452380D01*
X218428571Y-163166666D01*
X218095238Y-162452380D01*
X218095238Y-163452380D01*
X217238095Y-163404761D02*
X217333333Y-163452380D01*
X217523809Y-163452380D01*
X217619047Y-163404761D01*
X217666666Y-163309523D01*
X217666666Y-162928571D01*
X217619047Y-162833333D01*
X217523809Y-162785714D01*
X217333333Y-162785714D01*
X217238095Y-162833333D01*
X217190476Y-162928571D01*
X217190476Y-163023809D01*
X217666666Y-163119047D01*
X216619047Y-163452380D02*
X216714285Y-163404761D01*
X216761904Y-163309523D01*
X216761904Y-162452380D01*
X216333333Y-162785714D02*
X216095238Y-163452380D01*
X215857142Y-162785714D01*
X215476190Y-163452380D02*
X215476190Y-162785714D01*
X215476190Y-162452380D02*
X215523809Y-162500000D01*
X215476190Y-162547619D01*
X215428571Y-162500000D01*
X215476190Y-162452380D01*
X215476190Y-162547619D01*
X215000000Y-162785714D02*
X215000000Y-163452380D01*
X215000000Y-162880952D02*
X214952380Y-162833333D01*
X214857142Y-162785714D01*
X214714285Y-162785714D01*
X214619047Y-162833333D01*
X214571428Y-162928571D01*
X214571428Y-163452380D01*
X213142857Y-162452380D02*
X212952380Y-162452380D01*
X212857142Y-162500000D01*
X212761904Y-162595238D01*
X212714285Y-162785714D01*
X212714285Y-163119047D01*
X212761904Y-163309523D01*
X212857142Y-163404761D01*
X212952380Y-163452380D01*
X213142857Y-163452380D01*
X213238095Y-163404761D01*
X213333333Y-163309523D01*
X213380952Y-163119047D01*
X213380952Y-162785714D01*
X213333333Y-162595238D01*
X213238095Y-162500000D01*
X213142857Y-162452380D01*
X212285714Y-163452380D02*
X212285714Y-162785714D01*
X212285714Y-162976190D02*
X212238095Y-162880952D01*
X212190476Y-162833333D01*
X212095238Y-162785714D01*
X212000000Y-162785714D01*
X211666666Y-163452380D02*
X211666666Y-162785714D01*
X211666666Y-162452380D02*
X211714285Y-162500000D01*
X211666666Y-162547619D01*
X211619047Y-162500000D01*
X211666666Y-162452380D01*
X211666666Y-162547619D01*
X210761904Y-163404761D02*
X210857142Y-163452380D01*
X211047619Y-163452380D01*
X211142857Y-163404761D01*
X211190476Y-163357142D01*
X211238095Y-163261904D01*
X211238095Y-162976190D01*
X211190476Y-162880952D01*
X211142857Y-162833333D01*
X211047619Y-162785714D01*
X210857142Y-162785714D01*
X210761904Y-162833333D01*
X210333333Y-163452380D02*
X210333333Y-162452380D01*
X209904761Y-163452380D02*
X209904761Y-162928571D01*
X209952380Y-162833333D01*
X210047619Y-162785714D01*
X210190476Y-162785714D01*
X210285714Y-162833333D01*
X210333333Y-162880952D01*
X209428571Y-163452380D02*
X209428571Y-162785714D01*
X209428571Y-162452380D02*
X209476190Y-162500000D01*
X209428571Y-162547619D01*
X209380952Y-162500000D01*
X209428571Y-162452380D01*
X209428571Y-162547619D01*
X208238095Y-163404761D02*
X208095238Y-163452380D01*
X207857142Y-163452380D01*
X207761904Y-163404761D01*
X207714285Y-163357142D01*
X207666666Y-163261904D01*
X207666666Y-163166666D01*
X207714285Y-163071428D01*
X207761904Y-163023809D01*
X207857142Y-162976190D01*
X208047619Y-162928571D01*
X208142857Y-162880952D01*
X208190476Y-162833333D01*
X208238095Y-162738095D01*
X208238095Y-162642857D01*
X208190476Y-162547619D01*
X208142857Y-162500000D01*
X208047619Y-162452380D01*
X207809523Y-162452380D01*
X207666666Y-162500000D01*
X207095238Y-163452380D02*
X207190476Y-163404761D01*
X207238095Y-163357142D01*
X207285714Y-163261904D01*
X207285714Y-162976190D01*
X207238095Y-162880952D01*
X207190476Y-162833333D01*
X207095238Y-162785714D01*
X206952380Y-162785714D01*
X206857142Y-162833333D01*
X206809523Y-162880952D01*
X206761904Y-162976190D01*
X206761904Y-163261904D01*
X206809523Y-163357142D01*
X206857142Y-163404761D01*
X206952380Y-163452380D01*
X207095238Y-163452380D01*
X205904761Y-163404761D02*
X206000000Y-163452380D01*
X206190476Y-163452380D01*
X206285714Y-163404761D01*
X206333333Y-163357142D01*
X206380952Y-163261904D01*
X206380952Y-162976190D01*
X206333333Y-162880952D01*
X206285714Y-162833333D01*
X206190476Y-162785714D01*
X206000000Y-162785714D01*
X205904761Y-162833333D01*
X205047619Y-163452380D02*
X205047619Y-162928571D01*
X205095238Y-162833333D01*
X205190476Y-162785714D01*
X205380952Y-162785714D01*
X205476190Y-162833333D01*
X205047619Y-163404761D02*
X205142857Y-163452380D01*
X205380952Y-163452380D01*
X205476190Y-163404761D01*
X205523809Y-163309523D01*
X205523809Y-163214285D01*
X205476190Y-163119047D01*
X205380952Y-163071428D01*
X205142857Y-163071428D01*
X205047619Y-163023809D01*
X204571428Y-162785714D02*
X204571428Y-163452380D01*
X204571428Y-162880952D02*
X204523809Y-162833333D01*
X204428571Y-162785714D01*
X204285714Y-162785714D01*
X204190476Y-162833333D01*
X204142857Y-162928571D01*
X204142857Y-163452380D01*
X203238095Y-163452380D02*
X203238095Y-162928571D01*
X203285714Y-162833333D01*
X203380952Y-162785714D01*
X203571428Y-162785714D01*
X203666666Y-162833333D01*
X203238095Y-163404761D02*
X203333333Y-163452380D01*
X203571428Y-163452380D01*
X203666666Y-163404761D01*
X203714285Y-163309523D01*
X203714285Y-163214285D01*
X203666666Y-163119047D01*
X203571428Y-163071428D01*
X203333333Y-163071428D01*
X203238095Y-163023809D01*
X215666666Y-164062380D02*
X215666666Y-164871904D01*
X215619047Y-164967142D01*
X215571428Y-165014761D01*
X215476190Y-165062380D01*
X215285714Y-165062380D01*
X215190476Y-165014761D01*
X215142857Y-164967142D01*
X215095238Y-164871904D01*
X215095238Y-164062380D01*
X214714285Y-164395714D02*
X214190476Y-164395714D01*
X214714285Y-165062380D01*
X214190476Y-165062380D01*
X213809523Y-165062380D02*
X213809523Y-164395714D01*
X213809523Y-164490952D02*
X213761904Y-164443333D01*
X213666666Y-164395714D01*
X213523809Y-164395714D01*
X213428571Y-164443333D01*
X213380952Y-164538571D01*
X213380952Y-165062380D01*
X213380952Y-164538571D02*
X213333333Y-164443333D01*
X213238095Y-164395714D01*
X213095238Y-164395714D01*
X213000000Y-164443333D01*
X212952380Y-164538571D01*
X212952380Y-165062380D01*
X212047619Y-165062380D02*
X212047619Y-164538571D01*
X212095238Y-164443333D01*
X212190476Y-164395714D01*
X212380952Y-164395714D01*
X212476190Y-164443333D01*
X212047619Y-165014761D02*
X212142857Y-165062380D01*
X212380952Y-165062380D01*
X212476190Y-165014761D01*
X212523809Y-164919523D01*
X212523809Y-164824285D01*
X212476190Y-164729047D01*
X212380952Y-164681428D01*
X212142857Y-164681428D01*
X212047619Y-164633809D01*
X210857142Y-165014761D02*
X210714285Y-165062380D01*
X210476190Y-165062380D01*
X210380952Y-165014761D01*
X210333333Y-164967142D01*
X210285714Y-164871904D01*
X210285714Y-164776666D01*
X210333333Y-164681428D01*
X210380952Y-164633809D01*
X210476190Y-164586190D01*
X210666666Y-164538571D01*
X210761904Y-164490952D01*
X210809523Y-164443333D01*
X210857142Y-164348095D01*
X210857142Y-164252857D01*
X210809523Y-164157619D01*
X210761904Y-164110000D01*
X210666666Y-164062380D01*
X210428571Y-164062380D01*
X210285714Y-164110000D01*
X209857142Y-165062380D02*
X209857142Y-164062380D01*
X209428571Y-165062380D02*
X209428571Y-164538571D01*
X209476190Y-164443333D01*
X209571428Y-164395714D01*
X209714285Y-164395714D01*
X209809523Y-164443333D01*
X209857142Y-164490952D01*
X208523809Y-165062380D02*
X208523809Y-164538571D01*
X208571428Y-164443333D01*
X208666666Y-164395714D01*
X208857142Y-164395714D01*
X208952380Y-164443333D01*
X208523809Y-165014761D02*
X208619047Y-165062380D01*
X208857142Y-165062380D01*
X208952380Y-165014761D01*
X209000000Y-164919523D01*
X209000000Y-164824285D01*
X208952380Y-164729047D01*
X208857142Y-164681428D01*
X208619047Y-164681428D01*
X208523809Y-164633809D01*
X208047619Y-165062380D02*
X208047619Y-164395714D01*
X208047619Y-164062380D02*
X208095238Y-164110000D01*
X208047619Y-164157619D01*
X208000000Y-164110000D01*
X208047619Y-164062380D01*
X208047619Y-164157619D01*
X207571428Y-165062380D02*
X207571428Y-164062380D01*
X207476190Y-164681428D02*
X207190476Y-165062380D01*
X207190476Y-164395714D02*
X207571428Y-164776666D01*
X206761904Y-165062380D02*
X206761904Y-164062380D01*
X206333333Y-165062380D02*
X206333333Y-164538571D01*
X206380952Y-164443333D01*
X206476190Y-164395714D01*
X206619047Y-164395714D01*
X206714285Y-164443333D01*
X206761904Y-164490952D01*
X164333333Y-135202380D02*
X164000000Y-136202380D01*
X163666666Y-135202380D01*
X162761904Y-136107142D02*
X162809523Y-136154761D01*
X162952380Y-136202380D01*
X163047619Y-136202380D01*
X163190476Y-136154761D01*
X163285714Y-136059523D01*
X163333333Y-135964285D01*
X163380952Y-135773809D01*
X163380952Y-135630952D01*
X163333333Y-135440476D01*
X163285714Y-135345238D01*
X163190476Y-135250000D01*
X163047619Y-135202380D01*
X162952380Y-135202380D01*
X162809523Y-135250000D01*
X162761904Y-135297619D01*
X161761904Y-136107142D02*
X161809523Y-136154761D01*
X161952380Y-136202380D01*
X162047619Y-136202380D01*
X162190476Y-136154761D01*
X162285714Y-136059523D01*
X162333333Y-135964285D01*
X162380952Y-135773809D01*
X162380952Y-135630952D01*
X162333333Y-135440476D01*
X162285714Y-135345238D01*
X162190476Y-135250000D01*
X162047619Y-135202380D01*
X161952380Y-135202380D01*
X161809523Y-135250000D01*
X161761904Y-135297619D01*
X163428571Y-133607142D02*
X163476190Y-133654761D01*
X163619047Y-133702380D01*
X163714285Y-133702380D01*
X163857142Y-133654761D01*
X163952380Y-133559523D01*
X164000000Y-133464285D01*
X164047619Y-133273809D01*
X164047619Y-133130952D01*
X164000000Y-132940476D01*
X163952380Y-132845238D01*
X163857142Y-132750000D01*
X163714285Y-132702380D01*
X163619047Y-132702380D01*
X163476190Y-132750000D01*
X163428571Y-132797619D01*
X163000000Y-133702380D02*
X163000000Y-132702380D01*
X162428571Y-133702380D02*
X162857142Y-133130952D01*
X162428571Y-132702380D02*
X163000000Y-133273809D01*
X162000000Y-133702380D02*
X162000000Y-132702380D01*
X164023809Y-130904761D02*
X163880952Y-130952380D01*
X163642857Y-130952380D01*
X163547619Y-130904761D01*
X163500000Y-130857142D01*
X163452380Y-130761904D01*
X163452380Y-130666666D01*
X163500000Y-130571428D01*
X163547619Y-130523809D01*
X163642857Y-130476190D01*
X163833333Y-130428571D01*
X163928571Y-130380952D01*
X163976190Y-130333333D01*
X164023809Y-130238095D01*
X164023809Y-130142857D01*
X163976190Y-130047619D01*
X163928571Y-130000000D01*
X163833333Y-129952380D01*
X163595238Y-129952380D01*
X163452380Y-130000000D01*
X163023809Y-130952380D02*
X163023809Y-129952380D01*
X162785714Y-129952380D01*
X162642857Y-130000000D01*
X162547619Y-130095238D01*
X162500000Y-130190476D01*
X162452380Y-130380952D01*
X162452380Y-130523809D01*
X162500000Y-130714285D01*
X162547619Y-130809523D01*
X162642857Y-130904761D01*
X162785714Y-130952380D01*
X163023809Y-130952380D01*
X162023809Y-130952380D02*
X162023809Y-129952380D01*
X163190476Y-137952380D02*
X163666666Y-137952380D01*
X163714285Y-138428571D01*
X163666666Y-138380952D01*
X163571428Y-138333333D01*
X163333333Y-138333333D01*
X163238095Y-138380952D01*
X163190476Y-138428571D01*
X163142857Y-138523809D01*
X163142857Y-138761904D01*
X163190476Y-138857142D01*
X163238095Y-138904761D01*
X163333333Y-138952380D01*
X163571428Y-138952380D01*
X163666666Y-138904761D01*
X163714285Y-138857142D01*
X162857142Y-137952380D02*
X162523809Y-138952380D01*
X162190476Y-137952380D01*
%TO.C,J1*%
X159833333Y-125047380D02*
X159833333Y-125761666D01*
X159880952Y-125904523D01*
X159976190Y-125999761D01*
X160119047Y-126047380D01*
X160214285Y-126047380D01*
X158833333Y-126047380D02*
X159404761Y-126047380D01*
X159119047Y-126047380D02*
X159119047Y-125047380D01*
X159214285Y-125190238D01*
X159309523Y-125285476D01*
X159404761Y-125333095D01*
D11*
X160830000Y-129195000D02*
X158170000Y-129195000D01*
X160830000Y-126595000D02*
X159500000Y-126595000D01*
X158170000Y-129195000D02*
X158170000Y-139415000D01*
X160830000Y-129195000D02*
X160830000Y-139415000D01*
X160830000Y-139415000D02*
X158170000Y-139415000D01*
X160830000Y-127925000D02*
X160830000Y-126595000D01*
%TD*%
M02*
